<svg width="16" height="24" viewBox="0 0 16 24" fill="none" xmlns="http://www.w3.org/2000/svg">
    <path fill-rule="evenodd" clip-rule="evenodd" d="M7.35008 23.847C7.54946 23.9449 7.77471 24 8.01465 24C8.4975 24 8.92897 23.7688 9.20381 23.4116L15.0654 17.55C15.6504 16.95 15.6504 16.005 15.0654 15.42C14.4654 14.82 13.5204 14.82 12.9354 15.42L9.51465 18.8407V1.5C9.51465 0.66 8.83965 0 8.01465 0C7.17465 0 6.51465 0.66 6.51465 1.5V18.868L3.08 15.4333C2.48 14.8348 1.535 14.8348 0.95 15.4348C0.35 16.0198 0.35 16.9648 0.95 17.5648L6.95 23.5648C7.06446 23.6793 7.20048 23.7749 7.35008 23.847Z" fill="#DC2626"/>
</svg>
