<svg width="16" height="24" viewBox="0 0 16 24" fill="none" xmlns="http://www.w3.org/2000/svg">
    <path fill-rule="evenodd" clip-rule="evenodd" d="M0.951284 8.58426C1.22092 8.85392 1.6104 9.01872 2.01485 9.01872L1.99987 9.00373C2.38935 9.00373 2.77882 8.83894 3.06344 8.56928L6.50948 5.1229V22.5019C6.50948 23.3259 7.16859 24 8.00746 24C8.83135 24 9.50544 23.3259 9.50544 22.5019V5.15466L12.9347 8.58426C13.2043 8.85392 13.5938 9.01872 13.9983 9.01872L13.9833 8.98875C14.3728 8.98875 14.7622 8.82396 15.0469 8.5543H15.0618C15.6461 7.97003 15.6461 7.01123 15.0618 6.44194L9.06992 0.449438C8.76844 0.147932 8.37974 -0.00187438 7.9935 1.8186e-05C7.60718 -0.00189989 7.22219 0.147907 6.92823 0.449438L0.936305 6.44194V6.45692C0.352092 7.04119 0.352092 7.99999 0.951284 8.58426Z" fill="#059669"/>
</svg>
