<svg width="502" height="352" viewBox="0 0 502 352" fill="none" xmlns="http://www.w3.org/2000/svg">
    <path d="M176.954 259.302L208.54 240.953L208.518 255.756L176.909 274.105L176.954 259.302Z" fill="#EDF8D5"/>
    <path d="M102.386 216.266L176.954 259.302L208.541 240.953L159.243 212.521L133.973 197.917L129.784 200.377L126.149 202.482L123.289 204.144L102.386 216.266Z" fill="#698F4E"/>
    <path d="M112.317 216.266L133.995 203.679L198.588 240.975L176.931 253.562L112.317 216.266Z" fill="#EDF8D5"/>
    <path d="M176.954 259.302L176.909 274.105L102.364 231.069L102.386 216.266L176.954 259.302Z" fill="#BACF8A"/>
    <path d="M166.912 219.147C172.188 222.183 170.237 228.255 162.479 232.687C154.721 237.119 144.28 238.271 139.005 235.213C133.729 232.155 135.702 226.105 143.438 221.673C151.174 217.241 161.659 216.111 166.912 219.147Z" fill="#698F4E"/>
    <path d="M176.244 222.316L144.635 240.665L134.261 234.681L132.776 233.795L129.762 232.066L161.349 213.717L164.363 215.446L165.871 216.31L176.244 222.316Z" fill="#F6F6F6"/>
    <path d="M144.635 240.665L144.613 255.468L134.261 249.485L132.754 248.598L129.739 246.87L129.761 232.067L132.754 233.795L134.261 234.681L144.635 240.665Z" fill="#C6C6C6"/>
    <path d="M164.939 215.778L133.353 234.15V248.953L131.845 248.066V233.263L163.432 214.914L164.939 215.778Z" fill="#F50D1B"/>
    <path d="M133.353 234.15V248.953L131.845 248.067V233.263L133.353 234.15Z" fill="#C00A15"/>
    <path d="M173.961 220.986L142.374 239.335V254.161L140.867 253.274V238.471L172.454 220.122L173.961 220.986Z" fill="#F50D1B"/>
    <path d="M142.374 239.335V254.161L140.867 253.274V238.471L142.374 239.335Z" fill="#C00A15"/>
    <path d="M179.547 233.684C179.936 233.813 180.274 234.062 180.513 234.394C180.753 234.726 180.882 235.125 180.882 235.535C180.882 235.944 180.753 236.343 180.513 236.675C180.274 237.007 179.936 237.256 179.547 237.385C178.554 237.887 177.457 238.149 176.344 238.149C175.231 238.149 174.134 237.887 173.141 237.385C172.752 237.256 172.414 237.007 172.175 236.675C171.935 236.343 171.806 235.944 171.806 235.535C171.806 235.125 171.935 234.726 172.175 234.394C172.414 234.062 172.752 233.813 173.141 233.684C174.134 233.182 175.231 232.92 176.344 232.92C177.457 232.92 178.554 233.182 179.547 233.684Z" fill="#698F4E"/>
    <path d="M140.379 214.471C140.768 214.6 141.106 214.848 141.345 215.181C141.585 215.513 141.714 215.912 141.714 216.321C141.714 216.731 141.585 217.13 141.345 217.462C141.106 217.794 140.768 218.042 140.379 218.172C139.39 218.674 138.296 218.936 137.187 218.936C136.078 218.936 134.984 218.674 133.995 218.172C133.607 218.042 133.269 217.794 133.029 217.462C132.789 217.13 132.66 216.731 132.66 216.321C132.66 215.912 132.789 215.513 133.029 215.181C133.269 214.848 133.607 214.6 133.995 214.471C134.984 213.969 136.078 213.707 137.187 213.707C138.296 213.707 139.39 213.969 140.379 214.471Z" fill="#698F4E"/>
    <path d="M161.991 235.191L177.352 244.055L179.746 242.659L164.385 233.795L161.991 235.191Z" fill="#698F4E"/>
    <path d="M159.974 237.717L172.077 244.698L173.961 243.612L161.858 236.632L159.974 237.717Z" fill="#698F4E"/>
    <path d="M78.6459 228.366L110.211 209.972V224.776L78.6238 243.147L78.6459 228.366Z" fill="#EDF8D5"/>
    <path d="M4.05664 185.396L78.6462 228.366L110.233 209.972L60.9132 181.585L35.6214 167.003L31.432 169.463L27.7967 171.568L24.9595 173.23L4.05664 185.396Z" fill="#698F4E"/>
    <path d="M13.9868 185.374L35.6433 172.765L100.28 209.995L78.6237 222.604L13.9868 185.374Z" fill="#EDF8D5"/>
    <path d="M78.6459 228.366L78.6238 243.147L4.03418 200.177L4.05635 185.396L78.6459 228.366Z" fill="#BACF8A"/>
    <path d="M68.5825 188.211C73.858 191.247 71.9074 197.23 64.2822 201.662C56.657 206.094 46.1059 207.247 40.8303 204.211C35.5547 201.175 37.5053 195.103 45.2635 190.67C53.0217 186.238 63.3069 185.175 68.5825 188.211Z" fill="#698F4E"/>
    <path d="M77.9146 191.357L46.3276 209.729L35.9538 203.767L34.4465 202.903L31.4319 201.152L63.0188 182.781L66.0335 184.51L67.5186 185.374L77.9146 191.357Z" fill="#F6F6F6"/>
    <path d="M46.3276 209.729V224.532L35.9538 218.571L34.4465 217.684L31.4319 215.956V201.152L34.4465 202.903L35.9538 203.767L46.3276 209.729Z" fill="#C6C6C6"/>
    <path d="M66.6097 184.842L35.0227 203.213L35.0449 218.039L33.5375 217.152L33.5154 202.349L65.1024 183.978L66.6097 184.842Z" fill="#F50D1B"/>
    <path d="M35.0227 203.213L35.0449 218.039L33.5375 217.152L33.5154 202.349L35.0227 203.213Z" fill="#C00A15"/>
    <path d="M75.6314 190.05L44.0444 208.421L44.0666 223.224L42.5593 222.36L42.5371 207.557L74.1241 189.186L75.6314 190.05Z" fill="#F50D1B"/>
    <path d="M44.0444 208.421L44.0666 223.224L42.5593 222.36L42.5371 207.557L44.0444 208.421Z" fill="#C00A15"/>
    <path d="M81.1286 202.748C81.5094 202.882 81.8392 203.131 82.0725 203.46C82.3058 203.79 82.431 204.184 82.431 204.587C82.431 204.991 82.3058 205.385 82.0725 205.714C81.8392 206.044 81.5094 206.292 81.1286 206.427C80.1356 206.929 79.0384 207.191 77.9255 207.191C76.8127 207.191 75.7154 206.929 74.7225 206.427C74.3309 206.304 73.9888 206.059 73.7459 205.728C73.503 205.397 73.3721 204.998 73.3721 204.587C73.3721 204.177 73.503 203.777 73.7459 203.446C73.9888 203.116 74.3309 202.871 74.7225 202.748C75.7154 202.246 76.8127 201.984 77.9255 201.984C79.0384 201.984 80.1356 202.246 81.1286 202.748Z" fill="#698F4E"/>
    <path d="M42.116 183.557C43.8893 184.576 43.8893 186.216 42.116 187.258C41.1269 187.76 40.0333 188.022 38.924 188.022C37.8147 188.022 36.7211 187.76 35.7321 187.258C35.3434 187.128 35.0053 186.88 34.7657 186.548C34.5261 186.216 34.3972 185.817 34.3972 185.407C34.3972 184.998 34.5261 184.599 34.7657 184.266C35.0053 183.934 35.3434 183.686 35.7321 183.557C36.7211 183.055 37.8147 182.793 38.924 182.793C40.0333 182.793 41.1269 183.055 42.116 183.557Z" fill="#698F4E"/>
    <path d="M63.6838 204.255L79.0451 213.097L81.4169 211.723L66.0556 202.859L63.6838 204.255Z" fill="#698F4E"/>
    <path d="M61.6665 206.781L73.7693 213.74L75.6534 212.654L63.5285 205.673L61.6665 206.781Z" fill="#698F4E"/>
    <path d="M39.4339 292.831L7.84692 274.482L7.86909 289.263L39.4561 307.612L39.4339 292.831Z" fill="#EDF8D5"/>
    <path d="M113.979 249.795L39.4338 292.831L7.82471 274.482L57.1225 246.028L82.3921 231.446L86.5815 233.884L90.2168 235.989L93.0763 237.651L113.979 249.795Z" fill="#698F4E"/>
    <path d="M104.049 249.773L82.3699 237.186L17.7773 274.482L39.4338 287.069L104.049 249.773Z" fill="#EDF8D5"/>
    <path d="M39.4338 292.831L39.456 307.612L114.001 264.598L113.979 249.795L39.4338 292.831Z" fill="#BACF8A"/>
    <path d="M49.453 252.632C44.1774 255.668 46.1502 261.717 53.8863 266.172C61.6223 270.626 72.0848 271.734 77.3604 268.698C82.636 265.662 80.6632 259.59 72.9271 255.158C65.1911 250.726 54.7286 249.618 49.453 252.632Z" fill="#698F4E"/>
    <path d="M40.1211 255.823L71.7302 274.172L82.104 268.188L83.6114 267.324L86.6038 265.573L55.0168 247.224L52.0022 248.975L50.5171 249.839L40.1211 255.823Z" fill="#F6F6F6"/>
    <path d="M71.7302 274.172L71.7524 288.975L82.104 282.992L83.6114 282.127L86.626 280.377L86.6038 265.573L83.6114 267.324L82.104 268.188L71.7302 274.172Z" fill="#C6C6C6"/>
    <path d="M51.4258 249.308L83.0349 267.657V282.46L84.5201 281.596V266.792L52.9331 248.443L51.4258 249.308Z" fill="#F50D1B"/>
    <path d="M83.0349 267.657V282.46L84.5201 281.596V266.792L83.0349 267.657Z" fill="#C00A15"/>
    <path d="M42.4041 254.515L74.0132 272.864V287.668L75.4983 286.803V272L43.9114 253.651L42.4041 254.515Z" fill="#F50D1B"/>
    <path d="M74.0132 272.864V287.668L75.4983 286.803V272L74.0132 272.864Z" fill="#C00A15"/>
    <path d="M36.9291 267.213C36.5375 267.336 36.1953 267.581 35.9525 267.912C35.7096 268.243 35.5786 268.642 35.5786 269.053C35.5786 269.463 35.7096 269.863 35.9525 270.193C36.1953 270.524 36.5375 270.769 36.9291 270.892C37.922 271.394 39.0192 271.656 40.1321 271.656C41.2449 271.656 42.3422 271.394 43.3351 270.892C43.7159 270.758 44.0457 270.509 44.279 270.179C44.5123 269.85 44.6376 269.456 44.6376 269.053C44.6376 268.649 44.5123 268.255 44.279 267.926C44.0457 267.596 43.7159 267.347 43.3351 267.213C42.3422 266.711 41.2449 266.449 40.1321 266.449C39.0192 266.449 37.922 266.711 36.9291 267.213Z" fill="#698F4E"/>
    <path d="M79.1779 252.454C81.6753 252.454 83.6998 251.284 83.6998 249.839C83.6998 248.395 81.6753 247.224 79.1779 247.224C76.6805 247.224 74.656 248.395 74.656 249.839C74.656 251.284 76.6805 252.454 79.1779 252.454Z" fill="#698F4E"/>
    <path d="M54.3739 268.698L39.0126 277.562L36.6187 276.188L51.9799 267.324L54.3739 268.698Z" fill="#698F4E"/>
    <path d="M56.391 271.224L44.2882 278.205L42.4041 277.119L54.5068 270.139L56.391 271.224Z" fill="#698F4E"/>
    <path d="M86.8919 303.513L55.3049 285.141L55.3271 299.945L86.9141 318.294L86.8919 303.513Z" fill="#EDF8D5"/>
    <path d="M161.437 260.476L86.8919 303.512L55.3049 285.141L104.581 256.709L129.85 242.127L134.062 244.565L137.697 246.67L140.556 248.332L161.437 260.476Z" fill="#698F4E"/>
    <path d="M151.507 260.454L129.85 247.867L65.2354 285.163L86.8918 297.751L151.507 260.454Z" fill="#EDF8D5"/>
    <path d="M86.8918 303.513L86.914 318.294L161.481 275.258L161.437 260.477L86.8918 303.513Z" fill="#BACF8A"/>
    <path d="M96.9111 263.335C91.6576 266.393 93.6083 272.443 101.344 276.875C109.08 281.308 119.543 282.46 124.796 279.402C130.05 276.344 128.121 270.316 120.363 265.862C112.605 261.407 102.187 260.299 96.9111 263.335Z" fill="#698F4E"/>
    <path d="M87.6011 266.504L119.188 284.853L129.562 278.87L131.069 278.005L134.084 276.255L102.497 257.906L99.4822 259.634L97.9749 260.499L87.6011 266.504Z" fill="#F6F6F6"/>
    <path d="M119.188 284.853L119.21 299.656L129.562 293.673L131.069 292.809L134.106 291.058L134.084 276.255L131.069 278.005L129.562 278.87L119.188 284.853Z" fill="#C6C6C6"/>
    <path d="M98.906 259.967L130.493 278.338V293.141L132 292.255V277.474L100.391 259.102L98.906 259.967Z" fill="#F50D1B"/>
    <path d="M130.493 278.338V293.141L132 292.255V277.474L130.493 278.338Z" fill="#C00A15"/>
    <path d="M89.8843 265.175L121.471 283.546V298.349L122.979 297.485V282.681L91.3694 264.31L89.8843 265.175Z" fill="#F50D1B"/>
    <path d="M121.471 283.546V298.349L122.979 297.485V282.681L121.471 283.546Z" fill="#C00A15"/>
    <path d="M84.4093 277.895C84.0177 278.018 83.6756 278.262 83.4327 278.593C83.1898 278.924 83.0588 279.324 83.0588 279.734C83.0588 280.144 83.1898 280.544 83.4327 280.875C83.6756 281.206 84.0177 281.45 84.4093 281.573C85.3983 282.076 86.4919 282.337 87.6012 282.337C88.7105 282.337 89.8041 282.076 90.7932 281.573C91.1848 281.45 91.5269 281.206 91.7698 280.875C92.0126 280.544 92.1436 280.144 92.1436 279.734C92.1436 279.324 92.0126 278.924 91.7698 278.593C91.5269 278.262 91.1848 278.018 90.7932 277.895C89.8041 277.392 88.7105 277.131 87.6012 277.131C86.4919 277.131 85.3983 277.392 84.4093 277.895Z" fill="#698F4E"/>
    <path d="M126.658 263.136C129.156 263.136 131.18 261.965 131.18 260.521C131.18 259.077 129.156 257.906 126.658 257.906C124.161 257.906 122.136 259.077 122.136 260.521C122.136 261.965 124.161 263.136 126.658 263.136Z" fill="#698F4E"/>
    <path d="M101.854 279.38L86.4928 288.244L84.0989 286.87L99.4601 278.006L101.854 279.38Z" fill="#698F4E"/>
    <path d="M103.871 281.906L91.7684 288.886L89.8843 287.801L101.987 280.82L103.871 281.906Z" fill="#698F4E"/>
    <path d="M129.096 247.047L97.5095 228.698L97.5317 243.501L129.119 261.85L129.096 247.047Z" fill="#EDF8D5"/>
    <path d="M203.642 204.011L129.096 247.047L97.5095 228.698L146.785 200.244L172.077 185.662L176.266 188.122L179.902 190.227L182.761 191.867L203.642 204.011Z" fill="#698F4E"/>
    <path d="M193.711 204.011L172.055 191.424L107.44 228.72L129.119 241.307L193.711 204.011Z" fill="#EDF8D5"/>
    <path d="M129.096 247.047L129.119 261.85L203.686 218.814L203.664 204.011L129.096 247.047Z" fill="#BACF8A"/>
    <path d="M139.116 206.892C133.862 209.928 135.813 216 143.549 220.432C151.285 224.864 161.814 226.039 166.979 222.958C172.143 219.878 170.281 213.85 162.545 209.418C154.809 204.986 144.391 203.878 139.116 206.892Z" fill="#698F4E"/>
    <path d="M129.806 210.039L161.393 228.388L171.789 222.404L173.274 221.54L176.289 219.812L144.702 201.463L141.687 203.191L140.18 204.055L129.806 210.039Z" fill="#F6F6F6"/>
    <path d="M161.393 228.388L161.415 243.191L171.789 237.23L173.274 236.344L176.311 234.593L176.289 219.812L173.274 221.54L171.789 222.404L161.393 228.388Z" fill="#C6C6C6"/>
    <path d="M141.111 203.524L172.698 221.873V236.698L174.205 235.812V221.008L142.596 202.659L141.111 203.524Z" fill="#F50D1B"/>
    <path d="M172.698 221.873V236.698L174.205 235.812V221.008L172.698 221.873Z" fill="#C00A15"/>
    <path d="M132.089 208.731L163.676 227.08V241.906L165.183 241.019V226.216L133.574 207.867L132.089 208.731Z" fill="#F50D1B"/>
    <path d="M163.676 227.08V241.906L165.183 241.019V226.216L163.676 227.08Z" fill="#C00A15"/>
    <path d="M126.614 221.429C126.225 221.559 125.887 221.807 125.648 222.139C125.408 222.471 125.279 222.87 125.279 223.28C125.279 223.689 125.408 224.088 125.648 224.421C125.887 224.753 126.225 225.001 126.614 225.13C127.603 225.632 128.697 225.894 129.806 225.894C130.915 225.894 132.009 225.632 132.998 225.13C133.386 225.001 133.725 224.753 133.964 224.421C134.204 224.088 134.333 223.689 134.333 223.28C134.333 222.87 134.204 222.471 133.964 222.139C133.725 221.807 133.386 221.559 132.998 221.429C132.009 220.927 130.915 220.665 129.806 220.665C128.697 220.665 127.603 220.927 126.614 221.429Z" fill="#698F4E"/>
    <path d="M165.649 202.216C165.26 202.345 164.922 202.594 164.682 202.926C164.443 203.258 164.314 203.657 164.314 204.066C164.314 204.476 164.443 204.875 164.682 205.207C164.922 205.539 165.26 205.788 165.649 205.917C166.642 206.419 167.739 206.681 168.852 206.681C169.965 206.681 171.062 206.419 172.055 205.917C172.444 205.788 172.782 205.539 173.021 205.207C173.261 204.875 173.39 204.476 173.39 204.066C173.39 203.657 173.261 203.258 173.021 202.926C172.782 202.594 172.444 202.345 172.055 202.216C171.062 201.714 169.965 201.452 168.852 201.452C167.739 201.452 166.642 201.714 165.649 202.216Z" fill="#698F4E"/>
    <path d="M144.059 222.914L128.697 231.778L126.303 230.404L141.665 221.54L144.059 222.914Z" fill="#698F4E"/>
    <path d="M146.076 225.44L133.973 232.443L132.089 231.357L144.192 224.355L146.076 225.44Z" fill="#698F4E"/>
    <path d="M31.587 263.291L0 244.92L0.0221663 259.723L31.6091 278.072L31.587 263.291Z" fill="#EDF8D5"/>
    <path d="M106.132 220.255L31.587 263.291L0 244.92L49.2757 216.488L74.5452 201.906L78.7568 204.343L82.3921 206.449L85.2294 208.111L106.132 220.255Z" fill="#698F4E"/>
    <path d="M96.2016 220.233L74.5452 207.645L9.93042 244.942L31.6091 257.529L96.2016 220.233Z" fill="#EDF8D5"/>
    <path d="M31.5869 263.291L31.6091 278.072L106.176 235.036L106.154 220.255L31.5869 263.291Z" fill="#BACF8A"/>
    <path d="M41.6061 223.114C36.3527 226.172 38.3034 232.222 46.0394 236.676C53.7754 241.13 64.2379 242.238 69.5135 239.202C74.7891 236.166 72.8163 230.094 65.0802 225.64C57.3442 221.186 46.8817 220.078 41.6061 223.114Z" fill="#698F4E"/>
    <path d="M32.2964 226.283L63.8834 244.632L74.2793 238.648L75.7645 237.784L78.7791 236.033L47.1921 217.684L44.1775 219.413L42.6702 220.299L32.2964 226.283Z" fill="#F6F6F6"/>
    <path d="M63.8833 244.632L63.9055 259.435L74.2793 253.451L75.7644 252.587L78.8012 250.837L78.7791 236.033L75.7644 237.784L74.2793 238.648L63.8833 244.632Z" fill="#C6C6C6"/>
    <path d="M43.6011 219.745L75.188 238.116V252.92L76.6953 252.055V237.252L45.0862 218.881L43.6011 219.745Z" fill="#F50D1B"/>
    <path d="M75.188 238.116V252.92L76.6953 252.055V237.252L75.188 238.116Z" fill="#C00A15"/>
    <path d="M34.5793 224.953L66.1663 243.324V258.127L67.6736 257.263V242.46L36.0645 224.089L34.5793 224.953Z" fill="#F50D1B"/>
    <path d="M66.1663 243.324V258.127L67.6736 257.263V242.46L66.1663 243.324Z" fill="#C00A15"/>
    <path d="M32.2963 242.127C34.7937 242.127 36.8183 240.957 36.8183 239.512C36.8183 238.068 34.7937 236.898 32.2963 236.898C29.7989 236.898 27.7744 238.068 27.7744 239.512C27.7744 240.957 29.7989 242.127 32.2963 242.127Z" fill="#698F4E"/>
    <path d="M68.1393 218.438C67.7506 218.567 67.4126 218.815 67.173 219.147C66.9334 219.48 66.8044 219.879 66.8044 220.288C66.8044 220.698 66.9334 221.097 67.173 221.429C67.4126 221.761 67.7506 222.009 68.1393 222.139C69.1322 222.641 70.2295 222.903 71.3423 222.903C72.4552 222.903 73.5524 222.641 74.5453 222.139C74.934 222.009 75.2721 221.761 75.5117 221.429C75.7513 221.097 75.8802 220.698 75.8802 220.288C75.8802 219.879 75.7513 219.48 75.5117 219.147C75.2721 218.815 74.934 218.567 74.5453 218.438C73.5524 217.935 72.4552 217.674 71.3423 217.674C70.2295 217.674 69.1322 217.935 68.1393 218.438Z" fill="#698F4E"/>
    <path d="M46.5491 239.158L31.1879 248.022L28.7939 246.648L44.1552 237.784L46.5491 239.158Z" fill="#698F4E"/>
    <path d="M48.5663 241.684L36.4635 248.665L34.5793 247.579L46.6821 240.598L48.5663 241.684Z" fill="#698F4E"/>
    <path d="M133.663 233.618L98.4849 223.734L102.209 238.05L137.387 247.934L133.663 233.618Z" fill="#EDF8D5"/>
    <path d="M195.063 173.296L133.663 233.618L98.4626 223.734L139.071 183.867L159.908 163.435L164.585 164.742L168.619 165.895L171.789 166.781L195.063 173.296Z" fill="#698F4E"/>
    <path d="M185.443 175.778L161.326 169.019L108.105 221.274L132.222 228.033L185.443 175.778Z" fill="#EDF8D5"/>
    <path d="M133.663 233.618L137.387 247.934L198.787 187.634L195.063 173.296L133.663 233.618Z" fill="#BACF8A"/>
    <path d="M133.308 192.222C128.875 196.476 132.377 201.862 140.933 204.233C149.489 206.604 159.952 205.075 164.296 200.82C168.641 196.565 165.227 191.18 156.671 188.809C148.115 186.438 137.653 187.967 133.308 192.222Z" fill="#698F4E"/>
    <path d="M125.084 197.607L160.262 207.468L168.819 199.091L170.038 197.873L172.52 195.435L137.342 185.551L134.86 187.989L133.618 189.208L125.084 197.607Z" fill="#F6F6F6"/>
    <path d="M160.262 207.468L163.986 221.806L172.52 213.429L173.762 212.211L176.244 209.751L172.52 195.435L170.06 197.873L168.819 199.091L160.262 207.468Z" fill="#C6C6C6"/>
    <path d="M134.394 188.476L169.572 198.338L173.274 212.676L174.515 211.457L170.813 197.119L135.636 187.258L134.394 188.476Z" fill="#F50D1B"/>
    <path d="M169.572 198.338L173.274 212.676L174.515 211.457L170.813 197.119L169.572 198.338Z" fill="#C00A15"/>
    <path d="M126.946 195.767L162.146 205.629L165.848 219.967L167.089 218.748L163.388 204.432L128.188 194.548L126.946 195.767Z" fill="#F50D1B"/>
    <path d="M162.146 205.629L165.848 219.967L167.09 218.748L163.388 204.432L162.146 205.629Z" fill="#C00A15"/>
    <path d="M124.841 209.44C124.504 209.664 124.244 209.987 124.099 210.364C123.953 210.742 123.929 211.155 124.029 211.547C124.128 211.939 124.348 212.29 124.656 212.552C124.964 212.814 125.346 212.973 125.749 213.008C126.837 213.248 127.965 213.228 129.043 212.951C130.121 212.674 131.119 212.147 131.956 211.413C132.29 211.184 132.546 210.857 132.688 210.477C132.83 210.098 132.851 209.684 132.75 209.291C132.648 208.899 132.428 208.548 132.119 208.285C131.811 208.022 131.429 207.861 131.025 207.823C129.94 207.586 128.814 207.609 127.739 207.89C126.664 208.172 125.671 208.703 124.841 209.44Z" fill="#698F4E"/>
    <path d="M157.824 181.053C157.49 181.282 157.234 181.608 157.092 181.988C156.95 182.368 156.929 182.782 157.03 183.174C157.132 183.566 157.352 183.918 157.661 184.18C157.969 184.443 158.352 184.605 158.755 184.643C159.839 184.877 160.963 184.855 162.036 184.578C163.11 184.301 164.104 183.776 164.94 183.047C165.268 182.821 165.519 182.499 165.659 182.125C165.799 181.751 165.821 181.344 165.722 180.957C165.623 180.571 165.408 180.224 165.105 179.964C164.803 179.703 164.428 179.542 164.031 179.501C162.947 179.261 161.822 179.276 160.744 179.545C159.667 179.815 158.667 180.331 157.824 181.053Z" fill="#698F4E"/>
    <path d="M142.086 206.515L129.429 218.947L126.791 218.194L139.448 205.784L142.086 206.515Z" fill="#698F4E"/>
    <path d="M144.679 208.443L134.704 218.238L132.621 217.662L142.596 207.867L144.679 208.443Z" fill="#698F4E"/>
    <path d="M175.247 203.213C170.038 217.972 155.297 222.87 153.08 225.374V212.499L141.864 206.338L135.769 191.247L130.338 203.08L123.533 203.391L114.821 192.909L94.1624 196.676L81.5941 211.457L63.4178 210.238L48.3225 209.662L38.924 215.091C36.452 214.579 34.1944 213.327 32.4514 211.501C27.8402 206.846 24.5641 201.037 22.9655 194.683C21.3668 188.329 21.5042 181.662 23.3633 175.379C25.1144 170.039 28.129 165.208 30.3013 160.022C32.4736 154.837 33.7593 148.942 31.8751 143.601C29.991 138.26 24.7376 134.138 22.7426 128.532C20.526 122.593 22.3879 116.011 24.9592 110.227C27.5305 104.443 30.5673 98.7479 31.2101 92.4986C31.5356 89.1621 31.1312 85.7948 30.025 82.6301C28.9188 79.4655 27.1373 76.5793 24.8041 74.1717C30.3244 78.4458 35.2778 83.4054 39.5447 88.9307C43.814 94.5485 45.8228 101.562 45.1749 108.587C44.4926 111.389 44.0477 114.243 43.8449 117.119C43.9779 122.349 47.5467 126.892 51.5588 130.238C55.5709 133.584 60.1815 136.244 63.7281 140.1C64.6722 141.161 65.5319 142.295 66.2994 143.49C66.5677 141.465 66.5304 139.41 66.1885 137.396C64.6591 128.975 57.322 121.884 57.8097 113.44C58.12 107.147 62.5533 101.983 65.9004 96.6648C69.6021 90.8587 72.2843 83.7673 70.3336 77.1634C68.5603 71.1357 63.3513 66.7701 60.6691 61.1191C57.0782 53.6288 58.2973 44.5429 61.9104 37.0526C65.5236 29.5623 71.2203 23.3351 76.8727 17.241C73.3704 25.3296 70.8435 34.482 73.5034 42.903C75.5649 49.3739 80.4415 54.5595 85.0742 59.5457C89.426 63.9384 93.2293 68.8421 96.4012 74.1496C99.5504 79.4925 100.866 85.7183 100.147 91.8781C99.305 97.2853 96.4012 102.138 94.7831 107.391C92.9878 112.618 92.9878 118.296 94.7831 123.524C96.2315 126.906 98.2149 130.034 100.657 132.787C104.292 126.67 108.526 120.82 112.139 114.637C117.459 105.573 121.516 95.0692 119.787 84.698C118.634 77.5623 114.711 70.9141 110.831 64.7534C121.56 71.4016 131.889 79.2908 139.049 89.7285C146.209 100.166 149.955 113.485 146.697 125.717C144.48 134.138 139.027 141.762 138.584 150.493C138.185 158.737 142.263 166.449 145.234 174.249C146.165 172.942 147.096 171.679 147.982 170.415C151.507 165.407 154.632 159.601 154.144 153.529C153.901 151.313 153.191 149.097 152.77 146.881C152.029 142.104 152.758 137.214 154.86 132.861C156.962 128.507 160.338 124.896 164.54 122.504C160.107 126.294 160.24 133.252 162.612 138.504C164.984 143.756 169.151 147.945 172.365 152.709C182.362 167.224 181.121 186.548 175.247 203.213Z" fill="#D63E3E"/>
    <path d="M48.5886 88.1108C45.9065 84.1219 47.1921 78.8255 48.5886 74.6371C49.9851 70.4488 51.8249 66.2161 51.1377 61.8947C50.4062 57.1745 46.8818 53.385 43.0692 50.482C44.568 52.5965 45.3453 55.1376 45.2858 57.7285C45.175 61.4072 43.4017 64.7756 42.3599 68.2992C41.1726 71.9536 41.0878 75.8766 42.116 79.5789C43.446 83.4792 46.6601 84.9197 48.5886 88.1108Z" fill="#D63E3E"/>
    <path d="M118.834 62.8698C116.617 59.4571 117.659 54.9585 118.834 51.3906C120.008 47.8227 121.604 44.2106 121.05 40.5097C120.088 36.502 117.619 33.0184 114.156 30.7812C115.419 32.5908 116.064 34.7589 115.996 36.964C115.547 40.0619 114.713 43.0917 113.514 45.9834C112.517 49.1053 112.471 52.4529 113.381 55.6011C114.467 58.9252 117.193 60.1441 118.834 62.8698Z" fill="#D63E3E"/>
    <path d="M96.6893 53.6288C92.8767 47.9335 94.7165 40.3324 96.8001 34.4377C98.8838 28.5429 101.389 22.4266 100.435 16.2438C99.3936 9.59557 94.3397 4.12188 88.909 0C91.0145 3.01583 92.0946 6.6284 91.9901 10.3047C91.8349 15.5568 89.2858 20.3657 87.8228 25.3961C86.1735 30.6224 86.1041 36.2192 87.6233 41.4848C89.3744 47.0471 93.9407 49.0859 96.6893 53.6288Z" fill="#D63E3E"/>
    <path d="M159.797 110.028C156.96 106.327 158.334 101.385 159.797 97.4848C161.26 93.5845 163.233 89.6399 162.501 85.6067C161.748 81.1745 158.068 77.651 153.945 74.9695C155.438 76.8587 156.222 79.2108 156.162 81.6177C156.051 85.0526 154.167 88.2659 153.08 91.5014C151.843 94.9164 151.796 98.6492 152.947 102.094C154.366 105.729 157.758 107.058 159.797 110.028Z" fill="#D63E3E"/>
    <path d="M38.8797 52.3435C36.0646 48.6427 37.4389 43.7008 38.8797 39.8006C40.3206 35.9003 42.2934 31.9557 41.584 27.9225C40.8082 23.4903 37.1508 19.9889 33.0278 17.2853C34.544 19.2048 35.3295 21.6 35.2445 24.0443C35.1336 27.4571 33.2495 30.6925 32.1634 33.9058C31.0027 37.2795 30.9949 40.9428 32.1412 44.3213C33.4712 48.0443 36.8626 49.374 38.8797 52.3435Z" fill="#D63E3E"/>
    <path d="M143.194 78.5153C139.337 73.4626 141.221 66.7479 143.305 61.4294C145.389 56.1108 147.96 50.7479 147.007 45.2521C145.943 39.2687 140.845 34.4599 135.347 30.7812C137.415 33.3611 138.513 36.5839 138.451 39.8892C138.273 44.543 135.724 48.7535 134.239 53.3186C132.571 57.9248 132.493 62.9565 134.017 67.6122C135.813 72.6648 140.423 74.482 143.194 78.5153Z" fill="#D63E3E"/>
    <path d="M167.245 177.396C165.826 171.657 163.565 166.205 161.814 160.488C162.345 167.264 160.74 174.037 157.226 179.856C153.76 185.364 149.383 190.243 144.28 194.283C142.888 195.858 141.62 197.54 140.49 199.313L134.727 176.864C134.261 172.765 123.156 166.582 123.378 162.526C123.754 156.366 128.055 151.247 130.028 145.44C133.508 135.402 130.028 124.41 126.503 114.416C128.72 126.67 121.915 138.792 113.691 148.188C109.653 152.204 106.084 156.665 103.051 161.485C102.874 161.784 102.718 162.095 102.586 162.416C98.9947 148.964 85.3181 138.903 82.1483 124.986C80.9653 118.435 81.3219 111.698 83.1901 105.307C78.3136 112.199 73.2375 119.867 73.8803 128.266C74.5231 136.665 80.5302 143.778 80.8627 152.089C81.04 158.56 77.6042 164.543 73.9246 169.817C71.4157 173.208 69.0994 176.737 66.9866 180.388C66.9866 179.679 66.9201 178.94 66.7871 178.172C66.6553 175.115 65.9563 172.109 64.7256 169.308C62.8346 166.071 60.2907 163.264 57.2556 161.064L43.9558 149.983C50.9825 158.094 51.581 169.795 48.7659 179.812C47.2364 185.374 44.776 190.759 44.3326 196.543C44.257 201.206 45.6022 205.782 48.1896 209.662L59.4722 210.327C74.9886 211.79 81.4168 211.634 81.4612 211.457C81.5055 211.28 93.9408 196.565 94.0295 196.676L113.669 193.773C113.824 193.463 123.289 203.701 123.4 203.391C123.4 203.568 130.338 203.878 130.449 204.055L137.276 205.03L153.08 212.432L162.834 203.878C165.194 201.377 166.899 198.332 167.799 195.014C169.085 189.187 168.895 183.131 167.245 177.396Z" fill="#F7AF3B"/>
    <path d="M35.6655 238.205L4.0564 219.856L4.07856 234.659L35.6877 253.008L35.6655 238.205Z" fill="#EDF8D5"/>
    <path d="M110.211 195.169L35.6655 238.205L4.0564 219.856L53.3542 191.424L78.6238 176.82L82.8132 179.258L86.4485 181.385L89.3079 183.025L110.211 195.169Z" fill="#698F4E"/>
    <path d="M100.28 195.169L78.6016 182.582L14.009 219.878L35.6655 232.443L100.28 195.169Z" fill="#EDF8D5"/>
    <path d="M35.6655 238.205L35.6877 253.008L110.233 209.972L110.211 195.169L35.6655 238.205Z" fill="#BACF8A"/>
    <path d="M45.6848 198.05C40.4092 201.086 42.3598 207.158 50.118 211.59C57.8762 216.022 68.25 217.175 73.5256 214.116C78.8012 211.058 76.8284 205.008 69.0924 200.576C61.3563 196.144 50.9825 195.014 45.6848 198.05Z" fill="#698F4E"/>
    <path d="M36.3528 201.219L67.9619 219.568L78.3357 213.562L79.8209 212.698L82.8355 210.97L51.2485 192.62L48.2339 194.349L46.7266 195.213L36.3528 201.219Z" fill="#F6F6F6"/>
    <path d="M67.9619 219.568L67.9841 234.349L78.3357 228.388L79.843 227.501L82.8577 225.751L82.8355 210.969L79.843 212.698L78.3357 213.562L67.9619 219.568Z" fill="#C6C6C6"/>
    <path d="M47.6575 194.681L79.2444 213.03V227.856L80.7517 226.969V212.166L49.1648 193.817L47.6575 194.681Z" fill="#F50D1B"/>
    <path d="M79.2444 213.03V227.856L80.7517 226.97V212.166L79.2444 213.03Z" fill="#C00A15"/>
    <path d="M38.6357 199.889L70.2227 218.238V233.064L71.73 232.177V217.374L40.1431 199.025L38.6357 199.889Z" fill="#F50D1B"/>
    <path d="M70.2229 218.238V233.064L71.7302 232.177V217.374L70.2229 218.238Z" fill="#C00A15"/>
    <path d="M36.3527 217.042C38.8501 217.042 40.8747 215.871 40.8747 214.427C40.8747 212.982 38.8501 211.812 36.3527 211.812C33.8553 211.812 31.8308 212.982 31.8308 214.427C31.8308 215.871 33.8553 217.042 36.3527 217.042Z" fill="#698F4E"/>
    <path d="M72.2177 193.374C71.829 193.503 71.4909 193.752 71.2513 194.084C71.0117 194.416 70.8828 194.815 70.8828 195.224C70.8828 195.634 71.0117 196.033 71.2513 196.365C71.4909 196.697 71.829 196.946 72.2177 197.075C73.2067 197.577 74.3003 197.839 75.4096 197.839C76.5189 197.839 77.6125 197.577 78.6015 197.075C78.9902 196.946 79.3283 196.697 79.5679 196.365C79.8075 196.033 79.9364 195.634 79.9364 195.224C79.9364 194.815 79.8075 194.416 79.5679 194.084C79.3283 193.752 78.9902 193.503 78.6015 193.374C77.6125 192.872 76.5189 192.61 75.4096 192.61C74.3003 192.61 73.2067 192.872 72.2177 193.374Z" fill="#698F4E"/>
    <path d="M50.6055 214.072L35.2443 222.958L32.8503 221.562L48.2116 212.698L50.6055 214.072Z" fill="#698F4E"/>
    <path d="M52.6227 216.598L40.5199 223.601L38.6357 222.515L50.7385 215.512L52.6227 216.598Z" fill="#698F4E"/>
    <path d="M76.0968 233.618L53.0882 205.23L47.8569 219.08L70.8434 247.468L76.0968 233.618Z" fill="#EDF8D5"/>
    <path d="M161.06 219.878L76.0967 233.618L53.0881 205.23L109.258 196.166L138.074 191.512L141.133 195.28L143.77 198.56L145.854 201.108L161.06 219.878Z" fill="#698F4E"/>
    <path d="M151.795 216.332L136.012 196.875L62.376 208.776L78.1362 228.255L151.795 216.332Z" fill="#EDF8D5"/>
    <path d="M76.0967 233.618L70.8433 247.468L155.829 233.729L161.082 219.878L76.0967 233.618Z" fill="#BACF8A"/>
    <path d="M123.802 222.489C126.721 218.589 122.858 210.767 115.174 205.018C107.49 199.269 98.894 197.77 95.9747 201.67C93.0553 205.57 96.918 213.392 104.602 219.141C112.287 224.89 120.883 226.389 123.802 222.489Z" fill="#698F4E"/>
    <path d="M89.9065 199.291L112.915 227.657L124.73 225.751L126.437 225.485L129.872 224.931L106.864 196.543L103.428 197.097L101.721 197.363L89.9065 199.291Z" fill="#F6F6F6"/>
    <path d="M112.915 227.657L107.662 241.507L119.476 239.601L121.183 239.313L124.641 238.759L129.872 224.931L126.459 225.485L124.73 225.751L112.915 227.657Z" fill="#C6C6C6"/>
    <path d="M102.785 197.208L125.794 225.573L120.518 239.424L122.247 239.136L127.501 225.307L104.492 196.92L102.785 197.208Z" fill="#F50D1B"/>
    <path d="M125.794 225.573L120.518 239.424L122.247 239.136L127.5 225.307L125.794 225.573Z" fill="#C00A15"/>
    <path d="M92.5 198.87L115.509 227.235L110.233 241.086L111.962 240.798L117.215 226.97L94.2068 198.582L92.5 198.87Z" fill="#F50D1B"/>
    <path d="M115.508 227.235L110.233 241.086L111.962 240.798L117.215 226.97L115.508 227.235Z" fill="#C00A15"/>
    <path d="M82.8575 208.798C80.8404 209.108 80.264 210.659 81.5497 212.233C82.3037 213.045 83.2382 213.669 84.2778 214.054C85.3175 214.439 86.4331 214.574 87.5346 214.449C89.5517 214.116 90.128 212.565 88.8424 210.992C88.0863 210.183 87.1508 209.563 86.1113 209.182C85.0717 208.801 83.9572 208.669 82.8575 208.798Z" fill="#698F4E"/>
    <path d="M126.193 204.698C124.176 205.03 123.599 206.56 124.885 208.155C125.614 208.983 126.528 209.629 127.552 210.04C128.575 210.452 129.681 210.618 130.781 210.526C132.776 210.216 133.375 208.665 132.089 207.091C131.364 206.257 130.452 205.605 129.427 205.189C128.403 204.773 127.295 204.605 126.193 204.698Z" fill="#698F4E"/>
    <path d="M98.64 216.377L81.1286 219.213L79.3997 217.064L96.8889 214.249L98.64 216.377Z" fill="#698F4E"/>
    <path d="M99.6375 219.457L85.8279 221.695L84.4536 220.011L98.2632 217.773L99.6375 219.457Z" fill="#698F4E"/>
    <path d="M60.4697 263.934L38.9683 234.393L33.0056 247.956L54.5069 277.474L60.4697 263.934Z" fill="#EDF8D5"/>
    <path d="M146.032 254.604L60.4698 263.934L38.9463 234.393L95.5368 228.233L124.53 225.086L127.39 229.008L129.872 232.399L131.801 235.08L146.032 254.604Z" fill="#698F4E"/>
    <path d="M136.943 250.593L122.203 230.338L48.0566 238.404L62.7972 258.659L136.943 250.593Z" fill="#EDF8D5"/>
    <path d="M60.4696 263.934L54.5068 277.474L140.091 268.166L146.031 254.604L60.4696 263.934Z" fill="#BACF8A"/>
    <path d="M85.8278 231.224C79.7764 231.867 79.1779 238.227 84.387 245.385C89.596 252.543 98.7729 257.817 104.824 257.152C110.876 256.488 111.474 250.15 106.287 242.992C101.1 235.834 91.8792 230.471 85.8278 231.224Z" fill="#698F4E"/>
    <path d="M76.0303 230.36L97.5316 259.878L109.457 258.593L111.164 258.393L114.622 258.017L93.1205 228.499L89.6625 228.875L87.9336 229.053L76.0303 230.36Z" fill="#F6F6F6"/>
    <path d="M97.5316 259.878L91.5911 273.44L103.472 272.133L105.201 271.956L108.681 271.579L114.622 258.017L111.186 258.416L109.457 258.593L97.5316 259.878Z" fill="#C6C6C6"/>
    <path d="M88.9976 228.942L110.499 258.482L104.536 272.022L106.265 271.823L112.228 258.283L90.7265 228.742L88.9976 228.942Z" fill="#F50D1B"/>
    <path d="M110.499 258.482L104.536 272.022L106.265 271.823L112.228 258.283L110.499 258.482Z" fill="#C00A15"/>
    <path d="M78.646 230.072L100.147 259.59L94.1846 273.152L95.9135 272.953L101.876 259.413L80.375 229.873L78.646 230.072Z" fill="#F50D1B"/>
    <path d="M100.147 259.59L94.1846 273.152L95.9135 272.953L101.876 259.413L100.147 259.59Z" fill="#C00A15"/>
    <path d="M68.5159 239.468C66.4767 239.69 65.8117 241.219 67.0308 242.859C67.7346 243.718 68.6316 244.399 69.6486 244.845C70.6655 245.292 71.7737 245.492 72.8827 245.429C74.8998 245.208 75.5648 243.701 74.3678 242.061C73.6605 241.205 72.7635 240.524 71.7479 240.074C70.7322 239.624 69.6257 239.417 68.5159 239.468Z" fill="#698F4E"/>
    <path d="M112.006 237.629C109.967 237.85 109.302 239.38 110.499 241.019C111.205 241.876 112.102 242.555 113.119 243.001C114.135 243.448 115.242 243.649 116.351 243.59C118.39 243.368 119.055 241.861 117.858 240.222C117.15 239.366 116.253 238.687 115.237 238.237C114.222 237.788 113.116 237.579 112.006 237.629Z" fill="#698F4E"/>
    <path d="M83.8773 247.867L66.2329 249.795L64.6147 247.579L82.2369 245.651L83.8773 247.867Z" fill="#698F4E"/>
    <path d="M84.6973 250.992L70.7991 252.521L69.5134 250.77L83.4117 249.241L84.6973 250.992Z" fill="#698F4E"/>
    <path opacity="0.1" d="M431.622 167.003L402.606 150.161L109.457 320.997L138.473 337.839L431.622 167.003Z" fill="#1F2937"/>
    <path d="M502 102.604L501.978 109.673L482.981 150.471L483.004 143.402L502 102.604Z" fill="#7A2323"/>
    <path d="M483.004 143.402L482.981 150.471L431.622 120.82V113.751L483.004 143.402Z" fill="#7A1E22"/>
    <path d="M502 102.604L483.004 143.402L431.622 113.751L502 102.604Z" fill="#D63E3E"/>
    <path d="M397.575 180.1L368.581 163.258L443.171 120.222L472.164 137.064L397.575 180.1Z" fill="#D63E3E"/>
    <path d="M394.826 188.41L365.833 171.568L319.993 134.028L348.986 150.87L394.826 188.41Z" fill="#7A2323"/>
    <path d="M225.01 215.69L196.017 198.848L322.719 125.717L351.713 142.56L225.01 215.69Z" fill="#D63E3E"/>
    <path d="M221.774 224.288L192.78 207.446L67.3191 46.8477L96.3126 63.7119L221.774 224.288Z" fill="#7A2323"/>
    <path d="M96.3126 63.7119L67.3191 46.8477L72.2843 40.4654L101.278 57.3075L96.3126 63.7119Z" fill="#D63E3E"/>
    <path d="M101.278 57.3075L225.01 215.69L351.712 142.56L397.575 180.1L472.164 137.064L472.186 143.756L394.826 188.41L348.986 150.87L221.774 224.288L96.3125 63.7119L101.278 57.3075Z" fill="#7A1E22"/>
    <path d="M209.627 300.609V304.355C209.552 305.92 209.095 307.444 208.295 308.792C207.495 310.14 206.377 311.272 205.038 312.089C204.551 312.465 203.996 312.798 203.442 313.152C203.067 313.375 202.674 313.568 202.267 313.729C200.074 314.798 197.737 315.544 195.329 315.945C194.407 316.146 193.475 316.302 192.536 316.41C192.027 316.41 191.517 316.521 190.985 316.543C188.336 316.733 185.673 316.621 183.049 316.211C179.871 315.793 176.793 314.81 173.961 313.307L173.451 313.064C171.908 312.203 170.533 311.069 169.395 309.717C167.998 308.243 167.206 306.297 167.178 304.266V300.521L209.627 300.609Z" fill="#F7AF3B"/>
    <g style="mix-blend-mode:screen" opacity="0.25">
        <path d="M195.329 316.033C194.407 316.235 193.475 316.39 192.536 316.499L192.093 302.67C192.98 302.67 193.888 302.67 194.731 302.87L195.329 316.033Z" fill="white"/>
    </g>
    <g style="mix-blend-mode:screen" opacity="0.25">
        <path d="M190.985 316.632C188.336 316.821 185.673 316.71 183.049 316.299V303.623C185.533 303.024 188.075 302.697 190.63 302.648L190.985 316.632Z" fill="white"/>
    </g>
    <g style="mix-blend-mode:screen" opacity="0.25">
        <path d="M173.961 313.396L173.451 313.152C171.908 312.291 170.533 311.158 169.395 309.806V297.751C170.784 297.56 172.183 297.449 173.584 297.418V300.609L173.961 313.396Z" fill="white"/>
    </g>
    <g style="mix-blend-mode:screen" opacity="0.25">
        <path d="M205.038 298.704V312C204.55 312.377 203.996 312.709 203.442 313.064C203.066 313.287 202.674 313.479 202.267 313.64V300.521V299.169C203.22 298.97 204.129 298.837 205.038 298.704Z" fill="white"/>
    </g>
    <path d="M188.458 313.33C200.161 313.33 209.649 307.853 209.649 301.097C209.649 294.341 200.161 288.864 188.458 288.864C176.754 288.864 167.267 294.341 167.267 301.097C167.267 307.853 176.754 313.33 188.458 313.33Z" fill="#F7AF3B"/>
    <path d="M188.458 312.842C200.161 312.842 209.649 307.365 209.649 300.609C209.649 293.853 200.161 288.377 188.458 288.377C176.754 288.377 167.267 293.853 167.267 300.609C167.267 307.365 176.754 312.842 188.458 312.842Z" fill="#F7DB8D"/>
    <path d="M207.698 300.609C207.698 300.765 207.698 300.92 207.698 301.075C207.411 302.513 206.79 303.864 205.885 305.019C204.98 306.173 203.817 307.1 202.489 307.723C198.164 309.979 193.358 311.158 188.48 311.158C183.602 311.158 178.796 309.979 174.471 307.723C173.14 307.101 171.973 306.175 171.065 305.021C170.156 303.866 169.531 302.515 169.24 301.075V300.609C169.24 297.972 171.08 295.424 174.471 293.407C178.791 291.136 183.599 289.95 188.48 289.95C193.361 289.95 198.169 291.136 202.489 293.407C205.836 295.424 207.698 297.972 207.698 300.609Z" fill="#F7AF3B"/>
    <path d="M207.676 301.075C207.389 302.513 206.768 303.864 205.863 305.019C204.958 306.173 203.795 307.1 202.467 307.723C198.142 309.979 193.336 311.158 188.458 311.158C183.58 311.158 178.774 309.979 174.449 307.723C173.118 307.101 171.951 306.175 171.043 305.021C170.134 303.866 169.509 302.515 169.218 301.075C169.493 299.615 170.111 298.241 171.02 297.066C171.929 295.891 173.104 294.949 174.449 294.316C178.774 292.059 183.58 290.881 188.458 290.881C193.336 290.881 198.142 292.059 202.467 294.316C203.808 294.95 204.98 295.893 205.885 297.068C206.791 298.243 207.405 299.617 207.676 301.075Z" fill="#F7DB8D"/>
    <path d="M197.28 306.482C196.475 306.931 195.619 307.28 194.731 307.524C193.928 307.769 193.105 307.94 192.27 308.033C191.578 308.11 190.879 308.11 190.187 308.033C189.715 308.003 189.254 307.874 188.835 307.657C188.677 307.569 188.541 307.448 188.436 307.302C188.347 307.173 188.28 307.031 188.236 306.881C188.192 306.744 188.192 306.597 188.236 306.46C188.261 306.383 188.302 306.312 188.355 306.251C188.408 306.19 188.473 306.14 188.547 306.105C188.84 305.98 189.158 305.919 189.478 305.928H190.918C191.472 305.928 192.071 305.928 192.736 305.706C193.455 305.558 194.154 305.328 194.82 305.019L188.99 301.385C188.192 301.607 187.372 301.784 186.529 301.961C185.709 302.16 184.869 302.272 184.025 302.294C183.177 302.338 182.328 302.271 181.498 302.094C180.633 301.919 179.807 301.589 179.059 301.119C178.411 300.774 177.868 300.261 177.486 299.634C177.226 299.194 177.139 298.673 177.242 298.172C177.349 297.642 177.611 297.156 177.995 296.776C178.446 296.304 178.943 295.881 179.481 295.512L178.749 295.069C178.68 295.044 178.623 294.993 178.59 294.927C178.557 294.861 178.55 294.785 178.572 294.715C178.572 294.56 178.727 294.427 178.949 294.316C179.175 294.197 179.425 294.129 179.68 294.116C179.901 294.089 180.124 294.128 180.323 294.227L181.01 294.648C181.513 294.383 182.031 294.146 182.562 293.939C183.135 293.717 183.72 293.525 184.313 293.363C184.842 293.228 185.385 293.154 185.931 293.141C186.352 293.105 186.775 293.189 187.15 293.385C187.279 293.467 187.398 293.564 187.505 293.673C187.628 293.788 187.72 293.933 187.771 294.094C187.815 294.231 187.815 294.378 187.771 294.515C187.74 294.602 187.69 294.681 187.625 294.746C187.56 294.811 187.481 294.861 187.394 294.892C187.2 294.994 186.99 295.062 186.773 295.091L185.864 295.247C185.467 295.319 185.075 295.415 184.69 295.535C184.206 295.661 183.738 295.839 183.293 296.067L188.414 299.169L190.852 298.659C191.685 298.5 192.531 298.419 193.379 298.416C194.252 298.42 195.122 298.524 195.972 298.726C196.881 298.95 197.749 299.316 198.544 299.812C200.073 300.765 200.76 301.74 200.76 302.737C200.682 303.333 200.465 303.902 200.126 304.399C199.787 304.895 199.336 305.305 198.81 305.596L199.674 306.127C199.741 306.161 199.792 306.219 199.816 306.289C199.841 306.359 199.838 306.436 199.807 306.504C199.738 306.681 199.603 306.824 199.43 306.903C199.209 307.036 198.956 307.105 198.699 307.103C198.484 307.111 198.271 307.065 198.078 306.97L197.28 306.482ZM181.498 299.524C181.836 299.739 182.212 299.889 182.606 299.967C183.003 300.023 183.406 300.023 183.803 299.967C184.242 299.964 184.68 299.92 185.111 299.834C185.554 299.834 186.02 299.657 186.485 299.546L181.919 296.953C181.375 297.271 180.953 297.763 180.722 298.349C180.567 298.681 180.811 299.169 181.475 299.524H181.498ZM196.105 301.429C195.372 300.954 194.518 300.7 193.645 300.698C192.751 300.691 191.859 300.78 190.985 300.964L196.238 304.199C196.488 304.046 196.701 303.839 196.862 303.594C197.023 303.349 197.128 303.071 197.169 302.781C197.147 302.316 196.815 301.873 196.083 301.385L196.105 301.429Z" fill="#F7AF3B"/>
    <g style="mix-blend-mode:screen" opacity="0.75">
        <path d="M169.218 301.075C169.446 302.412 169.979 303.678 170.774 304.777C171.57 305.876 172.607 306.778 173.806 307.413L172.631 295.579C171.721 296.218 170.949 297.034 170.363 297.978C169.776 298.923 169.386 299.976 169.218 301.075Z" fill="white"/>
    </g>
    <g style="mix-blend-mode:screen" opacity="0.75">
        <path d="M189.278 290.925L192.403 310.87C193.334 310.759 194.265 310.626 195.174 310.449L191.96 291.08C191.069 290.984 190.174 290.932 189.278 290.925Z" fill="white"/>
    </g>
    <g style="mix-blend-mode:screen" opacity="0.75">
        <path d="M202.777 294.537L202.467 294.316C201.498 293.755 200.482 293.28 199.43 292.897L202.334 307.9H202.467C203.414 307.329 204.298 306.661 205.105 305.906L202.777 294.537Z" fill="white"/>
    </g>
    <g style="mix-blend-mode:screen" opacity="0.75">
        <path d="M180.389 291.9L182.606 310.715C184.521 311.071 186.465 311.256 188.413 311.269C189.211 311.269 189.965 311.269 190.763 311.136L187.815 290.925C185.31 290.962 182.818 291.289 180.389 291.9Z" fill="white"/>
    </g>
    <path d="M280.381 335.889V339.657C280.311 341.22 279.855 342.742 279.054 344.088C278.254 345.433 277.134 346.56 275.793 347.368C275.282 347.753 274.749 348.109 274.197 348.432C273.817 348.654 273.425 348.853 273.022 349.031C270.829 350.1 268.492 350.847 266.084 351.247C265.175 351.446 264.244 351.601 263.313 351.734L261.739 351.845C259.091 352.042 256.429 351.937 253.804 351.535C250.627 351.096 247.552 350.106 244.716 348.609C244.541 348.555 244.376 348.473 244.228 348.366C242.684 347.505 241.304 346.38 240.149 345.042C238.76 343.562 237.969 341.619 237.933 339.59V335.823L280.381 335.889Z" fill="#F7AF3B"/>
    <g style="mix-blend-mode:screen" opacity="0.25">
        <path d="M265.995 351.313C265.087 351.512 264.156 351.668 263.225 351.801L262.781 337.972C263.663 337.994 264.544 338.06 265.419 338.172L265.995 351.313Z" fill="white"/>
    </g>
    <g style="mix-blend-mode:screen" opacity="0.25">
        <path d="M261.739 351.911C259.091 352.108 256.429 352.004 253.804 351.601V338.903C256.287 338.3 258.83 337.98 261.385 337.95L261.739 351.911Z" fill="white"/>
    </g>
    <g style="mix-blend-mode:screen" opacity="0.25">
        <path d="M244.716 348.676C244.541 348.622 244.376 348.539 244.228 348.432C242.685 347.571 241.304 346.446 240.15 345.108V333.03C241.539 332.848 242.938 332.745 244.339 332.72V335.889L244.716 348.676Z" fill="white"/>
    </g>
    <g style="mix-blend-mode:screen" opacity="0.25">
        <path d="M275.793 334.006V347.302C275.282 347.687 274.749 348.042 274.197 348.366C273.817 348.587 273.425 348.787 273.022 348.964V335.823V334.427C273.936 334.228 274.861 334.088 275.793 334.006Z" fill="white"/>
    </g>
    <path d="M259.213 348.609C270.916 348.609 280.404 343.133 280.404 336.377C280.404 329.621 270.916 324.144 259.213 324.144C247.509 324.144 238.022 329.621 238.022 336.377C238.022 343.133 247.509 348.609 259.213 348.609Z" fill="#F7AF3B"/>
    <path d="M259.213 348.144C270.916 348.144 280.404 342.667 280.404 335.911C280.404 329.155 270.916 323.679 259.213 323.679C247.509 323.679 238.022 329.155 238.022 335.911C238.022 342.667 247.509 348.144 259.213 348.144Z" fill="#F7DB8D"/>
    <path d="M278.453 335.911C278.453 336.066 278.453 336.222 278.453 336.355C278.181 337.813 277.568 339.186 276.662 340.361C275.757 341.536 274.585 342.479 273.244 343.114C268.919 345.37 264.113 346.548 259.235 346.548C254.356 346.548 249.55 345.37 245.226 343.114C243.884 342.479 242.713 341.536 241.807 340.361C240.902 339.186 240.288 337.813 240.017 336.355C240.005 336.207 240.005 336.059 240.017 335.911C240.017 333.274 241.879 330.704 245.248 328.687C249.573 326.431 254.379 325.252 259.257 325.252C264.135 325.252 268.941 326.431 273.266 328.687C276.591 330.704 278.453 333.274 278.453 335.911Z" fill="#F7AF3B"/>
    <path d="M278.431 336.355C278.159 337.813 277.546 339.186 276.64 340.361C275.734 341.536 274.563 342.479 273.222 343.114C268.897 345.37 264.091 346.548 259.213 346.548C254.334 346.548 249.528 345.37 245.203 343.114C243.862 342.479 242.691 341.536 241.785 340.361C240.88 339.186 240.266 337.813 239.994 336.355C240.279 334.915 240.898 333.563 241.803 332.408C242.709 331.252 243.873 330.327 245.203 329.706C249.524 327.435 254.332 326.249 259.213 326.249C264.094 326.249 268.901 327.435 273.222 329.706C274.552 330.327 275.717 331.252 276.622 332.408C277.527 333.563 278.147 334.915 278.431 336.355Z" fill="#F7DB8D"/>
    <path d="M268.013 341.784C267.205 342.227 266.35 342.577 265.463 342.825C264.658 343.054 263.835 343.217 263.003 343.313C262.311 343.39 261.612 343.39 260.919 343.313C260.446 343.293 259.983 343.164 259.567 342.936C259.418 342.856 259.289 342.742 259.19 342.604C259.084 342.478 259.015 342.324 258.991 342.161C258.935 342.026 258.935 341.874 258.991 341.74C259.059 341.593 259.177 341.475 259.323 341.407C259.607 341.275 259.919 341.214 260.232 341.23H261.673C262.283 341.193 262.89 341.119 263.491 341.008C264.211 340.879 264.912 340.655 265.574 340.343L259.722 336.731L257.262 337.307C256.429 337.483 255.585 337.595 254.735 337.64C253.888 337.662 253.041 337.595 252.208 337.44C251.345 337.247 250.521 336.91 249.77 336.443C249.128 336.099 248.586 335.595 248.196 334.981C247.944 334.529 247.858 334.004 247.952 333.496C248.069 332.97 248.33 332.486 248.706 332.1C249.151 331.63 249.649 331.213 250.191 330.859L249.459 330.416C249.396 330.383 249.344 330.331 249.312 330.268C249.28 330.204 249.27 330.131 249.282 330.061C249.282 329.906 249.437 329.773 249.659 329.64C249.883 329.519 250.135 329.458 250.39 329.463C250.597 329.384 250.826 329.384 251.033 329.463L251.72 329.884C252.219 329.609 252.738 329.372 253.272 329.174C253.843 328.946 254.428 328.753 255.023 328.598C255.552 328.457 256.094 328.375 256.641 328.355C257.063 328.318 257.486 328.402 257.86 328.598C257.989 328.689 258.108 328.793 258.215 328.909C258.334 329.019 258.425 329.156 258.481 329.307C258.514 329.377 258.532 329.452 258.532 329.529C258.532 329.606 258.514 329.682 258.481 329.751C258.408 329.912 258.283 330.045 258.126 330.127C257.924 330.226 257.707 330.293 257.484 330.327L256.575 330.482L255.4 330.748C254.923 330.894 254.456 331.071 254.003 331.28L259.057 334.404C259.855 334.205 260.653 334.028 261.496 333.873C262.337 333.721 263.19 333.647 264.045 333.651C264.911 333.638 265.775 333.735 266.616 333.939C267.526 334.17 268.394 334.544 269.187 335.047C270.717 335.978 271.404 336.953 271.404 337.972C271.32 338.564 271.103 339.128 270.769 339.623C270.435 340.119 269.993 340.532 269.476 340.831L270.318 341.341C270.353 341.355 270.385 341.376 270.411 341.403C270.437 341.431 270.457 341.463 270.47 341.499C270.482 341.535 270.487 341.573 270.484 341.61C270.481 341.648 270.469 341.684 270.451 341.717C270.392 341.899 270.265 342.05 270.096 342.138C269.861 342.252 269.604 342.312 269.343 342.316C269.135 342.324 268.929 342.278 268.744 342.183L268.013 341.784ZM252.23 334.803C252.57 335.022 252.945 335.179 253.338 335.269C253.732 335.351 254.134 335.388 254.535 335.379L255.843 335.247L257.218 334.936L252.784 332.144C252.232 332.449 251.802 332.934 251.565 333.518C251.321 333.983 251.587 334.404 252.23 334.803ZM266.86 336.709C266.125 336.24 265.272 335.986 264.399 335.978C263.498 335.978 262.599 336.075 261.717 336.266L266.971 339.501C267.217 339.343 267.427 339.136 267.587 338.891C267.748 338.647 267.855 338.372 267.902 338.083C267.924 337.618 267.569 337.152 266.86 336.709Z" fill="#F7AF3B"/>
    <g style="mix-blend-mode:screen" opacity="0.75">
        <path d="M239.994 336.355C240.218 337.693 240.745 338.963 241.537 340.066C242.329 341.169 243.363 342.075 244.561 342.715L243.386 330.881C242.477 331.513 241.707 332.325 241.124 333.267C240.54 334.208 240.156 335.259 239.994 336.355Z" fill="white"/>
    </g>
    <g style="mix-blend-mode:screen" opacity="0.75">
        <path d="M260.033 326.227L263.158 346.172C264.089 346.061 265.02 345.906 265.929 345.729L262.715 326.36C261.828 326.338 260.942 326.249 260.033 326.227Z" fill="white"/>
    </g>
    <g style="mix-blend-mode:screen" opacity="0.75">
        <path d="M273.532 329.817L273.222 329.618C272.249 329.058 271.234 328.577 270.185 328.177L273.089 343.18H273.222C274.172 342.615 275.057 341.946 275.86 341.186L273.532 329.817Z" fill="white"/>
    </g>
    <g style="mix-blend-mode:screen" opacity="0.75">
        <path d="M251.144 327.202L253.361 345.994C255.276 346.351 257.22 346.536 259.168 346.548C259.966 346.548 260.742 346.548 261.518 346.416L258.57 326.205C256.063 326.238 253.57 326.572 251.144 327.202Z" fill="white"/>
    </g>
    <path d="M237.179 310.249L236.137 313.862C235.623 315.357 234.746 316.702 233.586 317.776C232.426 318.851 231.018 319.623 229.487 320.022C228.911 320.244 228.313 320.421 227.67 320.598C227.027 320.776 226.805 320.776 226.384 320.842C223.972 321.286 221.509 321.383 219.069 321.13C218.138 321.13 217.207 321.019 216.276 320.798C215.767 320.798 215.235 320.621 214.747 320.488C212.14 319.945 209.604 319.105 207.188 317.983C204.255 316.695 201.576 314.894 199.275 312.665C199.12 312.565 198.979 312.446 198.854 312.31C197.604 311.02 196.591 309.52 195.861 307.878C194.975 306.066 194.786 303.992 195.329 302.05L196.371 298.438L237.179 310.249Z" fill="#F7AF3B"/>
    <g style="mix-blend-mode:screen" opacity="0.25">
        <path d="M219.225 321.086C218.294 321.086 217.363 320.975 216.432 320.754L219.823 307.346C220.665 307.634 221.508 307.945 222.306 308.277L219.225 321.086Z" fill="white"/>
    </g>
    <g style="mix-blend-mode:screen" opacity="0.25">
        <path d="M215.013 320.443C212.406 319.901 209.87 319.06 207.454 317.939L210.912 305.817C213.461 305.92 215.99 306.314 218.449 306.992L215.013 320.443Z" fill="white"/>
    </g>
    <g style="mix-blend-mode:screen" opacity="0.25">
        <path d="M199.497 312.621C199.342 312.52 199.201 312.401 199.075 312.266C197.826 310.975 196.813 309.475 196.083 307.834L199.43 296.244C200.819 296.45 202.195 296.731 203.553 297.086L202.733 300.166L199.497 312.621Z" fill="white"/>
    </g>
    <g style="mix-blend-mode:screen" opacity="0.25">
        <path d="M233.345 307.125L229.643 319.978C229.067 320.2 228.468 320.377 227.825 320.554C227.182 320.731 226.961 320.731 226.54 320.798L230.219 308.188L230.618 306.837C231.527 306.881 232.436 306.992 233.345 307.125Z" fill="white"/>
    </g>
    <path d="M233.544 300.654C240.194 307.523 237.977 314.969 228.756 317.274C223.639 318.246 218.366 318.002 213.361 316.562C208.355 315.122 203.758 312.527 199.94 308.986C193.29 302.116 195.507 294.67 204.728 292.366C209.845 291.394 215.118 291.638 220.124 293.078C225.129 294.517 229.726 297.112 233.544 300.654Z" fill="#F7AF3B"/>
    <path d="M233.677 300.188C240.327 307.08 238.11 314.504 228.889 316.809C223.772 317.78 218.499 317.536 213.493 316.097C208.488 314.657 203.891 312.062 200.073 308.521C193.423 301.651 195.64 294.205 204.861 291.9C209.978 290.929 215.251 291.173 220.256 292.612C225.262 294.052 229.859 296.647 233.677 300.188Z" fill="#F7DB8D"/>
    <path d="M235.384 309.673C235.384 309.828 235.384 309.983 235.229 310.116C234.563 311.441 233.593 312.589 232.399 313.467C231.205 314.345 229.82 314.928 228.357 315.169C223.575 316.144 218.628 315.947 213.939 314.597C209.249 313.246 204.956 310.781 201.425 307.413C200.308 306.436 199.441 305.206 198.898 303.826C198.354 302.446 198.149 300.955 198.3 299.479C198.3 299.324 198.3 299.191 198.3 299.036C199.031 296.51 201.536 294.604 205.326 293.562C210.127 292.574 215.096 292.769 219.805 294.132C224.513 295.495 228.818 297.985 232.347 301.385C234.963 304.177 236.115 307.147 235.384 309.673Z" fill="#F7AF3B"/>
    <path d="M235.229 310.116C234.563 311.441 233.593 312.589 232.399 313.467C231.205 314.345 229.82 314.928 228.357 315.169C223.575 316.143 218.628 315.947 213.939 314.596C209.249 313.246 204.956 310.781 201.425 307.413C200.308 306.436 199.441 305.206 198.898 303.826C198.354 302.446 198.149 300.955 198.3 299.479C198.962 298.153 199.931 297.003 201.126 296.124C202.321 295.246 203.707 294.664 205.171 294.427C209.953 293.456 214.899 293.654 219.588 295.005C224.277 296.355 228.57 298.817 232.103 302.183C233.212 303.166 234.072 304.397 234.615 305.776C235.158 307.154 235.369 308.641 235.229 310.116Z" fill="#F7DB8D"/>
    <path d="M223.724 312.465C222.83 312.67 221.915 312.766 220.998 312.753C220.159 312.759 219.321 312.693 218.493 312.554C217.802 312.447 217.125 312.261 216.476 312C216.024 311.857 215.613 311.606 215.279 311.269C215.156 311.141 215.058 310.99 214.991 310.825C214.969 310.671 214.969 310.515 214.991 310.36C215.003 310.211 215.066 310.07 215.168 309.961C215.267 309.838 215.41 309.758 215.567 309.74C215.879 309.656 216.208 309.656 216.52 309.74L217.917 310.094C218.51 310.222 219.109 310.318 219.712 310.382C220.448 310.471 221.193 310.471 221.929 310.382L217.23 305.263C216.387 305.263 215.545 305.219 214.703 305.13C213.851 305.082 213.005 304.956 212.176 304.753C211.358 304.557 210.569 304.26 209.826 303.867C209.042 303.454 208.337 302.907 207.742 302.249C207.225 301.73 206.844 301.09 206.634 300.388C206.519 299.887 206.582 299.363 206.811 298.903C207.066 298.429 207.451 298.037 207.92 297.773C208.481 297.446 209.076 297.179 209.693 296.975L209.117 296.355C209.077 296.296 209.055 296.226 209.055 296.155C209.055 296.084 209.077 296.015 209.117 295.956C209.17 295.878 209.24 295.813 209.32 295.763C209.4 295.714 209.489 295.681 209.582 295.668C209.831 295.613 210.088 295.613 210.336 295.668C210.561 295.699 210.77 295.8 210.934 295.956L211.466 296.554C212.023 296.435 212.585 296.346 213.151 296.288C213.764 296.255 214.378 296.255 214.991 296.288C215.543 296.293 216.094 296.36 216.631 296.488C217.043 296.58 217.42 296.787 217.717 297.086C217.835 297.188 217.927 297.317 217.983 297.463C218.064 297.606 218.117 297.764 218.138 297.928C218.139 298.079 218.092 298.226 218.005 298.349C217.889 298.478 217.733 298.563 217.562 298.593C217.342 298.626 217.118 298.626 216.897 298.593H215.966C215.568 298.568 215.168 298.568 214.769 298.593C214.272 298.588 213.775 298.625 213.284 298.704L217.274 303.136C218.094 303.136 218.914 303.136 219.757 303.291C220.605 303.376 221.443 303.539 222.261 303.778C223.099 304.026 223.909 304.361 224.678 304.776C225.507 305.244 226.255 305.842 226.894 306.548C228.113 307.878 228.557 309.008 228.246 309.983C228.002 310.532 227.635 311.016 227.174 311.401C226.713 311.785 226.17 312.058 225.586 312.199L226.251 312.931C226.3 312.99 226.326 313.065 226.326 313.141C226.326 313.218 226.3 313.292 226.251 313.352C226.133 313.497 225.969 313.598 225.786 313.64C225.53 313.695 225.266 313.695 225.01 313.64C224.801 313.587 224.61 313.48 224.456 313.33L223.724 312.465ZM210.425 301.385C210.701 301.678 211.023 301.925 211.378 302.116C211.731 302.319 212.112 302.468 212.508 302.56C212.929 302.671 213.36 302.745 213.794 302.781L215.212 302.892L211.622 298.947C211.009 299.089 210.463 299.432 210.07 299.922C209.848 300.321 209.959 300.809 210.58 301.385H210.425ZM223.968 307.258C223.376 306.593 222.607 306.109 221.752 305.862C220.892 305.611 220.007 305.455 219.114 305.396L223.281 309.961C223.558 309.876 223.813 309.733 224.031 309.542C224.249 309.351 224.424 309.116 224.545 308.853C224.788 308.41 224.567 307.878 224.013 307.258H223.968Z" fill="#F7AF3B"/>
    <g style="mix-blend-mode:screen" opacity="0.75">
        <path d="M198.3 299.479C198.148 300.826 198.306 302.189 198.764 303.464C199.221 304.74 199.965 305.893 200.937 306.837L203.154 295.158C202.089 295.502 201.108 296.064 200.272 296.808C199.437 297.552 198.765 298.462 198.3 299.479Z" fill="white"/>
    </g>
    <g style="mix-blend-mode:screen" opacity="0.75">
        <path d="M220.377 295.291L217.828 315.391C218.759 315.546 219.69 315.657 220.599 315.723L222.816 296.222C222.062 295.889 221.242 295.557 220.377 295.291Z" fill="white"/>
    </g>
    <g style="mix-blend-mode:screen" opacity="0.75">
        <path d="M232.347 302.471L232.103 302.183C231.312 301.388 230.468 300.647 229.576 299.967L228.202 315.191H228.313C229.378 314.909 230.411 314.516 231.394 314.017L232.347 302.471Z" fill="white"/>
    </g>
    <g style="mix-blend-mode:screen" opacity="0.75">
        <path d="M211.555 293.762L208.518 312.465C210.251 313.366 212.061 314.107 213.927 314.681C214.703 314.903 215.479 315.036 216.144 315.213L218.914 294.958C216.514 294.284 214.045 293.882 211.555 293.762Z" fill="white"/>
    </g>
    <path d="M399.769 231.003V234.748C399.702 236.315 399.248 237.842 398.447 239.192C397.647 240.541 396.525 241.671 395.181 242.482C394.693 242.859 394.139 243.191 393.585 243.546C393.205 243.767 392.813 243.967 392.41 244.144C390.217 245.214 387.88 245.96 385.472 246.36C384.563 246.56 383.632 246.715 382.701 246.825C382.169 246.825 381.659 246.825 381.127 246.958C378.478 247.147 375.816 247.036 373.192 246.626C370.014 246.205 366.937 245.222 364.104 243.723L363.616 243.479C362.072 242.618 360.692 241.493 359.537 240.155C358.144 238.669 357.354 236.718 357.321 234.681V230.936L399.769 231.003Z" fill="#F7AF3B"/>
    <g style="mix-blend-mode:screen" opacity="0.25">
        <path d="M385.472 246.427C384.563 246.626 383.632 246.781 382.701 246.892L382.258 233.086C383.14 233.107 384.02 233.174 384.896 233.285L385.472 246.427Z" fill="white"/>
    </g>
    <g style="mix-blend-mode:screen" opacity="0.25">
        <path d="M381.127 247.025C378.478 247.214 375.816 247.102 373.191 246.693V234.017C375.674 233.414 378.217 233.094 380.772 233.064L381.127 247.025Z" fill="white"/>
    </g>
    <g style="mix-blend-mode:screen" opacity="0.25">
        <path d="M364.103 243.767L363.616 243.524C362.072 242.663 360.691 241.538 359.537 240.199V228.255C360.911 228.078 362.308 227.967 363.727 227.922V231.114L364.103 243.767Z" fill="white"/>
    </g>
    <g style="mix-blend-mode:screen" opacity="0.25">
        <path d="M395.18 229.097V242.393C394.693 242.77 394.139 243.102 393.584 243.457C393.204 243.678 392.812 243.878 392.41 244.055V230.914V229.518C393.363 229.385 394.272 229.23 395.18 229.097Z" fill="white"/>
    </g>
    <path d="M393.585 222.848C401.853 227.612 401.853 235.368 393.585 240.133C388.943 242.494 383.809 243.724 378.6 243.724C373.392 243.724 368.258 242.494 363.616 240.133C355.348 235.368 355.348 227.612 363.616 222.848C368.258 220.487 373.392 219.256 378.6 219.256C383.809 219.256 388.943 220.487 393.585 222.848Z" fill="#F7AF3B"/>
    <path d="M393.585 222.36C401.853 227.147 401.853 234.881 393.585 239.668C388.938 242.013 383.806 243.235 378.6 243.235C373.395 243.235 368.263 242.013 363.616 239.668C355.348 234.881 355.348 227.147 363.616 222.36C368.263 220.015 373.395 218.793 378.6 218.793C383.806 218.793 388.938 220.015 393.585 222.36Z" fill="#F7DB8D"/>
    <path d="M397.841 231.003C397.841 231.158 397.841 231.313 397.841 231.468C397.553 232.906 396.932 234.257 396.027 235.412C395.123 236.567 393.96 237.493 392.632 238.116C388.307 240.373 383.501 241.551 378.622 241.551C373.744 241.551 368.938 240.373 364.613 238.116C363.285 237.493 362.122 236.567 361.218 235.412C360.313 234.257 359.692 232.906 359.404 231.468C359.393 231.313 359.393 231.158 359.404 231.003C359.404 228.388 361.266 225.817 364.636 223.801C368.96 221.544 373.766 220.366 378.645 220.366C383.523 220.366 388.329 221.544 392.654 223.801C395.979 225.817 397.841 228.388 397.841 231.003Z" fill="#F7AF3B"/>
    <path d="M397.818 231.468C397.531 232.906 396.91 234.257 396.005 235.412C395.1 236.567 393.937 237.493 392.609 238.116C388.284 240.373 383.478 241.551 378.6 241.551C373.722 241.551 368.916 240.373 364.591 238.116C363.263 237.493 362.1 236.567 361.195 235.412C360.29 234.257 359.669 232.906 359.382 231.468C359.673 230.031 360.295 228.682 361.199 227.528C362.104 226.373 363.265 225.446 364.591 224.82C368.916 222.563 373.722 221.385 378.6 221.385C383.478 221.385 388.284 222.563 392.609 224.82C393.935 225.446 395.096 226.373 396.001 227.528C396.905 228.682 397.527 230.031 397.818 231.468Z" fill="#F7DB8D"/>
    <path d="M387.423 236.875C386.607 237.322 385.744 237.679 384.851 237.939C384.046 238.168 383.223 238.331 382.391 238.427C381.699 238.504 381 238.504 380.307 238.427C379.835 238.396 379.375 238.268 378.955 238.05C378.806 237.969 378.677 237.856 378.578 237.717C378.476 237.588 378.408 237.436 378.379 237.274C378.323 237.139 378.323 236.988 378.379 236.853C378.442 236.703 378.561 236.584 378.711 236.521C378.993 236.38 379.305 236.312 379.62 236.321H381.061C381.671 236.285 382.278 236.211 382.879 236.1C383.603 235.972 384.304 235.741 384.962 235.413L379.11 231.823L376.65 232.399C375.819 232.579 374.973 232.682 374.123 232.709C373.275 232.753 372.426 232.686 371.596 232.51C370.731 232.334 369.905 232.004 369.158 231.535C368.521 231.183 367.981 230.681 367.584 230.072C367.332 229.621 367.246 229.095 367.34 228.587C367.457 228.061 367.718 227.578 368.094 227.191C368.539 226.721 369.037 226.305 369.579 225.95L368.847 225.507C368.782 225.471 368.729 225.415 368.697 225.347C368.666 225.28 368.656 225.204 368.67 225.13C368.699 225.04 368.749 224.957 368.814 224.889C368.879 224.82 368.958 224.766 369.047 224.731C369.273 224.613 369.523 224.545 369.778 224.532C369.989 224.475 370.211 224.475 370.421 224.532L371.108 224.953C371.552 224.731 372.061 224.488 372.66 224.244C373.231 224.022 373.816 223.837 374.411 223.69C374.937 223.538 375.481 223.456 376.029 223.446C376.451 223.409 376.874 223.494 377.248 223.69C377.382 223.774 377.502 223.878 377.603 224C377.726 224.107 377.818 224.245 377.869 224.399C377.902 224.468 377.92 224.544 377.92 224.62C377.92 224.697 377.902 224.773 377.869 224.842C377.8 225.001 377.673 225.127 377.514 225.197C377.311 225.295 377.095 225.363 376.872 225.396L375.963 225.573C375.566 225.64 375.174 225.729 374.788 225.839C374.308 225.975 373.84 226.153 373.391 226.371L378.445 229.496C379.243 229.296 380.041 229.119 380.884 228.964C381.726 228.816 382.578 228.734 383.433 228.72C384.299 228.726 385.161 228.83 386.004 229.03C386.913 229.254 387.781 229.621 388.575 230.116C390.105 231.069 390.792 232.044 390.792 233.064C390.71 233.653 390.493 234.215 390.158 234.707C389.824 235.199 389.381 235.607 388.863 235.9L389.706 236.432C389.741 236.446 389.773 236.468 389.799 236.495C389.825 236.522 389.845 236.555 389.858 236.59C389.87 236.626 389.875 236.664 389.872 236.702C389.868 236.739 389.857 236.776 389.839 236.809C389.809 236.896 389.763 236.976 389.702 237.044C389.641 237.113 389.567 237.168 389.484 237.208C389.254 237.338 388.995 237.407 388.73 237.407C388.523 237.416 388.317 237.37 388.132 237.274L387.423 236.875ZM371.618 229.917C371.958 230.135 372.333 230.293 372.726 230.382C373.12 230.464 373.522 230.501 373.923 230.493C374.362 230.472 374.799 230.42 375.231 230.338C375.675 230.338 376.14 230.161 376.606 230.05L372.172 227.258C371.62 227.562 371.19 228.047 370.953 228.632C370.709 229.097 370.975 229.518 371.618 229.917ZM386.248 231.823C385.512 231.353 384.66 231.1 383.787 231.091C382.887 231.095 381.989 231.184 381.105 231.357L386.359 234.615C386.605 234.457 386.815 234.249 386.975 234.005C387.136 233.76 387.243 233.485 387.29 233.197C387.312 232.687 386.957 232.266 386.248 231.823Z" fill="#F7AF3B"/>
    <g style="mix-blend-mode:screen" opacity="0.75">
        <path d="M359.382 231.468C359.608 232.803 360.138 234.068 360.929 235.167C361.721 236.266 362.753 237.168 363.948 237.806L362.773 225.972C361.865 226.611 361.097 227.428 360.514 228.372C359.931 229.317 359.546 230.37 359.382 231.468Z" fill="white"/>
    </g>
    <g style="mix-blend-mode:screen" opacity="0.75">
        <path d="M379.42 221.319L382.546 241.263C383.477 241.263 384.408 240.997 385.317 240.82L382.103 221.607C381.26 221.452 380.329 221.341 379.42 221.319Z" fill="white"/>
    </g>
    <g style="mix-blend-mode:screen" opacity="0.75">
        <path d="M392.92 224.931L392.61 224.709C391.636 224.157 390.621 223.683 389.573 223.291L392.477 238.294H392.61C393.56 237.728 394.445 237.06 395.247 236.299L392.92 224.931Z" fill="white"/>
    </g>
    <g style="mix-blend-mode:screen" opacity="0.75">
        <path d="M370.532 222.316L372.748 241.108C374.664 241.464 376.607 241.65 378.556 241.662C379.354 241.662 380.13 241.662 380.906 241.529L377.957 221.319C375.451 221.351 372.958 221.686 370.532 222.316Z" fill="white"/>
    </g>
    <path d="M274.862 13.651C274.855 13.0856 275.027 12.5326 275.354 12.0709C275.68 11.6092 276.144 11.2625 276.68 11.0803L280.381 9.77285L286.1 9.13019L290.09 9.86149C292.71 10.3602 295.067 11.7741 296.74 13.8504L299.577 17.3075L302.792 21.0305L299.932 26.1717L274.862 13.651Z" fill="#FF9269"/>
    <path d="M311.104 48.8864L313.454 43.3241L311.725 38.2271L297.915 28.0776L296.94 27.3684C300.132 25.1524 302.614 22.6039 299.666 17.374C299.666 17.374 318.463 20.964 325.423 26.9474C333.647 37.4958 337.349 50.2382 337.681 64.6205L309.973 51.5235L311.104 48.8864Z" fill="#EBEBEB"/>
    <g style="mix-blend-mode:multiply" opacity="0.3">
        <path d="M320.015 43.4571L317.311 48.8864H311.104L313.454 43.3241L311.725 38.2272L297.915 28.0776L315.515 36.0554L320.015 43.4571Z" fill="#919191"/>
    </g>
    <path d="M288.671 66.5041L282.398 54.4044L299.112 40.6205L313.453 56.1551L288.671 66.5041Z" fill="#FF9269"/>
    <path d="M289.048 54.2271C289.048 54.2271 280.869 57.2632 277.566 55.5568C274.263 53.8504 261.208 39.0249 263.978 26.8809C264.763 23.9733 266.275 21.3135 268.373 19.1522C270.471 16.991 273.085 15.3996 275.968 14.5281C278.851 13.6567 281.909 13.5339 284.853 14.1714C287.797 14.8089 290.53 16.1856 292.794 18.1717C302.769 26.8809 299.267 41.0194 299.267 41.0194L304.786 51.4127L289.071 58.4377L289.048 54.2271Z" fill="#FF9269"/>
    <path d="M262.493 33.3518C262.719 34.2929 263.222 35.1446 263.937 35.7966C264.652 36.4485 265.547 36.8707 266.505 37.0083C268.234 37.2521 268.722 38.0055 270.008 40.1551L272.357 43.8338L274.951 44.8975C276.786 45.6293 278.383 46.8569 279.561 48.4432C279.868 48.9312 280.284 49.3414 280.776 49.6414C281.269 49.9413 281.824 50.1229 282.398 50.1717C289.736 50.1717 299.999 41.5734 299.999 41.5734C299.999 41.5734 304.432 26.6149 293.57 17.3739C282.709 8.13294 272.823 14.1163 269.564 16.0665C266.59 17.7094 264.268 20.3194 262.982 23.4633C261.696 26.6073 261.523 30.0964 262.493 33.3518Z" fill="#1F2937"/>
    <path d="M273.909 39.7119C273.909 39.7119 271.094 40.0221 273.776 45.0969C276.458 50.1717 277.456 48.7534 277.456 48.7534C277.904 47.4866 277.981 46.1179 277.677 44.8088C277.19 42.3712 275.483 39.3352 273.909 39.7119Z" fill="#FF9269"/>
    <path d="M284.172 61.6732L283.729 56.7757C283.729 56.7757 295.676 44.277 302.991 44.6981L308.355 48.8865L284.172 61.6732Z" fill="white"/>
    <path d="M372.948 262.582C374.531 267.594 375.229 272.843 375.009 278.094C374.344 284.454 367.672 284.964 363.926 281.529L359.094 274.792C356.752 273.386 354.586 271.705 352.644 269.784C351.531 268.462 350.647 266.964 350.028 265.352C350.028 265.352 348.299 261.562 350.937 259.679C351.749 259.025 352.69 258.551 353.699 258.287C354.708 258.024 355.761 257.977 356.789 258.15L372.948 262.582Z" fill="#1F2937"/>
    <path d="M311.991 285.031L314.207 296.909C314.207 296.909 318.773 307.989 315.803 312.022C312.833 316.055 303.434 312.332 303.434 312.332L293.969 309.717C290.563 309.406 287.194 308.776 283.906 307.834C281.218 306.822 278.635 305.553 276.192 304.044C270.717 298.97 272.291 291.324 279.827 292.1L295.92 293.717L296.962 285.031H311.991Z" fill="#1F2937"/>
    <path d="M276.126 221.075L295.92 293.74C301.329 298.837 314.229 300.388 316.247 294.316C315.094 264.443 309.131 241.13 300.265 223.911C309.575 206.05 330.1 187.014 331.297 185.263L340.718 210.305C346.925 223.38 351.801 242.349 357.432 265.706C358.494 266.629 359.645 267.446 360.867 268.144C366.276 271.091 372.194 270.936 374.167 266.548C372.815 243.612 372.416 216.399 362.175 201.596L356.412 161.706C360.845 150.626 358.163 132.898 350.604 125.496L309.198 139.391L300.597 141.828V152.399C292.13 171.789 275.438 195.922 276.126 221.075Z" fill="#5270A3"/>
    <g style="mix-blend-mode:multiply" opacity="0.5">
        <path d="M331.209 185.263L340.629 210.305C346.836 223.38 351.713 242.349 357.343 265.706C358.431 266.648 359.621 267.465 360.889 268.144L348.875 208.443C348.875 208.443 341.028 186.061 347.678 168.554C337.238 182.05 331.43 183.934 331.209 185.263Z" fill="#445D87"/>
    </g>
    <g style="mix-blend-mode:multiply" opacity="0.5">
        <path d="M276.126 221.075L295.92 293.74C295.41 265.507 290.157 247.357 283.906 225.906C282.804 222.162 282.637 218.206 283.418 214.382C288.184 191.512 301.772 169.529 312.877 149.496L309.264 139.346L300.597 141.828V152.399C292.13 171.789 275.438 195.922 276.126 221.075Z" fill="#445D87"/>
    </g>
    <path d="M262.205 53.5623L265.995 47.6676C268.695 44.8117 270.737 41.4007 271.98 37.6731C272.482 35.3253 273.374 33.0782 274.618 31.0249C275.15 29.7618 276.148 27.9224 276.148 27.9224C276.923 25.7064 275.017 24.6426 273.776 26.3933L269.609 32.2659V28.4764L271.293 23.2908L274.862 17.5291C275.926 15.9557 273.953 14.9806 272.645 16.3767C273.377 14.3823 271.116 13.6288 269.343 16.0665C269.343 15.1579 267.791 15.3352 266.417 16.6648L264.2 18.8809H263.779C262.955 19.0371 262.215 19.4857 261.695 20.144L258.038 24.7313L256.442 31.7341C256.207 35.8205 256.657 39.9174 257.772 43.8559L254.026 50.3047L262.205 53.5623Z" fill="#FF9269"/>
    <path d="M282.088 67.7008L279.872 93.9612L279.295 102.537L275.372 102.094C269.719 101.429 258.747 100.033 247.553 98.0388C228.002 94.5817 227.847 88.7756 227.847 88.7756C227.586 86.6415 227.668 84.4793 228.091 82.3712C231.416 65.7728 253.339 48.421 257.816 43.856C262.892 41.7729 266.683 48.2881 266.683 48.2881L264.466 53.1634L254.779 73.5512L274.729 69.2742L282.088 67.7008Z" fill="#EBEBEB"/>
    <path d="M295.033 15.5125L290.6 16.1108C289.071 16.2659 288.738 18.3269 291.066 18.6593C293.482 19.3347 295.741 20.4793 297.715 22.0277C299.245 23.7784 295.033 15.5125 295.033 15.5125Z" fill="#FF9269"/>
    <path d="M354.129 130.083C347.767 142.116 325.778 150.803 311.725 151.468C306.582 151.734 302.503 150.914 300.641 148.831C294.679 132.033 282.265 116.742 275.35 102.094L274.241 99.723C273.482 98.0047 272.823 96.2437 272.269 94.4488C270.451 88.5319 270.517 83.3685 271.626 72C271.626 72 272.712 70.9806 274.662 69.3408C282.618 62.5187 291.13 56.3736 300.109 50.9696C306.654 47.0777 314.238 45.2906 321.832 45.8504C345.794 56.7313 354.129 130.083 354.129 130.083Z" fill="#EBEBEB"/>
    <g style="mix-blend-mode:multiply" opacity="0.3">
        <path d="M311.725 151.468C306.582 151.734 302.503 150.914 300.641 148.831C294.679 132.033 282.266 116.742 275.35 102.094C269.697 101.429 258.725 100.033 247.531 98.0388C227.98 94.5818 227.825 88.7757 227.825 88.7757C227.564 86.6415 227.646 84.4793 228.069 82.3712C227.936 83.2133 226.074 96.3546 272.402 94.4045C274.818 94.2937 277.389 94.1385 280.071 93.9613H281.578C281.578 93.9613 289.669 128.377 311.725 151.468Z" fill="#919191"/>
    </g>
    <g style="mix-blend-mode:multiply" opacity="0.3">
        <path d="M264.311 53.2078L254.624 73.5734L248.927 74.5485L264.311 53.2078Z" fill="#919191"/>
    </g>
</svg>
