<svg width="38" height="38" viewBox="0 0 38 38" fill="none" xmlns="http://www.w3.org/2000/svg">
    <path fill-rule="evenodd" clip-rule="evenodd" d="M14.3338 11.2223C13.9138 11.2223 13.5094 11.0512 13.2294 10.7712L11.2222 8.7552V31.4445H17.4444V22.7567L15.4383 24.7716V24.756C14.8161 25.3627 13.8361 25.3627 13.2294 24.756C12.6072 24.1338 12.6072 23.1538 13.2278 22.5471L17.8945 17.8804C18.4856 17.2582 19.4812 17.2582 20.0878 17.8649L24.7545 22.5316C25.3612 23.1227 25.3612 24.1182 24.7545 24.7249H24.7389C24.4434 25.0049 24.0389 25.176 23.6345 25.176L23.6672 25.2227C23.2472 25.2227 22.8427 25.0516 22.5627 24.7716L20.5555 22.7556V31.4445H26.7777V14.9789L24.7716 16.9938V16.9782C24.1494 17.5849 23.1694 17.5849 22.5627 16.9782C21.9405 16.356 21.9405 15.376 22.5612 14.7693L27.2278 10.1027C27.8189 9.48044 28.8145 9.48044 29.4212 10.0871L34.0878 14.7538C34.6945 15.3449 34.6945 16.3404 34.0878 16.9471H34.0723C33.7767 17.2271 33.3723 17.3982 32.9678 17.3982L33.0005 17.4449C32.5805 17.4449 32.1761 17.2738 31.8961 16.9938L29.8888 14.9778V31.4445H32.9999C33.8555 31.4445 34.5555 32.1289 34.5555 33C34.5555 33.8556 33.8555 34.5556 32.9999 34.5556H28.3333H18.9999H9.66661H4.99995C4.12883 34.5556 3.44439 33.8556 3.44439 33C3.44439 32.1289 4.12883 31.4445 4.99995 31.4445H8.11106V8.75632L6.10495 10.7712C5.48273 11.3779 4.50273 11.3779 3.89606 10.7712C3.27384 10.149 3.27384 9.16896 3.8945 8.5623L8.56117 3.89563C9.15228 3.27341 10.1478 3.27341 10.7545 3.88008L15.4212 8.54674C16.0278 9.13785 16.0278 10.1334 15.4212 10.7401H15.4056C15.1101 11.0201 14.7056 11.1912 14.3012 11.1912L14.3338 11.2223Z" fill="#DC2626"/>
</svg>
