<svg width="38" height="38" viewBox="0 0 38 38" fill="none" xmlns="http://www.w3.org/2000/svg">
    <path fill-rule="evenodd" clip-rule="evenodd" d="M20.5554 5C23.0407 5 25.0723 6.94276 25.2142 9.39246L25.2221 9.66667V15.8889H28.3332C30.8185 15.8889 32.85 17.8317 32.992 20.2814L32.9999 20.5556L32.9697 20.8606L31.4033 28.6884C30.8105 31.217 29.0675 33.0374 27.0334 33.0128L26.7777 33H15.8888C14.535 33 13.2823 32.5677 12.261 31.8336L12.1554 31.754C11.6273 32.4558 10.8186 32.9236 9.89874 32.9915L9.66656 33H6.55545C4.91533 33 3.57163 31.7309 3.45287 30.1211L3.44434 29.8889V19C3.44434 17.3599 4.71348 16.0162 6.32326 15.8974L6.55545 15.8889H11.2221C13.7074 15.8889 15.7389 13.9461 15.8809 11.4964L15.8888 11.2222V9.66667C15.8888 7.08934 17.9781 5 20.5554 5ZM20.5554 8.11111C19.7577 8.11111 19.1002 8.71162 19.0104 9.48526L18.9999 9.66667V11.2222C18.9999 14.9526 16.3737 18.0695 12.8694 18.8252L12.7777 18.8413V26.7778C12.7777 28.4179 14.0468 29.7616 15.6566 29.8804L15.8888 29.8889L26.9095 29.8945C27.3662 29.9333 27.9776 29.3573 28.2955 28.2846L28.3634 28.0283L29.881 20.4327L29.8783 20.3741C29.7954 19.66 29.2288 19.0934 28.5146 19.0105L28.3332 19H23.6666C22.8688 19 22.2113 18.3995 22.1215 17.6259L22.111 17.4444V9.66667C22.111 8.80756 21.4146 8.11111 20.5554 8.11111ZM9.66656 29.8889V19H6.55545V29.8889H9.66656Z" fill="#059669"/>
</svg>
