<svg width="355" height="83" viewBox="0 0 355 83" fill="none" xmlns="http://www.w3.org/2000/svg">
    <path d="M78.3763 33H84.8563V61H78.3763V33Z" fill="#065F46"/>
    <path d="M117.181 33V61H111.861L97.9013 44V61H91.5013V33H96.8613L110.781 50V33H117.181Z" fill="#065F46"/>
    <path d="M130.286 38.2V45.6H143.246V50.8H130.286V61H123.806V33H144.966V38.2H130.286Z" fill="#065F46"/>
    <path d="M149.353 33H155.833V55.72H169.873V61H149.353V33Z" fill="#065F46"/>
    <path d="M192.168 55H179.168L176.688 61H170.048L182.528 33H188.928L201.448 61H194.648L192.168 55ZM190.128 50.08L185.688 39.36L181.248 50.08H190.128Z" fill="#065F46"/>
    <path d="M217.362 61.48C214.509 61.48 211.922 60.8667 209.602 59.64C207.309 58.3867 205.496 56.6667 204.162 54.48C202.856 52.2667 202.202 49.7733 202.202 47C202.202 44.2267 202.856 41.7467 204.162 39.56C205.496 37.3467 207.309 35.6267 209.602 34.4C211.922 33.1467 214.522 32.52 217.402 32.52C219.829 32.52 222.016 32.9467 223.962 33.8C225.936 34.6533 227.589 35.88 228.922 37.48L224.762 41.32C222.869 39.1333 220.522 38.04 217.722 38.04C215.989 38.04 214.442 38.4267 213.082 39.2C211.722 39.9467 210.656 41 209.882 42.36C209.136 43.72 208.762 45.2667 208.762 47C208.762 48.7333 209.136 50.28 209.882 51.64C210.656 53 211.722 54.0667 213.082 54.84C214.442 55.5867 215.989 55.96 217.722 55.96C220.522 55.96 222.869 54.8533 224.762 52.64L228.922 56.48C227.589 58.1067 225.936 59.3467 223.962 60.2C221.989 61.0533 219.789 61.48 217.362 61.48Z" fill="#065F46"/>
    <path d="M233.298 33H239.778V61H233.298V33Z" fill="#065F46"/>
    <path d="M264.863 55H251.863L249.383 61H242.743L255.223 33H261.623L274.143 61H267.343L264.863 55ZM262.823 50.08L258.383 39.36L253.943 50.08H262.823Z" fill="#065F46"/>
    <path d="M317.544 61L312.144 53.2H306.184V61H299.704V33H311.824C314.304 33 316.451 33.4133 318.264 34.24C320.104 35.0667 321.518 36.24 322.504 37.76C323.491 39.28 323.984 41.08 323.984 43.16C323.984 45.24 323.478 47.04 322.464 48.56C321.478 50.0533 320.064 51.2 318.224 52L324.504 61H317.544ZM317.424 43.16C317.424 41.5867 316.918 40.3867 315.904 39.56C314.891 38.7067 313.411 38.28 311.464 38.28H306.184V48.04H311.464C313.411 48.04 314.891 47.6133 315.904 46.76C316.918 45.9067 317.424 44.7067 317.424 43.16Z" fill="#065F46"/>
    <path d="M341.558 61.48C337.558 61.48 334.438 60.3733 332.198 58.16C329.985 55.9467 328.878 52.7867 328.878 48.68V33H335.358V48.44C335.358 53.4533 337.438 55.96 341.598 55.96C343.625 55.96 345.172 55.36 346.238 54.16C347.305 52.9333 347.838 51.0267 347.838 48.44V33H354.238V48.68C354.238 52.7867 353.118 55.9467 350.878 58.16C348.665 60.3733 345.558 61.48 341.558 61.48Z" fill="#065F46"/>
    <path d="M82.2324 80.1591C81.5165 80.1591 80.9 79.9901 80.383 79.652C79.866 79.3139 79.4682 78.8483 79.1898 78.255C78.9114 77.6617 78.7722 76.9839 78.7722 76.2216C78.7722 75.446 78.9147 74.7616 79.1998 74.1683C79.4881 73.5717 79.8892 73.1061 80.4029 72.7713C80.9199 72.4332 81.5231 72.2642 82.2125 72.2642C82.7495 72.2642 83.2334 72.3636 83.6642 72.5625C84.0951 72.7614 84.4481 73.0398 84.7232 73.3977C84.9983 73.7557 85.169 74.1733 85.2353 74.6506H84.062C83.9725 74.3026 83.7736 73.9943 83.4654 73.7259C83.1605 73.4541 82.7495 73.3182 82.2324 73.3182C81.775 73.3182 81.374 73.4375 81.0293 73.6761C80.6879 73.9115 80.4211 74.2446 80.2289 74.6754C80.04 75.103 79.9455 75.6051 79.9455 76.1818C79.9455 76.7718 80.0383 77.2855 80.2239 77.723C80.4128 78.1605 80.678 78.5002 81.0194 78.7422C81.3641 78.9841 81.7684 79.1051 82.2324 79.1051C82.5374 79.1051 82.8141 79.0521 83.0627 78.946C83.3113 78.84 83.5217 78.6875 83.6941 78.4886C83.8664 78.2898 83.9891 78.0511 84.062 77.7727H85.2353C85.169 78.2235 85.0049 78.6295 84.7431 78.9908C84.4846 79.3487 84.1415 79.6338 83.714 79.8459C83.2897 80.0547 82.7959 80.1591 82.2324 80.1591Z" fill="#1F2937"/>
    <path d="M90.0527 80.1591C89.3633 80.1591 88.7585 79.995 88.2381 79.6669C87.7211 79.3388 87.3167 78.8797 87.025 78.2898C86.7367 77.6998 86.5925 77.0104 86.5925 76.2216C86.5925 75.4261 86.7367 74.7318 87.025 74.1385C87.3167 73.5452 87.7211 73.0845 88.2381 72.7564C88.7585 72.4283 89.3633 72.2642 90.0527 72.2642C90.7421 72.2642 91.3454 72.4283 91.8624 72.7564C92.3828 73.0845 92.7871 73.5452 93.0755 74.1385C93.3671 74.7318 93.513 75.4261 93.513 76.2216C93.513 77.0104 93.3671 77.6998 93.0755 78.2898C92.7871 78.8797 92.3828 79.3388 91.8624 79.6669C91.3454 79.995 90.7421 80.1591 90.0527 80.1591ZM90.0527 79.1051C90.5764 79.1051 91.0073 78.9709 91.3454 78.7024C91.6834 78.434 91.9337 78.081 92.0961 77.6435C92.2585 77.206 92.3397 76.732 92.3397 76.2216C92.3397 75.7112 92.2585 75.2356 92.0961 74.7947C91.9337 74.3539 91.6834 73.9976 91.3454 73.7259C91.0073 73.4541 90.5764 73.3182 90.0527 73.3182C89.5291 73.3182 89.0982 73.4541 88.7601 73.7259C88.4221 73.9976 88.1718 74.3539 88.0094 74.7947C87.847 75.2356 87.7658 75.7112 87.7658 76.2216C87.7658 76.732 87.847 77.206 88.0094 77.6435C88.1718 78.081 88.4221 78.434 88.7601 78.7024C89.0982 78.9709 89.5291 79.1051 90.0527 79.1051Z" fill="#1F2937"/>
    <path d="M95.8645 72.3636L97.6941 75.4858L99.5236 72.3636H100.876L98.41 76.1818L100.876 80H99.5236L97.6941 77.0369L95.8645 80H94.5123L96.9384 76.1818L94.5123 72.3636H95.8645Z" fill="#1F2937"/>
    <path d="M102.55 82.8636V72.3636H103.684V73.5767H103.823C103.909 73.4441 104.028 73.2751 104.181 73.0696C104.337 72.8608 104.559 72.6752 104.847 72.5128C105.139 72.3471 105.533 72.2642 106.03 72.2642C106.673 72.2642 107.24 72.425 107.73 72.7465C108.221 73.0679 108.604 73.5237 108.879 74.1136C109.154 74.7036 109.292 75.3996 109.292 76.2017C109.292 77.0104 109.154 77.7114 108.879 78.3047C108.604 78.8947 108.223 79.352 107.735 79.6768C107.248 79.9983 106.686 80.1591 106.05 80.1591C105.56 80.1591 105.167 80.0779 104.872 79.9155C104.577 79.7498 104.35 79.5625 104.191 79.3537C104.032 79.1416 103.909 78.9659 103.823 78.8267H103.723V82.8636H102.55ZM103.703 76.1818C103.703 76.7585 103.788 77.2673 103.957 77.7081C104.126 78.1456 104.373 78.4886 104.698 78.7372C105.023 78.9825 105.42 79.1051 105.891 79.1051C106.382 79.1051 106.791 78.9759 107.119 78.7173C107.45 78.4555 107.699 78.1042 107.865 77.6634C108.034 77.2192 108.118 76.7254 108.118 76.1818C108.118 75.6449 108.035 75.161 107.87 74.7301C107.707 74.2959 107.46 73.9529 107.129 73.701C106.801 73.4458 106.388 73.3182 105.891 73.3182C105.414 73.3182 105.013 73.4392 104.688 73.6811C104.363 73.9197 104.118 74.2545 103.952 74.6854C103.786 75.1129 103.703 75.6117 103.703 76.1818Z" fill="#1F2937"/>
    <path d="M113.328 80.179C112.845 80.179 112.405 80.0878 112.011 79.9055C111.617 79.7199 111.303 79.4531 111.071 79.1051C110.839 78.7538 110.723 78.3296 110.723 77.8324C110.723 77.3949 110.81 77.0402 110.982 76.7685C111.154 76.4934 111.385 76.2779 111.673 76.1222C111.961 75.9664 112.279 75.8504 112.627 75.7741C112.979 75.6946 113.332 75.6316 113.686 75.5852C114.15 75.5256 114.527 75.4808 114.815 75.451C115.107 75.4179 115.319 75.3632 115.451 75.2869C115.587 75.2107 115.655 75.0781 115.655 74.8892V74.8494C115.655 74.3589 115.521 73.9777 115.252 73.706C114.987 73.4342 114.585 73.2983 114.044 73.2983C113.484 73.2983 113.045 73.4209 112.727 73.6662C112.409 73.9115 112.185 74.1733 112.056 74.4517L110.942 74.054C111.141 73.59 111.406 73.2287 111.738 72.9702C112.072 72.7083 112.437 72.526 112.831 72.4233C113.229 72.3172 113.62 72.2642 114.005 72.2642C114.25 72.2642 114.532 72.294 114.85 72.3537C115.171 72.41 115.481 72.5277 115.779 72.7067C116.081 72.8857 116.331 73.1558 116.53 73.517C116.729 73.8783 116.828 74.3622 116.828 74.9688V80H115.655V78.9659H115.596C115.516 79.1316 115.383 79.309 115.198 79.4979C115.012 79.6868 114.765 79.8475 114.457 79.9801C114.149 80.1127 113.773 80.179 113.328 80.179ZM113.507 79.125C113.971 79.125 114.363 79.0339 114.681 78.8516C115.002 78.6693 115.244 78.434 115.407 78.1456C115.572 77.8572 115.655 77.554 115.655 77.2358V76.1619C115.605 76.2216 115.496 76.2763 115.327 76.326C115.161 76.3724 114.969 76.4138 114.75 76.4503C114.535 76.4834 114.324 76.5133 114.119 76.5398C113.917 76.563 113.753 76.5829 113.627 76.5994C113.322 76.6392 113.037 76.7038 112.772 76.7933C112.51 76.8795 112.298 77.0104 112.135 77.1861C111.976 77.3584 111.897 77.5938 111.897 77.892C111.897 78.2997 112.047 78.608 112.349 78.8168C112.654 79.0223 113.04 79.125 113.507 79.125Z" fill="#1F2937"/>
    <path d="M124.081 75.6449V76.7386H119.865V75.6449H124.081ZM120.143 72.3636V80H118.97V72.3636H120.143ZM124.976 72.3636V80H123.802V72.3636H124.976Z" fill="#1F2937"/>
    <path d="M128.292 78.2699L131.971 72.3636H133.323V80H132.15V74.0938L128.491 80H127.118V72.3636H128.292V78.2699Z" fill="#1F2937"/>
    <path d="M140.583 78.2699L144.262 72.3636H145.614V80H144.441V74.0938L140.782 80H139.409V72.3636H140.583V78.2699Z" fill="#1F2937"/>
    <path d="M151.7 80V72.3636H157.706V80H156.533V73.4574H152.874V80H151.7Z" fill="#1F2937"/>
    <path d="M159.849 82.8636V72.3636H160.982V73.5767H161.122C161.208 73.4441 161.327 73.2751 161.48 73.0696C161.635 72.8608 161.857 72.6752 162.146 72.5128C162.437 72.3471 162.832 72.2642 163.329 72.2642C163.972 72.2642 164.539 72.425 165.029 72.7465C165.52 73.0679 165.903 73.5237 166.178 74.1136C166.453 74.7036 166.59 75.3996 166.59 76.2017C166.59 77.0104 166.453 77.7114 166.178 78.3047C165.903 78.8947 165.521 79.352 165.034 79.6768C164.547 79.9983 163.985 80.1591 163.349 80.1591C162.858 80.1591 162.466 80.0779 162.171 79.9155C161.876 79.7498 161.649 79.5625 161.49 79.3537C161.33 79.1416 161.208 78.9659 161.122 78.8267H161.022V82.8636H159.849ZM161.002 76.1818C161.002 76.7585 161.087 77.2673 161.256 77.7081C161.425 78.1456 161.672 78.4886 161.997 78.7372C162.321 78.9825 162.719 79.1051 163.19 79.1051C163.68 79.1051 164.09 78.9759 164.418 78.7173C164.749 78.4555 164.998 78.1042 165.164 77.6634C165.333 77.2192 165.417 76.7254 165.417 76.1818C165.417 75.6449 165.334 75.161 165.169 74.7301C165.006 74.2959 164.759 73.9529 164.428 73.701C164.1 73.4458 163.687 73.3182 163.19 73.3182C162.713 73.3182 162.312 73.4392 161.987 73.6811C161.662 73.9197 161.417 74.2545 161.251 74.6854C161.085 75.1129 161.002 75.6117 161.002 76.1818Z" fill="#1F2937"/>
    <path d="M169.553 78.2699L173.232 72.3636H174.585V80H173.411V74.0938L169.752 80H168.38V72.3636H169.553V78.2699Z" fill="#1F2937"/>
    <path d="M177.216 82.8636C177.017 82.8636 176.84 82.8471 176.684 82.8139C176.528 82.7841 176.42 82.7543 176.361 82.7244L176.659 81.6903C176.944 81.7633 177.196 81.7898 177.415 81.7699C177.634 81.75 177.827 81.6522 177.996 81.4766C178.169 81.3042 178.326 81.0242 178.469 80.6364L178.688 80.0398L175.864 72.3636H177.136L179.244 78.4489H179.324L181.432 72.3636H182.705L179.463 81.1136C179.317 81.508 179.137 81.8345 178.921 82.093C178.706 82.3549 178.455 82.5488 178.17 82.6747C177.889 82.8007 177.571 82.8636 177.216 82.8636Z" fill="#1F2937"/>
    <path d="M188.429 78.4091L191.094 72.3636H192.208L188.907 80H187.952L184.711 72.3636H185.804L188.429 78.4091ZM185.426 72.3636V80H184.253V72.3636H185.426ZM191.432 80V72.3636H192.605V80H191.432Z" fill="#1F2937"/>
    <path d="M199.864 75.6449V76.7386H195.648V75.6449H199.864ZM195.926 72.3636V80H194.753V72.3636H195.926ZM200.759 72.3636V80H199.586V72.3636H200.759Z" fill="#1F2937"/>
    <path d="M206.004 80.1591C205.315 80.1591 204.71 79.995 204.189 79.6669C203.672 79.3388 203.268 78.8797 202.976 78.2898C202.688 77.6998 202.544 77.0104 202.544 76.2216C202.544 75.4261 202.688 74.7318 202.976 74.1385C203.268 73.5452 203.672 73.0845 204.189 72.7564C204.71 72.4283 205.315 72.2642 206.004 72.2642C206.693 72.2642 207.297 72.4283 207.814 72.7564C208.334 73.0845 208.738 73.5452 209.027 74.1385C209.318 74.7318 209.464 75.4261 209.464 76.2216C209.464 77.0104 209.318 77.6998 209.027 78.2898C208.738 78.8797 208.334 79.3388 207.814 79.6669C207.297 79.995 206.693 80.1591 206.004 80.1591ZM206.004 79.1051C206.528 79.1051 206.958 78.9709 207.297 78.7024C207.635 78.434 207.885 78.081 208.047 77.6435C208.21 77.206 208.291 76.732 208.291 76.2216C208.291 75.7112 208.21 75.2356 208.047 74.7947C207.885 74.3539 207.635 73.9976 207.297 73.7259C206.958 73.4541 206.528 73.3182 206.004 73.3182C205.48 73.3182 205.049 73.4541 204.711 73.7259C204.373 73.9976 204.123 74.3539 203.961 74.7947C203.798 75.2356 203.717 75.7112 203.717 76.2216C203.717 76.732 203.798 77.206 203.961 77.6435C204.123 78.081 204.373 78.434 204.711 78.7024C205.049 78.9709 205.48 79.1051 206.004 79.1051Z" fill="#1F2937"/>
    <path d="M210.463 80L213.566 76.1222L210.503 72.3636H211.895L214.441 75.625H215.077V72.3636H216.25V75.625H216.867L219.412 72.3636H220.804L217.762 76.1222L220.844 80H219.432L216.847 76.7188H216.25V80H215.077V76.7188H214.48L211.875 80H210.463Z" fill="#1F2937"/>
    <path d="M229.561 80.1591C228.845 80.1591 228.228 79.9901 227.711 79.652C227.194 79.3139 226.796 78.8483 226.518 78.255C226.24 77.6617 226.1 76.9839 226.1 76.2216C226.1 75.446 226.243 74.7616 226.528 74.1683C226.816 73.5717 227.217 73.1061 227.731 72.7713C228.248 72.4332 228.851 72.2642 229.541 72.2642C230.078 72.2642 230.561 72.3636 230.992 72.5625C231.423 72.7614 231.776 73.0398 232.051 73.3977C232.326 73.7557 232.497 74.1733 232.563 74.6506H231.39C231.301 74.3026 231.102 73.9943 230.794 73.7259C230.489 73.4541 230.078 73.3182 229.561 73.3182C229.103 73.3182 228.702 73.4375 228.357 73.6761C228.016 73.9115 227.749 74.2446 227.557 74.6754C227.368 75.103 227.274 75.6051 227.274 76.1818C227.274 76.7718 227.366 77.2855 227.552 77.723C227.741 78.1605 228.006 78.5002 228.347 78.7422C228.692 78.9841 229.097 79.1051 229.561 79.1051C229.865 79.1051 230.142 79.0521 230.391 78.946C230.639 78.84 230.85 78.6875 231.022 78.4886C231.195 78.2898 231.317 78.0511 231.39 77.7727H232.563C232.497 78.2235 232.333 78.6295 232.071 78.9908C231.813 79.3487 231.47 79.6338 231.042 79.8459C230.618 80.0547 230.124 80.1591 229.561 80.1591Z" fill="#1F2937"/>
    <path d="M234.279 80V72.3636H237.401C238.223 72.3636 238.876 72.5492 239.36 72.9205C239.843 73.2917 240.085 73.7822 240.085 74.392C240.085 74.8561 239.948 75.2157 239.673 75.4709C239.398 75.7228 239.045 75.8935 238.614 75.983C238.896 76.0227 239.169 76.1222 239.434 76.2812C239.703 76.4403 239.925 76.6591 240.1 76.9375C240.276 77.2126 240.364 77.5507 240.364 77.9517C240.364 78.3428 240.264 78.6925 240.066 79.0007C239.867 79.3089 239.582 79.5526 239.21 79.7315C238.839 79.9105 238.395 80 237.878 80H234.279ZM235.392 78.9261H237.878C238.282 78.9261 238.599 78.83 238.828 78.6378C239.056 78.4455 239.171 78.1837 239.171 77.8523C239.171 77.4579 239.056 77.148 238.828 76.9226C238.599 76.6939 238.282 76.5795 237.878 76.5795H235.392V78.9261ZM235.392 75.5653H237.401C237.716 75.5653 237.986 75.5223 238.211 75.4361C238.436 75.3466 238.609 75.2206 238.728 75.0582C238.851 74.8925 238.912 74.697 238.912 74.4716C238.912 74.1501 238.778 73.8982 238.509 73.7159C238.241 73.5303 237.871 73.4375 237.401 73.4375H235.392V75.5653Z" fill="#1F2937"/>
    <path d="M245.242 80.1591C244.553 80.1591 243.948 79.995 243.428 79.6669C242.911 79.3388 242.506 78.8797 242.214 78.2898C241.926 77.6998 241.782 77.0104 241.782 76.2216C241.782 75.4261 241.926 74.7318 242.214 74.1385C242.506 73.5452 242.911 73.0845 243.428 72.7564C243.948 72.4283 244.553 72.2642 245.242 72.2642C245.932 72.2642 246.535 72.4283 247.052 72.7564C247.572 73.0845 247.977 73.5452 248.265 74.1385C248.557 74.7318 248.702 75.4261 248.702 76.2216C248.702 77.0104 248.557 77.6998 248.265 78.2898C247.977 78.8797 247.572 79.3388 247.052 79.6669C246.535 79.995 245.932 80.1591 245.242 80.1591ZM245.242 79.1051C245.766 79.1051 246.197 78.9709 246.535 78.7024C246.873 78.434 247.123 78.081 247.286 77.6435C247.448 77.206 247.529 76.732 247.529 76.2216C247.529 75.7112 247.448 75.2356 247.286 74.7947C247.123 74.3539 246.873 73.9976 246.535 73.7259C246.197 73.4541 245.766 73.3182 245.242 73.3182C244.719 73.3182 244.288 73.4541 243.95 73.7259C243.612 73.9976 243.361 74.3539 243.199 74.7947C243.036 75.2356 242.955 75.7112 242.955 76.2216C242.955 76.732 243.036 77.206 243.199 77.6435C243.361 78.081 243.612 78.434 243.95 78.7024C244.288 78.9709 244.719 79.1051 245.242 79.1051Z" fill="#1F2937"/>
    <path d="M251.667 78.2699L255.346 72.3636H256.698V80H255.525V74.0938L251.866 80H250.493V72.3636H251.667V78.2699Z" fill="#1F2937"/>
    <path d="M265.887 80.1591C265.171 80.1591 264.554 79.9901 264.037 79.652C263.52 79.3139 263.123 78.8483 262.844 78.255C262.566 77.6617 262.426 76.9839 262.426 76.2216C262.426 75.446 262.569 74.7616 262.854 74.1683C263.142 73.5717 263.543 73.1061 264.057 72.7713C264.574 72.4332 265.177 72.2642 265.867 72.2642C266.404 72.2642 266.888 72.3636 267.319 72.5625C267.749 72.7614 268.102 73.0398 268.378 73.3977C268.653 73.7557 268.823 74.1733 268.89 74.6506H267.716C267.627 74.3026 267.428 73.9943 267.12 73.7259C266.815 73.4541 266.404 73.3182 265.887 73.3182C265.429 73.3182 265.028 73.4375 264.684 73.6761C264.342 73.9115 264.075 74.2446 263.883 74.6754C263.694 75.103 263.6 75.6051 263.6 76.1818C263.6 76.7718 263.693 77.2855 263.878 77.723C264.067 78.1605 264.332 78.5002 264.674 78.7422C265.018 78.9841 265.423 79.1051 265.887 79.1051C266.192 79.1051 266.468 79.0521 266.717 78.946C266.966 78.84 267.176 78.6875 267.348 78.4886C267.521 78.2898 267.643 78.0511 267.716 77.7727H268.89C268.823 78.2235 268.659 78.6295 268.397 78.9908C268.139 79.3487 267.796 79.6338 267.368 79.8459C266.944 80.0547 266.45 80.1591 265.887 80.1591Z" fill="#1F2937"/>
    <path d="M276.272 69.5L276.869 70.2159C276.637 70.4413 276.368 70.5987 276.064 70.6882C275.759 70.7777 275.414 70.8324 275.029 70.8523C274.645 70.8722 274.217 70.892 273.747 70.9119C273.216 70.9318 272.777 71.0611 272.429 71.2997C272.081 71.5384 271.813 71.883 271.624 72.3338C271.435 72.7846 271.314 73.3381 271.261 73.9943H271.36C271.619 73.517 271.977 73.1657 272.434 72.9403C272.892 72.715 273.382 72.6023 273.906 72.6023C274.503 72.6023 275.039 72.7415 275.517 73.0199C275.994 73.2983 276.372 73.7109 276.65 74.2578C276.929 74.8047 277.068 75.4792 277.068 76.2812C277.068 77.08 276.925 77.7694 276.64 78.3494C276.359 78.9295 275.962 79.3769 275.452 79.6918C274.945 80.0033 274.35 80.1591 273.667 80.1591C272.984 80.1591 272.386 79.9983 271.873 79.6768C271.359 79.352 270.959 78.8714 270.674 78.2351C270.389 77.5954 270.247 76.8049 270.247 75.8636V75.0483C270.247 73.348 270.535 72.0587 271.112 71.1804C271.692 70.3021 272.564 69.848 273.727 69.8182C274.138 69.8049 274.504 69.8016 274.826 69.8082C275.147 69.8149 275.427 69.8 275.666 69.7635C275.904 69.727 276.107 69.6392 276.272 69.5ZM273.667 79.1051C274.128 79.1051 274.524 78.9891 274.855 78.7571C275.19 78.5251 275.447 78.1986 275.626 77.7777C275.805 77.3535 275.895 76.8546 275.895 76.2812C275.895 75.7244 275.803 75.2505 275.621 74.8594C275.442 74.4683 275.185 74.17 274.85 73.9645C274.516 73.759 274.115 73.6562 273.647 73.6562C273.306 73.6562 272.999 73.7142 272.728 73.8303C272.456 73.9463 272.224 74.117 272.032 74.3423C271.839 74.5677 271.69 74.8428 271.584 75.1676C271.481 75.4924 271.427 75.8636 271.42 76.2812C271.42 77.1364 271.621 77.8208 272.022 78.3345C272.423 78.8483 272.971 79.1051 273.667 79.1051Z" fill="#1F2937"/>
    <path d="M282.064 80.1591C281.328 80.1591 280.694 79.9967 280.16 79.6719C279.63 79.3438 279.221 78.8864 278.932 78.2997C278.647 77.7097 278.505 77.0237 278.505 76.2415C278.505 75.4593 278.647 74.7699 278.932 74.1733C279.221 73.5734 279.622 73.1061 280.135 72.7713C280.652 72.4332 281.256 72.2642 281.945 72.2642C282.343 72.2642 282.735 72.3305 283.123 72.4631C283.511 72.5956 283.864 72.8111 284.182 73.1094C284.5 73.4044 284.754 73.7955 284.943 74.2827C285.132 74.7699 285.226 75.3698 285.226 76.0824V76.5795H279.34V75.5653H284.033C284.033 75.1345 283.947 74.75 283.775 74.4119C283.605 74.0739 283.364 73.8071 283.049 73.6115C282.737 73.416 282.369 73.3182 281.945 73.3182C281.478 73.3182 281.073 73.4342 280.732 73.6662C280.394 73.8949 280.134 74.1932 279.951 74.5611C279.769 74.929 279.678 75.3234 279.678 75.7443V76.4205C279.678 76.9972 279.777 77.486 279.976 77.8871C280.178 78.2848 280.458 78.5881 280.816 78.7969C281.174 79.0024 281.59 79.1051 282.064 79.1051C282.372 79.1051 282.651 79.062 282.9 78.9759C283.151 78.8864 283.368 78.7538 283.551 78.5781C283.733 78.3991 283.874 78.1771 283.973 77.9119L285.107 78.2301C284.988 78.6146 284.787 78.9527 284.505 79.2443C284.224 79.5327 283.876 79.758 283.461 79.9205C283.047 80.0795 282.581 80.1591 282.064 80.1591Z" fill="#1F2937"/>
    <path d="M287.011 82.8636V72.3636H288.145V73.5767H288.284C288.37 73.4441 288.489 73.2751 288.642 73.0696C288.797 72.8608 289.02 72.6752 289.308 72.5128C289.6 72.3471 289.994 72.2642 290.491 72.2642C291.134 72.2642 291.701 72.425 292.191 72.7465C292.682 73.0679 293.065 73.5237 293.34 74.1136C293.615 74.7036 293.753 75.3996 293.753 76.2017C293.753 77.0104 293.615 77.7114 293.34 78.3047C293.065 78.8947 292.684 79.352 292.196 79.6768C291.709 79.9983 291.147 80.1591 290.511 80.1591C290.02 80.1591 289.628 80.0779 289.333 79.9155C289.038 79.7498 288.811 79.5625 288.652 79.3537C288.493 79.1416 288.37 78.9659 288.284 78.8267H288.184V82.8636H287.011ZM288.164 76.1818C288.164 76.7585 288.249 77.2673 288.418 77.7081C288.587 78.1456 288.834 78.4886 289.159 78.7372C289.484 78.9825 289.881 79.1051 290.352 79.1051C290.842 79.1051 291.252 78.9759 291.58 78.7173C291.911 78.4555 292.16 78.1042 292.326 77.6634C292.495 77.2192 292.579 76.7254 292.579 76.1818C292.579 75.6449 292.496 75.161 292.331 74.7301C292.168 74.2959 291.921 73.9529 291.59 73.701C291.262 73.4458 290.849 73.3182 290.352 73.3182C289.875 73.3182 289.474 73.4392 289.149 73.6811C288.824 73.9197 288.579 74.2545 288.413 74.6854C288.247 75.1129 288.164 75.6117 288.164 76.1818Z" fill="#1F2937"/>
    <path d="M298.744 80.1591C298.008 80.1591 297.373 79.9967 296.84 79.6719C296.31 79.3438 295.9 78.8864 295.612 78.2997C295.327 77.7097 295.184 77.0237 295.184 76.2415C295.184 75.4593 295.327 74.7699 295.612 74.1733C295.9 73.5734 296.301 73.1061 296.815 72.7713C297.332 72.4332 297.935 72.2642 298.625 72.2642C299.022 72.2642 299.415 72.3305 299.803 72.4631C300.191 72.5956 300.544 72.8111 300.862 73.1094C301.18 73.4044 301.434 73.7955 301.623 74.2827C301.811 74.7699 301.906 75.3698 301.906 76.0824V76.5795H296.02V75.5653H300.713C300.713 75.1345 300.627 74.75 300.454 74.4119C300.285 74.0739 300.043 73.8071 299.728 73.6115C299.417 73.416 299.049 73.3182 298.625 73.3182C298.157 73.3182 297.753 73.4342 297.412 73.6662C297.074 73.8949 296.813 74.1932 296.631 74.5611C296.449 74.929 296.358 75.3234 296.358 75.7443V76.4205C296.358 76.9972 296.457 77.486 296.656 77.8871C296.858 78.2848 297.138 78.5881 297.496 78.7969C297.854 79.0024 298.27 79.1051 298.744 79.1051C299.052 79.1051 299.331 79.062 299.579 78.9759C299.831 78.8864 300.048 78.7538 300.23 78.5781C300.413 78.3991 300.554 78.1771 300.653 77.9119L301.787 78.2301C301.667 78.6146 301.467 78.9527 301.185 79.2443C300.903 79.5327 300.555 79.758 300.141 79.9205C299.727 80.0795 299.261 80.1591 298.744 80.1591Z" fill="#1F2937"/>
    <path d="M303.008 80L306.111 76.1222L303.048 72.3636H304.44L306.986 75.625H307.622V72.3636H308.795V75.625H309.412L311.957 72.3636H313.349L310.307 76.1222L313.389 80H311.977L309.392 76.7188H308.795V80H307.622V76.7188H307.025L304.42 80H303.008Z" fill="#1F2937"/>
    <path d="M317.953 80.1591C317.217 80.1591 316.582 79.9967 316.049 79.6719C315.519 79.3438 315.109 78.8864 314.821 78.2997C314.536 77.7097 314.393 77.0237 314.393 76.2415C314.393 75.4593 314.536 74.7699 314.821 74.1733C315.109 73.5734 315.51 73.1061 316.024 72.7713C316.541 72.4332 317.144 72.2642 317.834 72.2642C318.231 72.2642 318.624 72.3305 319.012 72.4631C319.4 72.5956 319.753 72.8111 320.071 73.1094C320.389 73.4044 320.643 73.7955 320.832 74.2827C321.02 74.7699 321.115 75.3698 321.115 76.0824V76.5795H315.229V75.5653H319.922C319.922 75.1345 319.836 74.75 319.663 74.4119C319.494 74.0739 319.252 73.8071 318.937 73.6115C318.626 73.416 318.258 73.3182 317.834 73.3182C317.366 73.3182 316.962 73.4342 316.621 73.6662C316.283 73.8949 316.022 74.1932 315.84 74.5611C315.658 74.929 315.567 75.3234 315.567 75.7443V76.4205C315.567 76.9972 315.666 77.486 315.865 77.8871C316.067 78.2848 316.347 78.5881 316.705 78.7969C317.063 79.0024 317.479 79.1051 317.953 79.1051C318.261 79.1051 318.54 79.062 318.788 78.9759C319.04 78.8864 319.257 78.7538 319.439 78.5781C319.622 78.3991 319.763 78.1771 319.862 77.9119L320.996 78.2301C320.876 78.6146 320.676 78.9527 320.394 79.2443C320.112 79.5327 319.764 79.758 319.35 79.9205C318.936 80.0795 318.47 80.1591 317.953 80.1591Z" fill="#1F2937"/>
    <path d="M328.01 75.6449V76.7386H323.795V75.6449H328.01ZM324.073 72.3636V80H322.9V72.3636H324.073ZM328.905 72.3636V80H327.732V72.3636H328.905Z" fill="#1F2937"/>
    <path d="M332.221 78.2699L335.9 72.3636H337.253V80H336.079V74.0938L332.42 80H331.048V72.3636H332.221V78.2699Z" fill="#1F2937"/>
    <path d="M343.995 80V73.4375H341.967C341.51 73.4375 341.15 73.5436 340.888 73.7557C340.626 73.9678 340.495 74.2595 340.495 74.6307C340.495 74.9953 340.613 75.282 340.848 75.4908C341.087 75.6996 341.413 75.804 341.828 75.804H344.294V76.8977H341.828C341.311 76.8977 340.865 76.8066 340.49 76.6243C340.116 76.442 339.828 76.1818 339.625 75.8438C339.423 75.5024 339.322 75.098 339.322 74.6307C339.322 74.16 339.428 73.7557 339.64 73.4176C339.852 73.0795 340.156 72.8194 340.55 72.6371C340.948 72.4548 341.42 72.3636 341.967 72.3636H345.109V80H343.995ZM338.904 80L341.072 76.2017H342.345L340.177 80H338.904Z" fill="#1F2937"/>
    <path d="M58.3164 78.4407H14.6571C11.2125 78.4407 8.42002 75.6483 8.42002 72.2037V39.771C8.42002 36.3265 11.2125 33.534 14.6571 33.534H58.3164C61.761 33.534 64.5535 36.3265 64.5535 39.771V72.2037C64.5535 75.6484 61.761 78.4407 58.3164 78.4407Z" fill="#065F46"/>
    <path d="M51.4557 78.4407H7.79631C4.35175 78.4407 1.55926 75.6483 1.55926 72.2037V39.771C1.55926 36.3265 4.35175 33.534 7.79631 33.534H51.4557C54.9002 33.534 57.6927 36.3265 57.6927 39.771V72.2037C57.6927 75.6484 54.9002 78.4407 51.4557 78.4407Z" fill="#10B981"/>
    <path d="M64.5535 49.7503H39.9171C36.4726 49.7503 33.6801 52.5428 33.6801 55.9874C33.6801 59.4319 36.4726 62.2244 39.9171 62.2244H64.5535V49.7503Z" fill="#065F46"/>
    <path d="M44.4001 19.9055C48.5192 19.9055 51.8583 16.5664 51.8583 12.4473C51.8583 8.3282 48.5192 4.98902 44.4001 4.98902C40.281 4.98902 36.9418 8.3282 36.9418 12.4473C36.9418 16.5664 40.281 19.9055 44.4001 19.9055Z" fill="#F59E0B"/>
    <path d="M21.7126 33.5232C25.8317 33.5232 29.1708 30.184 29.1708 26.0649C29.1708 21.9459 25.8317 18.6067 21.7126 18.6067C17.5935 18.6067 14.2543 21.9459 14.2543 26.0649C14.2543 30.184 17.5935 33.5232 21.7126 33.5232Z" fill="#F59E0B"/>
    <path d="M58.3164 31.9747H28.5147C29.8928 30.3907 30.7301 28.3243 30.7301 26.0648C30.7301 21.0925 26.6849 17.0473 21.7126 17.0473C16.7402 17.0473 12.695 21.0925 12.695 26.0648C12.695 28.3243 13.5324 30.3907 14.9103 31.9747H7.79631C3.49743 31.9747 0 35.4721 0 39.771V48.9705C0 49.8317 0.698082 50.5298 1.55926 50.5298C2.42044 50.5298 3.11852 49.8317 3.11852 48.9705V39.771C3.11852 37.1917 5.21698 35.0932 7.79631 35.0932H51.4557C54.035 35.0932 56.1335 37.1917 56.1335 39.771V48.191H39.9171C35.6182 48.191 32.1208 51.6885 32.1208 55.9874C32.1208 60.2862 35.6182 63.7837 39.9171 63.7837H56.1335V72.2037C56.1335 74.783 54.035 76.8815 51.4557 76.8815H7.79631C5.21698 76.8815 3.11852 74.783 3.11852 72.2037V62.9919C3.11852 62.1307 2.42044 61.4326 1.55926 61.4326C0.698082 61.4326 0 62.1307 0 62.9919V72.2037C0 76.5026 3.49743 80 7.79631 80H58.3164C62.6153 80 66.1127 76.5026 66.1127 72.2037V39.771C66.1127 35.4721 62.6153 31.9747 58.3164 31.9747ZM21.7126 20.1659C24.9654 20.1659 27.6116 22.8122 27.6116 26.0649C27.6116 29.3177 24.9654 31.964 21.7126 31.964C18.46 31.964 15.8136 29.3177 15.8136 26.0649C15.8136 22.8122 18.4598 20.1659 21.7126 20.1659ZM57.6885 35.0932H58.3164C60.8958 35.0932 62.9942 37.1917 62.9942 39.771V48.191H59.252V39.771C59.252 38.0173 58.6696 36.3972 57.6885 35.0932ZM35.2393 55.9874C35.2393 53.408 37.3378 51.3096 39.9171 51.3096H62.9942V60.6651H39.9171C37.3378 60.6651 35.2393 58.5667 35.2393 55.9874ZM58.3164 76.8815H57.6885C58.6696 75.5775 59.252 73.9575 59.252 72.2037V63.7837H62.9942V72.2037C62.9942 74.783 60.8958 76.8815 58.3164 76.8815Z" fill="#1F2937"/>
    <path d="M39.518 54.4279C39.1063 54.4279 38.704 54.5948 38.414 54.8848C38.124 55.1748 37.9587 55.5771 37.9587 55.9872C37.9587 56.3973 38.124 56.7996 38.414 57.0896C38.7056 57.3796 39.1063 57.5465 39.518 57.5465C39.928 57.5465 40.3288 57.3796 40.6204 57.0896C40.9104 56.7996 41.0772 56.3973 41.0772 55.9872C41.0772 55.5771 40.9104 55.1748 40.6204 54.8848C40.3303 54.5946 39.928 54.4279 39.518 54.4279Z" fill="#1F2937"/>
    <path d="M44.4001 21.4648C49.3724 21.4648 53.4176 17.4196 53.4176 12.4473C53.4176 7.4751 49.3724 3.42975 44.4001 3.42975C39.4278 3.42975 35.3826 7.47494 35.3826 12.4473C35.3826 17.4196 39.4278 21.4648 44.4001 21.4648ZM44.4001 6.54843C47.6527 6.54843 50.2991 9.19465 50.2991 12.4474C50.2991 15.7002 47.6529 18.3464 44.4001 18.3464C41.1473 18.3464 38.5011 15.7002 38.5011 12.4474C38.5011 9.19465 41.1473 6.54843 44.4001 6.54843Z" fill="#1F2937"/>
    <path d="M29.1708 15.3714C30.032 15.3714 30.7301 14.6733 30.7301 13.8121V1.55926C30.7301 0.698082 30.032 0 29.1708 0C28.3097 0 27.6116 0.698082 27.6116 1.55926V13.8121C27.6116 14.6733 28.3097 15.3714 29.1708 15.3714Z" fill="#1F2937"/>
    <path d="M21.6864 9.97928C22.5476 9.97928 23.2456 9.2812 23.2456 8.42002V1.55926C23.2456 0.698082 22.5476 0 21.6864 0C20.8252 0 20.1271 0.698082 20.1271 1.55926V8.42002C20.1271 9.2812 20.8252 9.97928 21.6864 9.97928Z" fill="#1F2937"/>
    <path d="M1.55926 57.5465C1.96935 57.5465 2.37164 57.3796 2.66166 57.0896C2.95168 56.7996 3.11852 56.3973 3.11852 55.9872C3.11852 55.5771 2.95168 55.1748 2.66166 54.8848C2.37164 54.5948 1.97091 54.4279 1.55926 54.4279C1.14918 54.4279 0.746887 54.5948 0.456864 54.8848C0.166841 55.1748 0 55.5771 0 55.9872C0 56.3973 0.166841 56.7996 0.456864 57.0896C0.746887 57.3796 1.14902 57.5465 1.55926 57.5465Z" fill="#1F2937"/>
    <path d="M286.074 59.4758C290.193 59.4758 293.532 56.1366 293.532 52.0175C293.532 47.8984 290.193 44.5593 286.074 44.5593C281.955 44.5593 278.616 47.8984 278.616 52.0175C278.616 56.1366 281.955 59.4758 286.074 59.4758Z" fill="#F59E0B"/>
    <path d="M286.074 61.0351C291.046 61.0351 295.091 56.9899 295.091 52.0175C295.091 47.0454 291.046 43 286.074 43C281.102 43 277.056 47.0452 277.056 52.0175C277.056 56.9899 281.102 61.0351 286.074 61.0351ZM286.074 46.1187C289.326 46.1187 291.973 48.7649 291.973 52.0177C291.973 55.2705 289.327 57.9167 286.074 57.9167C282.821 57.9167 280.175 55.2705 280.175 52.0177C280.175 48.7649 282.821 46.1187 286.074 46.1187Z" fill="#1F2937"/>
</svg>
