<svg width="36" height="36" viewBox="0 0 36 36" fill="none" xmlns="http://www.w3.org/2000/svg">
    <path fill-rule="evenodd" clip-rule="evenodd" d="M28.5 6H7.5H7.5C5.01473 6 3 8.01473 3 10.5V10.5V25.5V25.5C3 27.9853 5.01473 30 7.5 30H28.5V30C30.9853 30 33 27.9853 33 25.5V10.5V10.5C33 8.01473 30.9853 6 28.5 6V6ZM27.4978 9L18.0028 16.125L8.50781 9H27.4978ZM28.5 27H7.5V27C6.67157 27 6 26.3284 6 25.5V25.5V10.875L17.1 19.2V19.2C17.3596 19.3947 17.6754 19.5 18 19.5V19.5C18.3246 19.5 18.6404 19.3947 18.9 19.2L30 10.875V25.5V25.5C30 26.3284 29.3284 27 28.5 27V27Z" fill="#059669"/>
</svg>
