<svg width="38" height="38" viewBox="0 0 38 38" fill="none" xmlns="http://www.w3.org/2000/svg">
    <path fill-rule="evenodd" clip-rule="evenodd" d="M28.3253 10.948C28.1834 8.49831 26.1518 6.55554 23.6666 6.55554H8.111L7.8368 6.56346C5.3871 6.7054 3.44434 8.73693 3.44434 11.2222V20.5555L3.45226 20.8297C3.5942 23.2794 5.62572 25.2222 8.111 25.2222H9.66656V26.7778C9.66656 29.3551 11.7559 31.4444 14.3332 31.4444H29.8888C32.4661 31.4444 34.5554 29.3551 34.5554 26.7778V17.4444C34.5554 14.8671 32.4661 12.7778 29.8888 12.7778H28.3332V11.2222L28.3253 10.948ZM25.2221 12.7778V11.2222C25.2221 10.4245 24.6216 9.76698 23.848 9.67712L23.6666 9.66665H8.111C7.31326 9.66665 6.65577 10.2672 6.56591 11.0408L6.55545 11.2222V20.5555C6.55545 21.3533 7.15595 22.0108 7.92959 22.1006L8.111 22.1111H9.66656V17.4444C9.66656 14.8671 11.7559 12.7778 14.3332 12.7778H25.2221ZM12.7777 23.6649V17.4444C12.7777 16.5853 13.4741 15.8889 14.3332 15.8889L26.7777 15.8889L29.8888 15.8889C30.7479 15.8889 31.4443 16.5853 31.4443 17.4444V26.7778C31.4443 27.6369 30.7479 28.3333 29.8888 28.3333H14.3332C13.4741 28.3333 12.7777 27.6369 12.7777 26.7778V23.6684C12.7777 23.6678 12.7777 23.6672 12.7777 23.6667C12.7777 23.6661 12.7777 23.6655 12.7777 23.6649ZM17.4443 22.1111C17.4443 19.5338 19.5337 17.4444 22.111 17.4444C24.6883 17.4444 26.7777 19.5338 26.7777 22.1111C26.7777 24.6884 24.6883 26.7778 22.111 26.7778C19.5337 26.7778 17.4443 24.6884 17.4443 22.1111ZM23.6666 22.1111C23.6666 21.252 22.9701 20.5555 22.111 20.5555C21.2519 20.5555 20.5554 21.252 20.5554 22.1111C20.5554 22.9702 21.2519 23.6667 22.111 23.6667C22.9701 23.6667 23.6666 22.9702 23.6666 22.1111Z" fill="#059669"/>
</svg>
