<svg width="34" height="34" viewBox="0 0 34 34" fill="none" xmlns="http://www.w3.org/2000/svg">
    <path fill-rule="evenodd" clip-rule="evenodd" d="M17.0002 0.333252C7.79541 0.333252 0.333496 7.79517 0.333496 16.9999C0.333496 26.2047 7.79541 33.6666 17.0002 33.6666C26.2049 33.6666 33.6668 26.2047 33.6668 16.9999C33.6668 7.79517 26.2049 0.333252 17.0002 0.333252ZM17.0002 30.3333C9.63636 30.3333 3.66683 24.3637 3.66683 16.9999C3.66683 9.63612 9.63636 3.66659 17.0002 3.66659C24.364 3.66659 30.3335 9.63612 30.3335 16.9999C30.3335 24.3637 24.364 30.3333 17.0002 30.3333ZM18.6668 15.3333H22.0002C22.9206 15.3333 23.6668 16.0794 23.6668 16.9999C23.6668 17.9204 22.9206 18.6666 22.0002 18.6666H18.6668V21.9999C18.6668 22.9204 17.9206 23.6666 17.0002 23.6666C16.0797 23.6666 15.3335 22.9204 15.3335 21.9999V18.6666H12.0002C11.0797 18.6666 10.3335 17.9204 10.3335 16.9999C10.3335 16.0794 11.0797 15.3333 12.0002 15.3333H15.3335V11.9999C15.3335 11.0794 16.0797 10.3333 17.0002 10.3333C17.9206 10.3333 18.6668 11.0794 18.6668 11.9999V15.3333Z" fill="#059669"/>
</svg>
