<svg width="38" height="38" viewBox="0 0 38 38" fill="none" xmlns="http://www.w3.org/2000/svg">
    <path fill-rule="evenodd" clip-rule="evenodd" d="M18.8195 3.45484L18.9968 3.44446L19.1804 3.45484L19.2717 3.46816L19.3674 3.48835L19.5402 3.54087C19.6572 3.58413 19.7702 3.64205 19.8765 3.71477L20.0391 3.84269L20.4352 4.1818C23.5729 6.7884 27.5397 8.18846 31.6185 8.12884L32.1511 8.11276C32.8669 8.08001 33.5125 8.54049 33.7146 9.22798C35.259 14.4816 34.6068 20.1369 31.9071 24.9011C29.2074 29.6653 24.691 33.1309 19.3905 34.5058C19.1344 34.5722 18.8655 34.5722 18.6094 34.5058C13.3089 33.1309 8.79253 29.6653 6.09284 24.9011C3.39315 20.1369 2.74094 14.4816 4.28532 9.22798C4.48742 8.54049 5.13301 8.08001 5.84884 8.11276C10.1136 8.30792 14.2906 6.90173 17.5647 4.1818L17.9733 3.83117L18.1234 3.71477C18.2297 3.64205 18.3427 3.58413 18.4597 3.54087L18.6344 3.48803C18.6978 3.4726 18.7585 3.46191 18.8195 3.45484ZM18.9999 7.01447L18.7254 7.2265C15.4402 9.67828 11.4854 11.0741 7.38898 11.2276L6.97862 11.2362L6.87977 11.7185C6.15525 15.5079 6.73151 19.4446 8.53378 22.88L8.79958 23.3673C10.9993 27.2492 14.6245 30.1122 18.8949 31.3578L18.9999 31.3869L19.105 31.3578C23.2112 30.1601 26.7208 27.467 28.9402 23.8106L29.2003 23.3673C31.2106 19.8198 31.8791 15.6884 31.1201 11.7185L31.0197 11.2362L30.6109 11.2276C26.5145 11.0741 22.5597 9.67828 19.2745 7.2265L18.9999 7.01447ZM24.7666 14.789C24.1591 14.1815 23.1742 14.1815 22.5667 14.789L17.4444 19.91L15.4332 17.9001L15.2867 17.7707C14.6765 17.2962 13.7941 17.3393 13.2333 17.9001C12.6259 18.5076 12.6259 19.4925 13.2333 20.1L16.3445 23.2111L16.491 23.3405C17.1012 23.815 17.9836 23.7718 18.5443 23.2111L24.7666 16.9889L24.896 16.8423C25.3704 16.2321 25.3273 15.3497 24.7666 14.789Z" fill="#F59E0B"/>
</svg>
