<svg width="38" height="38" viewBox="0 0 38 38" fill="none" xmlns="http://www.w3.org/2000/svg">
    <path fill-rule="evenodd" clip-rule="evenodd" d="M18.8195 3.45471L18.9968 3.44434L19.1804 3.45471L19.2717 3.46804L19.3674 3.48822L19.5402 3.54075C19.6572 3.58401 19.7702 3.64192 19.8765 3.71465L20.0391 3.84257L20.4352 4.18168C23.5729 6.78828 27.5397 8.18834 31.6185 8.12872L32.1511 8.11264C32.8669 8.07989 33.5125 8.54037 33.7146 9.22786C35.259 14.4815 34.6068 20.1368 31.9071 24.901C29.2074 29.6651 24.691 33.1308 19.3905 34.5056C19.1344 34.5721 18.8655 34.5721 18.6094 34.5056C13.3089 33.1308 8.79253 29.6651 6.09284 24.901C3.39315 20.1368 2.74094 14.4815 4.28532 9.22786C4.48742 8.54037 5.13301 8.07989 5.84884 8.11264C10.1136 8.3078 14.2906 6.90161 17.5647 4.18168L17.9733 3.83105L18.1234 3.71465C18.2297 3.64192 18.3427 3.58401 18.4597 3.54075L18.6344 3.48791C18.6978 3.47248 18.7585 3.46179 18.8195 3.45471ZM18.9999 7.01435L18.7254 7.22638C15.4402 9.67815 11.4854 11.074 7.38898 11.2275L6.97862 11.2361L6.87977 11.7184C6.15525 15.5078 6.73151 19.4444 8.53378 22.8799L8.79958 23.3672C10.9993 27.2491 14.6245 30.1121 18.8949 31.3577L18.9999 31.3868L19.105 31.3577C23.2112 30.16 26.7208 27.4669 28.9402 23.8105L29.2003 23.3672C31.2106 19.8197 31.8791 15.6883 31.1201 11.7184L31.0197 11.2361L30.6109 11.2275C26.5145 11.074 22.5597 9.67815 19.2745 7.22638L18.9999 7.01435ZM24.7666 14.7888C24.1591 14.1814 23.1742 14.1814 22.5667 14.7888L17.4444 19.9099L15.4332 17.9L15.2867 17.7706C14.6765 17.2961 13.7941 17.3392 13.2333 17.9C12.6259 18.5074 12.6259 19.4924 13.2333 20.0998L16.3445 23.211L16.491 23.3404C17.1012 23.8148 17.9836 23.7717 18.5443 23.211L24.7666 16.9887L24.896 16.8422C25.3704 16.232 25.3273 15.3496 24.7666 14.7888Z" fill="#DC2626"/>
</svg>
