<svg width="38" height="38" viewBox="0 0 38 38" fill="none" xmlns="http://www.w3.org/2000/svg">
    <path fill-rule="evenodd" clip-rule="evenodd" d="M26.7698 7.8368C26.6279 5.3871 24.5964 3.44434 22.1111 3.44434H15.8889L15.6147 3.45226C13.165 3.5942 11.2222 5.62572 11.2222 8.111V9.66656H8.1111C5.53377 9.66656 3.44443 11.7559 3.44443 14.3332V20.5219C3.44398 20.5435 3.44398 20.565 3.44443 20.5865V28.3332C3.44443 30.9106 5.53377 32.9999 8.1111 32.9999H29.8889C32.4662 32.9999 34.5555 30.9106 34.5555 28.3332V20.5865C34.556 20.565 34.556 20.5435 34.5555 20.522V14.3332C34.5555 11.7559 32.4662 9.66656 29.8889 9.66656H26.7778V8.111L26.7698 7.8368ZM31.4444 19.5803V14.3332C31.4444 13.4741 30.748 12.7777 29.8889 12.7777H25.2222H12.7778H8.1111C7.25199 12.7777 6.55554 13.4741 6.55554 14.3332V19.5803C14.4459 23.2437 23.554 23.2437 31.4444 19.5803ZM6.55554 22.9759V28.3332C6.55554 29.1923 7.25199 29.8888 8.1111 29.8888H29.8889C30.748 29.8888 31.4444 29.1923 31.4444 28.3332V22.9759C23.4758 26.26 14.5241 26.26 6.55554 22.9759ZM23.6666 9.66656V8.111C23.6666 7.31326 23.0661 6.65577 22.2925 6.56591L22.1111 6.55545H15.8889C15.0911 6.55545 14.4336 7.15595 14.3438 7.92959L14.3333 8.111V9.66656H23.6666ZM19 17.4443C19.7977 17.4443 20.4552 18.0448 20.5451 18.8185L20.5555 19.0154C20.5555 19.8746 19.8591 20.571 19 20.571C18.2022 20.571 17.5448 19.9705 17.4549 19.1969L17.4444 18.9999C17.4444 18.1408 18.1409 17.4443 19 17.4443Z" fill="#059669"/>
</svg>
