<svg width="84" height="75" viewBox="0 0 84 75" fill="none" xmlns="http://www.w3.org/2000/svg">
    <path fill-rule="evenodd" clip-rule="evenodd" d="M23.7799 53.95C24.7799 53.12 25.6899 52.71 25.6499 50.71C24.0799 51.51 19.6499 51.47 17.7799 48.91C17.2499 48.18 17.7799 47.82 18.3199 48.39C19.5899 49.83 21.9399 49.18 22.7999 48.76C22.6527 48.2287 22.3781 47.7413 21.9999 47.34C22.3199 47.02 23.2299 46.55 23.4199 45.74C22.6319 45.5028 21.8205 45.3519 20.9999 45.29C21.2468 45.0741 21.4227 44.7887 21.5048 44.4711C21.5869 44.1535 21.5712 43.8186 21.4599 43.51C19.5299 44.1 17.1499 43.3 16.6099 42.59C16.0699 41.88 16.6099 41.23 17.0699 41.69C18.0699 42.69 22.7599 43.86 24.5199 42.1C23.8948 41.9336 23.3534 41.5418 22.9999 41C24.6299 40.84 25.9299 39.88 25.9999 38.68C24.9158 38.7538 23.829 38.5829 22.8199 38.18C23.1828 38.1031 23.5172 37.9267 23.7856 37.6707C24.054 37.4146 24.2459 37.0889 24.3399 36.73C21.3399 36.55 21.1199 34.34 21.1099 33.97C23.0499 35.09 26.4699 34.59 25.5799 31.84C23.9699 31.75 22.3399 29.14 26.7799 26.74C30.7799 24.56 35.3999 22.2 34.9999 18.33C34.7299 15.85 30.6499 14.16 30.1299 12.9C28.4299 13.71 28.1299 14.65 28.8499 16.23C28.8499 16.23 25.0499 16.61 24.7499 14.23C24.7494 13.6977 24.8676 13.1719 25.0959 12.691C25.3243 12.21 25.657 11.7861 26.0699 11.45C25.6399 11.45 22.7799 10.68 21.9199 13.02C20.3099 11.93 18.9199 11.96 17.8599 13.12C19.5799 14.12 20.6499 17.65 23.4999 18.69C21.4999 19.79 18.1899 19.33 16.2799 15.95C14.4699 18.68 13.4299 21.38 17.2799 24.26C10.2099 27.48 10.2799 33.62 4.11989 36.55C4.74989 38.22 6.05989 38.22 7.72989 37.96C5.06989 41.41 7.33988 45.03 3.12988 46.5C3.51988 47.91 4.30989 49.03 5.86989 48.62C5.42989 49.31 5.13988 49.29 4.44988 50.05C6.74988 51.5 9.44988 50.45 10.0999 45.8C10.2099 44.97 11.3499 45.49 10.9599 46.3C8.33988 51.72 14.9599 55.8 12.6199 59.78C14.6899 59.69 16.2599 59.53 17.1299 58.83C17.5596 59.583 17.7611 60.4446 17.7099 61.31C18.1383 61.2706 18.5387 61.0799 18.8392 60.772C19.1398 60.4641 19.3208 60.0593 19.3499 59.63C20.0999 61.81 22.7699 64.14 27.0599 64.14C24.7899 60.91 26.8999 57.62 23.6899 53.92L23.7799 53.95ZM19.4599 57.92L18.5399 59.48C18.1812 58.5009 17.7466 57.5514 17.2399 56.64C16.5099 58.16 15.3399 58.19 14.2399 58.19C14.5599 54.58 9.99989 50.93 11.9999 46.79C12.1038 46.5934 12.1675 46.378 12.1875 46.1565C12.2075 45.935 12.1833 45.7117 12.1164 45.4996C12.0494 45.2875 11.9409 45.0908 11.7974 44.9209C11.6538 44.7511 11.4779 44.6114 11.2799 44.51C8.21988 42.96 9.63989 49.4 6.57989 49.59C7.00014 48.845 7.30048 48.0385 7.46989 47.2C6.81989 47.37 5.25988 48.36 4.55988 47.09C5.27521 46.6995 5.88423 46.14 6.3339 45.4602C6.78357 44.7805 7.06026 44.0011 7.13988 43.19C7.28641 41.9998 7.57514 40.8315 7.99989 39.71C8.64711 38.5698 9.40761 37.4977 10.2699 36.51C9.95988 36.51 6.51989 37.28 5.74989 36.92C11.6999 33.27 10.3599 28.62 19.4199 24.49C17.0399 22.72 14.6099 21.32 16.3499 17.94C18.8299 20.94 23.5599 19.94 26.0999 18.5C23.5799 18 20.3299 15.78 19.5599 13.31C20.5599 13.16 21.7399 14.19 22.4499 14.67C22.7899 13.76 22.9299 12.67 24.0299 12.47C22.5599 15.63 25.4699 17.27 28.2499 17.28C28.6799 17.28 30.4799 17.1 30.4799 17.1C30.1899 16.51 29.0299 14.9 29.8799 14.24C30.5599 14.88 31.3699 15.39 32.1099 15.95C37.5099 20.13 29.5399 24 26.2799 25.76C21.1599 28.52 22.5299 31.81 24.6699 32.65C24.6699 33.02 24.4299 33.19 24.0799 33.3C22.5899 33.8 21.1799 32.73 19.9899 32.05C20.0599 34.11 19.9199 36.05 22.1999 37.23L20.6299 37.81C21.9799 38.81 22.3899 39.38 24.0199 39.59C23.2151 39.8813 22.3658 40.0302 21.5099 40.03C21.6693 40.6909 21.9398 41.3198 22.3099 41.89C18.9799 42.29 17.6499 40.38 16.6199 40.46C14.4199 40.62 14.5599 44.76 19.9699 44.76L19.4099 45.69C20.0305 46.0406 20.7072 46.2809 21.4099 46.4C21.0499 46.69 20.6999 47.08 20.4099 47.4L21.2699 48.14C19.0599 48.54 18.4399 46.14 17.0099 47.32C14.8299 49.05 19.6399 52.7 24.2599 52.16C23.6595 52.7502 23.0106 53.2888 22.3199 53.77C26.0799 57.32 24.2299 60.67 25.7699 63.12C24.3185 63.0341 22.9326 62.4859 21.8152 61.5556C20.6978 60.6253 19.9075 59.3618 19.5599 57.95" fill="#DEE0E1"/>
    <path fill-rule="evenodd" clip-rule="evenodd" d="M13.62 45C14.4 45.81 15.35 45.9 17.14 45.78C15.14 45.54 14.06 45.06 13.37 43.78C13.2622 43.061 13.1954 42.3365 13.17 41.61C13.2307 39.0577 13.9396 36.5628 15.23 34.36C15.2785 35.5422 15.739 36.6702 16.5316 37.5486C17.3242 38.4271 18.399 39.0006 19.57 39.17C16.87 37.99 15.28 35.33 16.15 32.76C16.71 31.86 17.35 30.93 18.06 29.99C18.42 29.53 18.76 29.1 19.06 28.69C18.7 30 20.28 31.36 21.35 31.58C20.77 31.02 19.54 29.19 22.35 26.14C21.5218 26.5328 20.7374 27.0122 20.01 27.57C25.19 21.97 29.45 21.81 31.41 18.99C28.57 20.93 21.07 21.99 17.7 21.06C19.56 22.3 24.05 22.19 25.14 21.96C21.48 25.52 13.5 29.19 12.14 32.46C13.4025 30.9411 15.1149 29.8626 17.03 29.38C15.7235 31.1741 14.6043 33.0975 13.69 35.12C11.57 39.73 8.69004 39.79 8.54004 43.6C9.54004 40.6 11.48 39.9 12.84 37.97C12.5821 39.3509 12.4782 40.7562 12.53 42.16C12.5641 43.7341 12.8826 45.2892 13.47 46.75C13.33 48.63 13.47 51.84 15.66 53.97C14.4681 52.2045 13.8884 50.0967 14.01 47.97C15.7 51.23 20.51 55.73 22.84 58.75C20.51 54.86 14.84 50.32 13.58 45.07" fill="#DEE0E1"/>
    <path fill-rule="evenodd" clip-rule="evenodd" d="M66.91 29.34C68.8247 29.8238 70.5366 30.9021 71.8 32.4199C70.42 29.1499 62.43 25.48 58.8 21.92C59.9 22.15 64.39 22.27 66.25 21.02C62.88 21.94 55.37 20.89 52.54 18.95C54.54 21.77 58.76 21.95 63.94 27.53C63.2129 26.9717 62.4285 26.4924 61.6 26.1C64.45 29.15 63.22 30.97 62.6 31.54C63.66 31.31 65.25 29.9599 64.89 28.65C65.23 29.0599 65.58 29.5 65.89 29.95C66.6 30.89 67.23 31.82 67.79 32.72C68.65 35.29 67.06 37.95 64.37 39.13C65.54 38.9603 66.6136 38.3863 67.4046 37.5077C68.1955 36.6291 68.6539 35.5012 68.7 34.32C69.9926 36.5219 70.7016 39.0173 70.76 41.57C70.7346 42.2965 70.6679 43.021 70.56 43.74C69.87 45.05 68.76 45.53 66.8 45.74C68.59 45.85 69.53 45.74 70.32 44.9599C69.09 50.1999 63.39 54.75 61.06 58.6399C63.39 55.6399 68.2 51.1199 69.89 47.86C70.0109 49.9866 69.4313 52.0942 68.24 53.86C70.39 51.74 70.56 48.5299 70.42 46.6399C71.0048 45.1783 71.3231 43.6238 71.36 42.0499C71.4155 40.6461 71.3115 39.2404 71.05 37.86C72.41 39.8 74.38 40.54 75.35 43.49C75.17 39.68 72.35 39.6199 70.2 35.0099C69.2878 32.9865 68.1685 31.0629 66.86 29.27" fill="#DEE0E1"/>
    <path fill-rule="evenodd" clip-rule="evenodd" d="M76.1499 38C77.8199 38.26 79.1499 38.26 79.7599 36.59C73.6099 33.66 73.6599 27.52 66.5999 24.3C70.4799 21.42 69.4399 18.71 67.5999 15.99C65.6899 19.37 62.3999 19.83 60.3799 18.73C63.2299 17.73 64.2999 14.18 66.0199 13.16C64.9999 12 63.5999 11.93 61.9999 13C61.1299 10.67 58.2799 11.43 57.8499 11.43C58.2628 11.7661 58.5955 12.19 58.8239 12.6709C59.0522 13.1518 59.1704 13.6776 59.1699 14.21C58.8699 16.55 55.0799 16.21 55.0799 16.21C55.8399 14.63 55.5099 13.69 53.7999 12.88C53.2799 14.14 49.1999 15.83 48.9399 18.31C48.5299 22.19 53.1199 24.54 57.1499 26.72C61.5899 29.12 59.9599 31.72 58.3499 31.82C57.4599 34.58 60.8799 35.07 62.8199 33.95C62.8199 34.32 62.5699 36.53 59.5899 36.71C59.6839 37.0689 59.8758 37.3945 60.1442 37.6506C60.4126 37.9067 60.747 38.083 61.1099 38.16C60.1003 38.5612 59.0139 38.732 57.9299 38.66C58.0399 39.86 59.3399 40.82 60.9299 40.98C60.585 41.5317 60.0465 41.9347 59.4199 42.11C61.1799 43.86 65.9099 42.71 66.8699 41.7C67.3099 41.24 67.8699 41.9 67.3299 42.59C66.7899 43.28 64.4099 44.11 62.4799 43.52C62.3688 43.8277 62.3523 44.1617 62.4325 44.4789C62.5127 44.7961 62.6859 45.082 62.9299 45.3C62.1262 45.3653 61.3317 45.5161 60.5599 45.75C60.7399 46.56 61.6599 47.03 61.9799 47.35C61.5876 47.7472 61.2991 48.2349 61.1399 48.77C61.9999 49.19 64.3599 49.84 65.6199 48.4C66.1299 47.83 66.6899 48.19 66.1699 48.92C64.3099 51.48 59.8699 51.52 58.2999 50.72C58.2999 52.72 59.1199 53.13 60.1699 53.97C56.9599 57.67 59.0799 60.97 56.8099 64.19C61.0899 64.19 63.8099 61.86 64.5199 59.68C64.549 60.1092 64.7301 60.5141 65.0306 60.822C65.3311 61.1298 65.7315 61.3206 66.1599 61.36C66.1127 60.4949 66.3139 59.6344 66.7399 58.88C67.6099 59.58 69.1899 59.74 71.2499 59.83C68.9099 55.83 75.5399 51.78 72.9099 46.35C72.5199 45.54 73.6599 45.02 73.7699 45.85C74.3799 50.49 77.1199 51.55 79.4199 50.1C78.7299 49.34 78.4199 49.36 77.9999 48.67C79.5499 49.08 80.3399 47.96 80.7399 46.55C76.5299 45.07 78.7999 41.46 76.1399 38.01L76.1499 38ZM76.4899 47.24C76.6503 48.0826 76.9476 48.8934 77.3699 49.64C74.3099 49.44 75.7299 43 72.6699 44.55C72.4719 44.6513 72.296 44.791 72.1524 44.9609C72.0089 45.1307 71.9004 45.3274 71.8334 45.5395C71.7665 45.7516 71.7423 45.9749 71.7623 46.1964C71.7823 46.418 71.846 46.6333 71.9499 46.83C73.9499 50.97 69.3899 54.62 69.6499 58.25C68.5199 58.25 67.3499 58.25 66.6499 56.7C66.1436 57.6115 65.709 58.5611 65.3499 59.54L64.4299 57.98C64.0809 59.391 63.2901 60.6537 62.173 61.5837C61.0559 62.5137 59.6709 63.0625 58.2199 63.15C59.7599 60.7 57.9099 57.36 61.6699 53.8C60.9786 53.3195 60.3296 52.7809 59.7299 52.19C64.3499 52.74 69.1599 49.08 66.9699 47.35C65.5399 46.22 64.9099 48.57 62.7099 48.17L63.5699 47.43C63.2699 47.13 62.9199 46.74 62.5699 46.43C63.2728 46.3116 63.9497 46.0713 64.5699 45.72L64.0099 44.79C69.4199 44.79 69.5499 40.65 67.3599 40.49C66.3599 40.41 64.9899 42.31 61.6699 41.92C62.0359 41.3476 62.3061 40.7193 62.4699 40.06C61.6141 40.06 60.7647 39.9111 59.9599 39.62C61.5899 39.41 61.9599 38.86 63.3499 37.84L61.7799 37.26C64.0599 36.12 63.9199 34.14 63.9799 32.08C62.7899 32.77 61.3799 33.83 59.8999 33.33C59.5499 33.21 59.3099 33.05 59.3099 32.68C61.4499 31.84 62.8099 28.55 57.6999 25.79C54.3999 24 46.4199 20.14 51.8299 16C52.5699 15.44 53.3699 14.93 54.0499 14.29C54.8999 14.94 53.7399 16.55 53.4499 17.15C53.4499 17.15 55.2499 17.33 55.6699 17.33C58.4499 17.33 61.3699 15.67 59.8999 12.52C61.0099 12.75 61.1399 13.81 61.4699 14.72C62.1799 14.24 63.4099 13.21 64.3599 13.36C63.5899 15.83 60.3599 18.05 57.8199 18.55C60.3699 19.94 65.0899 20.97 67.5699 17.99C69.3099 21.36 66.8899 22.77 64.4999 24.54C73.5699 28.68 72.2299 33.32 78.1799 36.97C77.4099 37.33 73.9599 36.61 73.6599 36.56C74.5272 37.546 75.2912 38.6183 75.9399 39.76C76.3705 40.8809 76.6659 42.0491 76.8199 43.24C76.9037 44.0499 77.1821 44.8275 77.6313 45.5066C78.0805 46.1857 78.6873 46.7461 79.3999 47.14C78.6999 48.41 77.1499 47.42 76.4999 47.25" fill="#DEE0E1"/>
    <path fill-rule="evenodd" clip-rule="evenodd" d="M33.3199 57.3699L34.6099 56.27L34.4099 55.8699C34.2699 55.5899 34.3399 55.5699 34.4899 55.4599L35.1699 54.95C35.2435 54.895 35.3298 54.8598 35.4208 54.8475C35.5118 54.8353 35.6044 54.8465 35.6899 54.88L37.6899 55.36H35.5799C35.3957 55.3521 35.2141 55.4059 35.0638 55.5127C34.9135 55.6195 34.8031 55.7734 34.7499 55.95L34.5999 56.2599L34.0399 57.4C33.9099 57.6413 33.8602 57.9178 33.898 58.1893C33.9357 58.4608 34.059 58.7132 34.2499 58.91L34.6399 59.3699L33.8599 61H34.5299L35.0799 59.88C35.5408 59.4577 35.8852 58.9239 36.0799 58.33C35.8499 58.14 35.6799 58.01 35.8099 57.74L36.0599 57.2099C36.1399 57.0299 36.1699 56.9599 36.4099 57.0099L38.5599 57.4799C38.7207 57.5605 38.9051 57.5806 39.0795 57.5365C39.2539 57.4925 39.4066 57.3872 39.5099 57.24C39.8099 56.79 39.8499 56.84 40.5099 56.91L41.6099 57.0299C42.8475 57.1892 44.1034 56.9436 45.1899 56.33C45.4362 56.7399 45.7032 57.1371 45.9899 57.52C46.0599 57.65 45.9899 57.84 45.8499 58.08L44.6599 61H46.5599L47.6399 58.31C47.7176 58.0993 47.8405 57.9081 47.9999 57.75L47.3799 61H49.2199L49.7099 57.7799C49.8199 57.0699 49.7099 56.84 49.4099 56.54C48.6399 55.89 48.6599 54.54 48.4099 53.7C48.5494 53.6209 48.7109 53.5893 48.8699 53.61C49.2699 53.61 49.5699 54.68 50.0499 55.33C50.9899 56.66 52.2799 58.12 53.7599 56.06C53.6185 55.8302 53.4579 55.6127 53.2799 55.41L52.8699 54.93C52.6299 54.66 51.4899 53.36 51.0099 52.93C50.5684 52.4911 49.9923 52.2132 49.374 52.1406C48.7557 52.0681 48.131 52.2052 47.5999 52.5299C46.0999 51.7499 44.5199 52.5299 44.1399 52.5299L41.5599 52.3699C41.4746 52.3668 41.3914 52.3422 41.318 52.2985C41.2446 52.2549 41.1834 52.1935 41.1399 52.1199L41.6199 51.9599C41.1699 50.0899 40.0399 48.5199 38.0699 48.2599C38.0699 48.2599 37.9499 47.6699 37.6599 47.5499L37.0699 48.25C36.8979 48.2747 36.7298 48.3218 36.5699 48.3899L34.0499 47.45L35.9399 49.36C35.9399 49.36 34.9999 50.72 34.6899 51C34.5977 51.0951 34.5461 51.2224 34.5461 51.3549C34.5461 51.4875 34.5977 51.6148 34.6899 51.7099L35.0599 52.1899C35.2499 52.4399 35.4599 52.43 35.7599 52.27L36.1699 52.06C36.3499 51.91 36.9599 52.21 37.1699 51.97C37.0645 52.4598 37.0076 52.9589 36.9999 53.4599L35.2999 53.2599C35.1665 53.2262 35.027 53.2249 34.893 53.2562C34.759 53.2875 34.6345 53.3505 34.5299 53.4399L33.0799 54.5499C32.8438 54.734 32.6809 54.996 32.6205 55.2892C32.56 55.5824 32.6059 55.8875 32.7499 56.15L33.3199 57.3699ZM47.3199 57.6899L46.1699 60.52H45.4599L46.6099 57.7799C46.7299 57.4299 46.4999 57.2599 46.2199 56.8699C46.6192 57.1043 47.0373 57.305 47.4699 57.47C47.4165 57.5388 47.3696 57.6124 47.3299 57.6899H47.3199ZM36.2499 51.5499L35.9199 51.72C35.6899 51.85 35.5799 51.91 35.3799 51.66L35.2399 51.4799C35.1947 51.409 35.175 51.3248 35.1841 51.2412C35.1932 51.1575 35.2305 51.0795 35.2899 51.02L36.6999 49.3699L35.3999 48.2999L37.0599 48.91L37.6699 48.15C37.8499 48.3 37.7899 48.74 37.7899 48.74C38.5658 48.8975 39.2612 49.324 39.7533 49.9442C40.2455 50.5644 40.5028 51.3385 40.4799 52.13C40.7103 52.4817 41.0692 52.7294 41.4799 52.82L44.3499 52.99C44.8199 52.99 46.0099 52.08 47.5399 52.99C47.908 52.7472 48.3241 52.5869 48.7599 52.52C49.3811 52.5358 49.9884 52.707 50.5265 53.0179C51.0645 53.3289 51.516 53.7696 51.8399 54.2999C52.3799 54.9799 53.1199 56.0299 53.1199 56.0299C52.7999 56.4099 52.4899 56.5299 52.2299 56.4399C52.0507 56.336 51.8984 56.1913 51.7855 56.0175C51.6726 55.8438 51.6022 55.646 51.5799 55.4399C51.3696 54.9218 51.0243 54.4694 50.5799 54.13C50.7914 54.6086 50.9393 55.1129 51.0199 55.63C49.8999 54.52 49.6899 53.1599 48.8999 52.9799C48.6835 52.9471 48.4622 52.9767 48.262 53.0653C48.0619 53.1539 47.8911 53.2977 47.7699 53.4799C48.1699 54.4 48.1499 55.4799 48.5499 56.1699C48.8599 56.6999 48.9199 56.7499 49.0599 56.8699C49.3899 57.1099 49.1999 57.5299 49.1499 57.8699L48.7199 60.5299H47.9999L48.4699 57.9199C48.6099 57.1299 46.3799 57.13 45.2399 55.61C44.2399 56.75 41.5399 56.4599 40.3599 56.2799C40.1411 56.2008 39.9015 56.2005 39.6825 56.279C39.4635 56.3575 39.2787 56.5099 39.1599 56.7099C39.0099 56.9799 38.7499 56.9 38.5899 56.86L36.4399 56.4C36.3721 56.3699 36.2987 56.3547 36.2245 56.3554C36.1504 56.356 36.0772 56.3725 36.01 56.4038C35.9427 56.435 35.883 56.4803 35.8347 56.5366C35.7863 56.5928 35.7506 56.6588 35.7299 56.7299L35.2999 57.6199C35.2453 57.7025 35.2232 57.8024 35.238 57.9003C35.2528 57.9982 35.3033 58.0872 35.3799 58.15L35.5899 58.3699C35.4879 58.66 35.3122 58.9185 35.0799 59.1199L34.6099 58.59C34.5066 58.4459 34.4462 58.2755 34.4356 58.0986C34.425 57.9217 34.4646 57.7453 34.5499 57.59L35.2499 56.1399C35.2948 56.0401 35.368 55.9557 35.4605 55.897C35.5529 55.8384 35.6605 55.8081 35.7699 55.81H38.4299L37.6099 54.4799C36.9999 53.4799 38.0099 51.7099 37.8599 50.8699C37.7799 51.9899 36.4299 51.48 36.2099 51.63L36.2499 51.5499ZM33.3499 54.9L34.6099 53.9C34.6893 53.8136 34.7872 53.7462 34.8963 53.7029C35.0054 53.6597 35.1228 53.6415 35.2399 53.65L37.0199 53.88C37.1 54.1819 37.2283 54.4689 37.3999 54.7299L35.5099 54.33C35.4045 54.3044 35.2944 54.3057 35.1896 54.3337C35.0848 54.3616 34.9886 54.4153 34.9099 54.49L34.0099 55.1699C33.9296 55.2412 33.8773 55.3388 33.8627 55.4452C33.848 55.5515 33.8718 55.6596 33.9299 55.75L34.0799 56.06L33.4499 56.5299L33.2099 56.08C32.9699 55.6 32.9499 55.1599 33.3499 54.8499" fill="#DEE0E1"/>
    <path fill-rule="evenodd" clip-rule="evenodd" d="M38.8401 20.72C39.4485 21.1048 40.0872 21.4392 40.7501 21.72V20.91L38.0601 19.91C38.0601 19.91 38.0601 20.24 38.8401 20.77" fill="#DEE0E1"/>
    <path fill-rule="evenodd" clip-rule="evenodd" d="M40.75 19.74V18.93L37.7 17.84C38.0489 18.1832 38.4308 18.4913 38.84 18.76C39.4478 19.1456 40.0867 19.4801 40.75 19.76" fill="#DEE0E1"/>
    <path fill-rule="evenodd" clip-rule="evenodd" d="M40.7499 17.9V17.08L37.4099 15.85C37.4099 15.85 38.0599 16.38 38.8399 16.91C39.4483 17.2947 40.0871 17.6292 40.7499 17.91" fill="#DEE0E1"/>
    <path fill-rule="evenodd" clip-rule="evenodd" d="M50.1399 29.0001H53.5599C53.4317 28.6719 53.1981 28.3956 52.8958 28.2146C52.5935 28.0336 52.2397 27.9582 51.8899 28.0001C51.5342 27.9882 51.1821 28.0754 50.8731 28.252C50.5641 28.4285 50.3102 28.6875 50.1399 29.0001Z" fill="#DEE0E1"/>
    <path fill-rule="evenodd" clip-rule="evenodd" d="M46.56 15.86L43.22 17.09V17.91C43.8835 17.6307 44.5224 17.2962 45.13 16.91C45.91 16.38 46.56 15.85 46.56 15.85" fill="#DEE0E1"/>
    <path fill-rule="evenodd" clip-rule="evenodd" d="M45.91 19.8699L43.22 20.8699V21.6799C43.8828 21.3991 44.5215 21.0646 45.13 20.6799C45.91 20.1499 45.91 19.8199 45.91 19.8199" fill="#DEE0E1"/>
    <path fill-rule="evenodd" clip-rule="evenodd" d="M46.28 17.8399L43.28 18.9299V19.7399C43.9437 19.4609 44.5826 19.1264 45.19 18.7399C45.5995 18.4717 45.9814 18.1635 46.33 17.8199" fill="#DEE0E1"/>
    <path fill-rule="evenodd" clip-rule="evenodd" d="M32.0799 27.9999C31.7299 27.9563 31.3753 28.031 31.0726 28.2122C30.77 28.3935 30.5367 28.6708 30.4099 28.9999H33.8299C33.6587 28.6882 33.4046 28.4298 33.0958 28.2534C32.787 28.0769 32.4354 27.9892 32.0799 27.9999Z" fill="#DEE0E1"/>
    <path fill-rule="evenodd" clip-rule="evenodd" d="M48.7701 13.67C48.7701 11.75 45.5401 10.03 41.9801 10.03C38.4201 10.03 35.1901 11.75 35.1901 13.67L35.2701 14.14L36.6901 22.3L30.0001 26.23C29.5257 26.54 29.1226 26.9473 28.8174 27.4248C28.5123 27.9023 28.3121 28.4393 28.2301 29H29.4601C29.5474 28.3188 29.8881 27.6955 30.4145 27.2544C30.9409 26.8133 31.6142 26.5868 32.3001 26.62C33.8501 26.7 34.7701 27.62 35.6901 29L35.9301 29.36L36.2701 29.89H26.3701C27.2002 31.3223 27.6863 32.9278 27.7901 34.58V55.14C27.7901 60.44 31.8601 62.96 36.2701 62.96C39.6701 62.96 40.1301 62.81 42.0101 64.68C43.8801 62.8 44.3401 62.96 47.7501 62.96C52.1501 62.96 56.2201 60.44 56.2201 55.14V34.55C56.3201 32.8985 56.8028 31.2929 57.6301 29.86H47.7201L48.0601 29.33L48.3001 28.97C49.2101 27.62 50.1301 26.68 51.6901 26.59C52.3773 26.5627 53.0495 26.7957 53.5723 27.2425C54.0951 27.6893 54.43 28.317 54.5101 29H55.7401C55.6617 28.4418 55.4661 27.9064 55.1662 27.429C54.8663 26.9517 54.469 26.5431 54.0001 26.23L47.2701 22.31L48.6901 14.15L48.7701 13.67ZM36.5701 14.61L41.5701 16.32V24.18L37.8701 22.23L36.5701 14.61ZM37.8001 31.29C38.5397 32.2516 39.6078 32.9067 40.8001 33.13C40.9252 33.6865 41.2311 34.1859 41.6701 34.55C41.5916 34.8758 41.5786 35.2139 41.6319 35.5448C41.6851 35.8756 41.8036 36.1926 41.9803 36.4773C42.1571 36.762 42.3887 37.0087 42.6616 37.2032C42.9345 37.3976 43.2433 37.5359 43.5701 37.61C43.6403 37.9591 43.8025 38.2831 44.0398 38.5486C44.2772 38.814 44.581 39.0113 44.9201 39.12L43.8701 40.33C43.7087 40.5301 43.4995 40.6863 43.2618 40.7842C43.0241 40.882 42.7656 40.9184 42.5101 40.89L37.8201 40.36C38.0201 39.84 37.4801 39.23 36.0001 39.49L37.8401 34.34L36.7101 31.94L34.5801 33.76L34.4201 39.17L33.5201 38.72C32.3301 38.21 31.9801 40.36 33.1101 40.37H33.5601C33.5362 40.4707 33.5435 40.5763 33.581 40.6727C33.6185 40.7692 33.6845 40.852 33.7701 40.91C33.7163 40.9432 33.672 40.9895 33.6412 41.0446C33.6104 41.0998 33.5942 41.1619 33.5942 41.225C33.5942 41.2882 33.6104 41.3503 33.6412 41.4054C33.672 41.4606 33.7163 41.5069 33.7701 41.54C33.7085 41.5733 33.6558 41.6207 33.6162 41.6784C33.5766 41.7361 33.5514 41.8025 33.5426 41.8719C33.5338 41.9413 33.5417 42.0118 33.5656 42.0776C33.5895 42.1434 33.6288 42.2025 33.6801 42.25C33.6 42.3796 33.5505 42.5257 33.5354 42.6772C33.5203 42.8288 33.5401 42.9818 33.5931 43.1246C33.6462 43.2673 33.7311 43.3961 33.8415 43.501C33.9519 43.6059 34.0848 43.6843 34.2301 43.73C34.9001 43.91 35.3201 43.18 35.4601 42.73L42.7601 44.99C43.2117 45.1508 43.7 45.1778 44.1665 45.0678C44.633 44.9578 45.0579 44.7155 45.3901 44.37L47.2901 42.7C47.1434 43.1536 47.1636 43.6447 47.3469 44.0847C47.5303 44.5247 47.8648 44.8848 48.2901 45.1C48.2294 45.5708 48.2027 46.0454 48.2101 46.52H29.2101V34.52C29.169 33.3966 28.9286 32.2894 28.5001 31.25L37.8001 31.29ZM45.6501 35.85C45.4535 36.2326 45.3603 36.6599 45.3796 37.0896C45.3989 37.5194 45.53 37.9366 45.7601 38.3L45.4501 38.61C44.0801 38.44 43.5401 36.4 43.5401 36.4C43.526 36.5798 43.526 36.7603 43.5401 36.94C43.1361 36.7965 42.7921 36.5211 42.5636 36.1584C42.335 35.7956 42.2352 35.3664 42.2801 34.94C42.5919 35.1109 42.9298 35.2292 43.2801 35.29L43.3701 34.69C42.9708 34.6377 42.595 34.4712 42.2881 34.2104C41.9812 33.9496 41.7562 33.6057 41.6401 33.22H41.5101H42.0201C42.5545 33.221 43.0863 33.1469 43.6001 33C43.8143 33.2892 44.0854 33.5315 44.3966 33.712C44.7079 33.8926 45.0528 34.0076 45.4101 34.05C45.2997 34.6538 45.3838 35.277 45.6501 35.83V35.85ZM47.6501 41.23C47.5069 41.4194 47.3985 41.6327 47.3301 41.86L46.5701 42.56C46.6017 41.9952 46.5026 41.4308 46.2806 40.9105C46.0586 40.3902 45.7197 39.9281 45.2901 39.56L46.1001 38.76L46.2601 38.92C46.2006 39.161 46.1893 39.4115 46.2271 39.6569C46.2648 39.9022 46.3508 40.1377 46.48 40.3497C46.6092 40.5617 46.7792 40.7459 46.98 40.8919C47.1808 41.0378 47.4086 41.1426 47.6501 41.2V41.23ZM44.0001 40.89L44.6301 40.28C45.0648 40.6409 45.4036 41.1036 45.6165 41.627C45.8293 42.1503 45.9096 42.7182 45.8501 43.28L45.1701 43.91C45.0398 44.036 44.8955 44.1468 44.7401 44.24C44.8927 43.6654 44.9061 43.0626 44.7791 42.4817C44.6521 41.9009 44.3885 41.3586 44.0101 40.9L44.0001 40.89ZM42.6601 41.42C42.8949 41.4496 43.1334 41.4151 43.3501 41.32C43.6578 41.7924 43.8443 42.3333 43.8932 42.895C43.942 43.4566 43.8517 44.0216 43.6301 44.54C43.3118 44.5375 42.9954 44.4903 42.6901 44.4L42.4501 44.33C42.8652 43.4154 42.9327 42.3809 42.6401 41.42H42.6601ZM41.0501 41.22L41.9401 41.33C42.1012 42.2615 41.9537 43.2201 41.5201 44.06L40.5201 43.76C40.9745 42.9915 41.174 42.0989 41.0901 41.21L41.0501 41.22ZM39.2101 41L40.2801 41.13C40.3609 41.975 40.1867 42.8249 39.7801 43.57L38.6901 43.25C39.1108 42.5795 39.2939 41.7871 39.2101 41ZM34.8601 40.71C34.7801 40.7491 34.6909 40.7656 34.6022 40.7578C34.5135 40.75 34.4286 40.7182 34.3566 40.6657C34.2846 40.6133 34.2283 40.5422 34.1937 40.4602C34.1591 40.3781 34.1475 40.2882 34.1601 40.2C34.4235 40.0588 34.7196 39.99 35.0182 40.0005C35.3168 40.0111 35.6074 40.1006 35.8601 40.26C36.1201 40.43 36.3401 40.9 36.7001 41.19C36.6306 41.6555 36.5202 42.114 36.3701 42.56C36.1801 42.5501 35.9968 42.4862 35.8418 42.3758C35.6868 42.2654 35.5665 42.113 35.4951 41.9366C35.4237 41.7602 35.4041 41.567 35.4387 41.3799C35.4732 41.1927 35.5604 41.0193 35.6901 40.88C35.5934 40.7564 35.4563 40.6706 35.3028 40.6377C35.1492 40.6048 34.989 40.6269 34.8501 40.7L34.8601 40.71ZM34.1501 42.7C34.3676 42.7868 34.5968 42.8407 34.8301 42.86C34.8255 42.9143 34.8095 42.9669 34.7832 43.0147C34.757 43.0624 34.721 43.104 34.6777 43.137C34.6344 43.17 34.5846 43.1935 34.5316 43.2061C34.4787 43.2187 34.4236 43.22 34.3701 43.21C34.3201 43.1938 34.2742 43.1671 34.2354 43.1317C34.1965 43.0963 34.1657 43.053 34.1449 43.0047C34.1241 42.9565 34.1138 42.9044 34.1147 42.8518C34.1156 42.7993 34.1277 42.7475 34.1501 42.7ZM33.1501 39.83C33.0926 39.8012 33.0467 39.7535 33.0203 39.6949C32.9938 39.6363 32.9883 39.5703 33.0047 39.5081C33.0212 39.4459 33.0585 39.3913 33.1105 39.3534C33.1624 39.3155 33.2259 39.2967 33.2901 39.3C33.5901 39.3 33.9901 39.65 34.3901 39.82C33.9795 39.8872 33.5607 39.8872 33.1501 39.82V39.83ZM34.1501 41.91C34.3601 42.12 35.0101 42.04 35.0101 42.04V42.17C34.7301 42.55 33.9401 42.38 34.1201 41.91H34.1501ZM34.9901 41.48C34.5201 41.67 34.0501 41.41 34.2001 41.11C34.4101 41.31 35.0201 41.21 35.0201 41.21L34.9901 41.48ZM35.6701 36.08L34.7801 39.32L35.0801 34.09L36.4601 32.91L37.1601 34.45L35.3901 39.53L35.8601 36.11C35.8601 35.87 35.7101 35.84 35.6701 36.11V36.08ZM35.8101 40C36.2344 39.972 36.6604 39.9921 37.0801 40.06C37.2901 40.15 37.1501 40.49 36.8801 40.46C36.5085 40.344 36.1499 40.1899 35.8101 40ZM37.3601 40.79L38.4401 40.92C38.5081 41.642 38.3546 42.3675 38.0001 43L37.0001 42.7C37.2417 42.0588 37.3834 41.3843 37.4201 40.7L37.3601 40.79ZM54.8301 55.08C54.8781 56.187 54.615 57.2852 54.0706 58.2503C53.5262 59.2153 52.7223 60.0086 51.7501 60.54L52.4401 59.14H51.7701L50.8901 60.94C49.8949 61.3077 48.841 61.4907 47.7801 61.48C44.2701 61.48 43.3401 61.62 42.0401 62.92C40.7301 61.63 39.8101 61.48 36.3001 61.48C35.2434 61.4901 34.1935 61.3106 33.2001 60.95L34.0801 59.15H33.4001L32.6201 60.73C32.4401 60.64 32.2601 60.55 32.0801 60.45L32.7201 59.16H32.0601L31.5801 60.16C30.8091 59.5801 30.1893 58.8229 29.7733 57.9525C29.3572 57.0821 29.1572 56.1242 29.1901 55.16V47.27H54.7701L54.8301 55.08ZM55.5401 31.23C55.104 32.2674 54.8601 33.3754 54.8201 34.5V46.5H53.4201C52.8741 45.6905 52.4778 44.7896 52.2501 43.84C52.1311 44.2882 52.1069 44.7563 52.1792 45.2144C52.2516 45.6724 52.4188 46.1103 52.6701 46.5H50.8701C50.4709 45.6319 50.1916 44.7135 50.0401 43.77C49.5001 44.38 49.8401 46.04 50.1801 46.5H48.9901C48.9576 45.9015 49.0149 45.3015 49.1601 44.72C48.5401 44.6 47.8701 44.27 47.8701 43.58C47.9787 43.7011 48.117 43.7915 48.2714 43.8424C48.4258 43.8933 48.5909 43.9028 48.7501 43.87L49.2601 43.47C47.5701 43.52 47.5001 41.68 48.8301 40.81C47.5001 40.81 46.5001 40.06 46.9901 38.64C46.7659 38.4963 46.5726 38.3092 46.4217 38.0897C46.2708 37.8702 46.1652 37.6228 46.1112 37.362C46.0571 37.1012 46.0557 36.8322 46.1071 36.5709C46.1584 36.3095 46.2614 36.061 46.4101 35.84C46.1615 35.5032 46.0057 35.1071 45.9583 34.6911C45.9109 34.2752 45.9736 33.8541 46.1401 33.47C45.4519 33.4772 44.788 33.2152 44.2901 32.74H44.1801C44.975 32.4191 45.6667 31.8865 46.1801 31.2L55.5401 31.23ZM50.4501 25.45C49.0601 25.69 47.8701 27.39 46.8901 28.92L46.7801 29.1H45.7801V29.28C45.6701 30.46 44.5501 32.06 42.0801 32.06C41.1469 32.0902 40.232 31.797 39.4901 31.23C39.0241 30.8656 38.6761 30.3716 38.4901 29.81C38.4342 29.6379 38.3973 29.4602 38.3801 29.28V29.1H37.3801L37.1301 29C36.1301 27.47 34.9601 25.78 33.5801 25.53L37.3501 23.34L42.0001 25.84L46.6301 23.32L50.4501 25.45ZM46.1201 22.17L42.4201 24.12V16.32L47.4201 14.61L46.1201 22.17ZM42.0001 15.45L36.5001 13.29C36.9601 12.19 39.1201 11.29 41.9901 11.29C44.8601 11.29 46.9901 12.23 47.4801 13.29L42.0001 15.45Z" fill="#DEE0E1"/>
    <path fill-rule="evenodd" clip-rule="evenodd" d="M54.1899 39.0001V38.4001C52.3499 38.4001 51.9199 36.1801 51.9199 36.1801C51.8235 36.5211 51.8101 36.8803 51.8809 37.2275C51.9517 37.5748 52.1046 37.9001 52.3269 38.1761C52.5491 38.4522 52.8342 38.6711 53.1583 38.8144C53.4824 38.9578 53.8362 39.0214 54.1899 39.0001Z" fill="#DEE0E1"/>
    <path fill-rule="evenodd" clip-rule="evenodd" d="M51.86 42.74L51.67 42.17C50.1 42.57 49.29 40.08 49.29 40.08C49.1817 40.4408 49.1714 40.8239 49.2603 41.19C49.3492 41.5561 49.534 41.8919 49.7958 42.1628C50.0576 42.4338 50.3868 42.63 50.7496 42.7315C51.1124 42.8329 51.4957 42.8358 51.86 42.74Z" fill="#DEE0E1"/>
    <path fill-rule="evenodd" clip-rule="evenodd" d="M53.0001 40.42C51.1201 40.72 50.3501 38.53 50.3501 38.53C50.2928 38.816 50.2949 39.1107 50.3561 39.3958C50.4174 39.6809 50.5366 39.9505 50.7063 40.1877C50.876 40.4248 51.0926 40.6247 51.3426 40.7747C51.5927 40.9248 51.8709 41.0219 52.1601 41.06C52.0899 41.3715 52.1116 41.6966 52.2225 41.996C52.3334 42.2954 52.5288 42.5561 52.785 42.7467C53.0411 42.9372 53.3471 43.0493 53.6657 43.0695C53.9843 43.0896 54.302 43.0168 54.5801 42.86L54.4001 42.32C54.1501 42.4157 53.8756 42.4265 53.6188 42.3508C53.3621 42.2751 53.1373 42.117 52.9793 41.901C52.8212 41.685 52.7386 41.4229 52.7442 41.1553C52.7498 40.8877 52.8432 40.6293 53.0101 40.42" fill="#DEE0E1"/>
    <path fill-rule="evenodd" clip-rule="evenodd" d="M51.8299 34.17V33.57C49.3499 33.06 49.5599 31.35 49.5599 31.35C49.4638 31.6902 49.4504 32.0484 49.5206 32.3948C49.5909 32.7412 49.7429 33.0659 49.964 33.3417C50.1851 33.6176 50.4688 33.8366 50.7916 33.9807C51.1144 34.1248 51.467 34.1897 51.8199 34.17" fill="#DEE0E1"/>
    <path fill-rule="evenodd" clip-rule="evenodd" d="M36.09 59.2L35.2 61H35.87L36.76 59.2H36.09Z" fill="#DEE0E1"/>
    <path fill-rule="evenodd" clip-rule="evenodd" d="M37.43 59.2L36.54 61H37.22L38.1 59.2H37.43Z" fill="#DEE0E1"/>
    <path fill-rule="evenodd" clip-rule="evenodd" d="M42.8099 59.2L41.9199 61H42.5899L43.4799 59.2H42.8099Z" fill="#DEE0E1"/>
    <path fill-rule="evenodd" clip-rule="evenodd" d="M44.16 59.2L43.27 61H43.94L44.82 59.2H44.16Z" fill="#DEE0E1"/>
    <path fill-rule="evenodd" clip-rule="evenodd" d="M41.4701 59.2L40.5801 61H41.2501L42.1401 59.2H41.4701Z" fill="#DEE0E1"/>
    <path fill-rule="evenodd" clip-rule="evenodd" d="M49.3201 61H49.9901L50.8801 59.2H50.2101L49.3201 61Z" fill="#DEE0E1"/>
    <path fill-rule="evenodd" clip-rule="evenodd" d="M38.7799 59.2L37.8899 61H38.5599L39.4499 59.2H38.7799Z" fill="#DEE0E1"/>
    <path fill-rule="evenodd" clip-rule="evenodd" d="M40.12 59.2L39.23 61H39.91L40.79 59.2H40.12Z" fill="#DEE0E1"/>
    <path fill-rule="evenodd" clip-rule="evenodd" d="M37.08 49.5C37.0236 49.4897 36.9654 49.4971 36.9133 49.521C36.8612 49.5449 36.8176 49.5842 36.7886 49.6336C36.7595 49.6831 36.7464 49.7402 36.7509 49.7974C36.7553 49.8545 36.7773 49.9089 36.8136 49.9532C36.85 49.9975 36.8991 50.0296 36.9543 50.0451C37.0095 50.0606 37.0681 50.0587 37.1223 50.0398C37.1764 50.021 37.2234 49.9859 37.257 49.9394C37.2905 49.893 37.309 49.8373 37.31 49.78C37.3156 49.7126 37.2947 49.6456 37.2518 49.5933C37.2088 49.541 37.1472 49.5075 37.08 49.5Z" fill="#DEE0E1"/>
    <path fill-rule="evenodd" clip-rule="evenodd" d="M42 8.81001C44.2124 8.74982 46.3835 9.4173 48.18 10.71C48.4622 9.25505 49.0041 7.86282 49.78 6.60001L47.56 6.85001L46.4 4.38001L44.17 5.54001L42 3.39001L39.84 5.54001L37.59 4.38001L36.42 6.85001L34.21 6.60001C34.9878 7.86183 35.5299 9.25444 35.81 10.71C37.6092 9.4152 39.7841 8.74761 42 8.81001ZM36.82 7.81001L37.88 5.57001L39.88 6.57001L42 4.49001L44.17 6.63001L46.17 5.63001L47.17 7.87001L48.47 7.67001C48.1304 8.28662 47.8556 8.93676 47.65 9.61001C45.9199 8.64403 43.9714 8.1369 41.99 8.1369C40.0085 8.1369 38.06 8.64403 36.33 9.61001C36.125 8.93654 35.8502 8.28634 35.51 7.67001L36.82 7.81001Z" fill="#DEE0E1"/>
    <path fill-rule="evenodd" clip-rule="evenodd" d="M44.2601 4.39004C44.3376 4.39689 44.4157 4.38834 44.4899 4.36486C44.5642 4.34139 44.633 4.30346 44.6925 4.25327C44.752 4.20307 44.8009 4.1416 44.8366 4.0724C44.8722 4.00319 44.8938 3.92763 44.9001 3.85004C44.8225 3.4343 44.6736 3.03509 44.4601 2.67004C44.4601 2.67004 43.7501 3.43004 43.7301 3.75004C43.7189 3.90341 43.768 4.05509 43.867 4.17276C43.966 4.29044 44.1071 4.36481 44.2601 4.38004" fill="#DEE0E1"/>
    <path fill-rule="evenodd" clip-rule="evenodd" d="M47.8901 5.70996C48.0282 5.78047 48.1885 5.79377 48.3364 5.74698C48.4842 5.7002 48.6077 5.59709 48.6801 5.45996C48.7692 5.04935 48.7861 4.62637 48.7301 4.20996C48.7301 4.20996 47.7901 4.62996 47.6401 4.91996C47.5722 5.05852 47.5603 5.21793 47.6068 5.36505C47.6534 5.51217 47.7548 5.63569 47.8901 5.70996Z" fill="#DEE0E1"/>
    <path fill-rule="evenodd" clip-rule="evenodd" d="M39.7201 4.39005C39.8749 4.37728 40.0185 4.30397 40.1196 4.18602C40.2207 4.06807 40.2712 3.91501 40.2601 3.76005C40.2601 3.43005 39.5301 2.68005 39.5301 2.68005C39.3171 3.04535 39.1682 3.44447 39.0901 3.86005C39.1029 4.01488 39.1762 4.15841 39.2941 4.25951C39.4121 4.36061 39.5651 4.41111 39.7201 4.40005" fill="#DEE0E1"/>
    <path fill-rule="evenodd" clip-rule="evenodd" d="M36.0799 5.70996C36.2153 5.63584 36.3162 5.51162 36.3611 5.36394C36.406 5.21625 36.3912 5.05686 36.3199 4.91996C36.1699 4.62996 35.2299 4.20996 35.2299 4.20996C35.177 4.62694 35.1973 5.04996 35.2899 5.45996C35.3248 5.52881 35.373 5.59001 35.4318 5.63997C35.4906 5.68994 35.5588 5.72767 35.6324 5.75095C35.7059 5.77424 35.7834 5.7826 35.8603 5.77556C35.9371 5.76852 36.0118 5.74622 36.0799 5.70996Z" fill="#DEE0E1"/>
    <path fill-rule="evenodd" clip-rule="evenodd" d="M79.72 25.7099C80.4778 25.3838 81.0774 24.7734 81.39 24.0099C79.39 23.7199 74.18 21.5299 69.87 23.3199C71.48 21.7899 72.93 21.5899 73.07 19.3899C73.2444 19.5532 73.454 19.6742 73.6826 19.7437C73.9112 19.8131 74.1527 19.8292 74.3884 19.7905C74.6242 19.7519 74.8479 19.6596 75.0424 19.5208C75.2368 19.382 75.3968 19.2004 75.51 18.9899C75.07 17.6799 73.94 18.7399 73.79 18.3799C73.64 18.0199 75.2 18.5399 75.56 16.8299C74.29 16.3899 73.91 17.4299 73.68 17.1899C73.45 16.9499 74.49 16.5199 73.74 15.1899C72.42 15.9599 73.11 16.8399 72.83 16.9299C72.55 17.0199 72.76 15.9999 71.29 16.0499C71.15 17.6199 72.67 17.6699 72.41 17.9199C72.15 18.1699 71.72 17.0199 70.61 17.6299C70.5915 17.8944 70.6378 18.1593 70.7449 18.4018C70.852 18.6443 71.0166 18.857 71.2244 19.0216C71.4323 19.1861 71.6771 19.2974 71.9377 19.3459C72.1983 19.3944 72.4668 19.3786 72.72 19.2999C72.55 21.7099 70.34 21.2999 68.72 23.9799C72.21 25.7699 73.78 28.8899 75.93 31.0399C76.6914 30.218 77.3373 29.2962 77.85 28.2999C78.1121 28.5636 78.4237 28.7728 78.7669 28.9156C79.1101 29.0584 79.4782 29.1319 79.85 29.1319C80.2217 29.1319 80.5898 29.0584 80.933 28.9156C81.2763 28.7728 81.5879 28.5636 81.85 28.2999C81.05 27.4799 81.02 26.8599 79.8 25.7399L79.72 25.7099ZM76.42 26.1799C76.6792 26.7967 76.7767 27.4695 76.7032 28.1345C76.6297 28.7994 76.3876 29.4347 76 29.9799C74.9645 27.7357 73.4203 25.7636 71.49 24.2199C71.17 24.0199 71.66 23.6499 72.55 23.5399C75.24 23.0299 78.38 24.1699 79.88 24.5399C79.3073 25.0054 78.6132 25.2969 77.88 25.3799C78.8126 26.1033 79.6347 26.959 80.32 27.9199C79.26 28.1799 78.67 27.5199 76.4 26.1499" fill="#DEE0E1"/>
    <path fill-rule="evenodd" clip-rule="evenodd" d="M53.94 66.35V63.41C51.1098 64.6601 48.0858 65.4144 45 65.64L44.83 66.69C45.15 66.69 45.55 66.77 46.08 66.81C43.3329 67.1874 40.5471 67.1874 37.8 66.81C38.33 66.81 38.73 66.74 39.05 66.69L38.88 65.64C35.8144 65.4092 32.811 64.655 30 63.41V66.35L27 67.62C29.5459 68.9018 32.23 69.8882 35 70.56L34.64 71.79C39.5053 73.1605 44.6547 73.1605 49.52 71.79L49.16 70.56C51.93 69.8881 54.6141 68.9017 57.16 67.62L53.94 66.35ZM28.6 67.69L30.68 66.85V64.45C32.5037 65.1216 34.3802 65.64 36.29 66L35.11 69.85C32.8728 69.342 30.692 68.6117 28.6 67.67V67.69ZM42 72.12C39.7716 72.1061 37.5527 71.8275 35.39 71.29L36.64 67.29C40.1854 67.883 43.8046 67.883 47.35 67.29L48.6 71.29C46.4371 71.8263 44.2183 72.1049 41.99 72.12H42ZM48.87 69.87L47.68 66C49.5904 65.6335 51.4669 65.1084 53.29 64.43V66.83L55.37 67.67C53.2791 68.6145 51.098 69.3449 48.86 69.85" fill="#DEE0E1"/>
    <path fill-rule="evenodd" clip-rule="evenodd" d="M6.16001 28.26C6.67329 29.2559 7.31917 30.1776 8.08001 31C10.23 28.85 11.81 25.73 15.29 23.94C13.64 21.23 11.43 21.68 11.29 19.26C11.5424 19.3343 11.809 19.3467 12.0672 19.2963C12.3254 19.2459 12.5677 19.1341 12.7736 18.9703C12.9795 18.8065 13.143 18.5956 13.2503 18.3554C13.3576 18.1152 13.4055 17.8527 13.39 17.59C12.28 16.98 11.89 18.19 11.59 17.88C11.29 17.57 12.86 17.58 12.71 16.01C11.25 16.01 11.52 17.01 11.17 16.89C10.82 16.77 11.58 15.89 10.26 15.15C9.51001 16.53 10.53 16.96 10.32 17.15C10.11 17.34 9.71001 16.35 8.44001 16.79C8.78001 18.49 10.44 17.79 10.2 18.34C9.96 18.89 8.92001 17.64 8.48001 18.95C8.59203 19.1603 8.751 19.3418 8.94457 19.4807C9.13815 19.6195 9.36111 19.7118 9.59616 19.7505C9.83121 19.7892 10.072 19.7732 10.2999 19.7038C10.5277 19.6343 10.7365 19.5133 10.91 19.35C11.05 21.56 12.5 21.74 14.11 23.28C9.80001 21.49 4.56 23.69 2.59 23.97C2.90383 24.7303 3.50348 25.3372 4.26001 25.66C3.04001 26.79 3.01001 27.41 2.26001 28.22C2.26001 28.22 3.89001 30.01 6.26001 28.22L6.16001 28.26ZM3.82001 27.88C4.5052 26.9157 5.33104 26.0595 6.27 25.34C5.53627 25.2519 4.84267 24.9571 4.27 24.49C5.77 24.09 8.92001 22.96 11.6 23.49C12.48 23.61 12.98 23.97 12.66 24.17C10.7258 25.7123 9.17807 27.6845 8.14001 29.93C7.75321 29.3844 7.5117 28.7492 7.43822 28.0844C7.36474 27.4196 7.46171 26.747 7.72001 26.13C5.45001 27.5 4.86001 28.13 3.80001 27.9" fill="#DEE0E1"/>
    <path fill-rule="evenodd" clip-rule="evenodd" d="M40.1001 26.62V27.92C40.2738 27.7569 40.4811 27.6339 40.7074 27.5597C40.9337 27.4854 41.1736 27.4616 41.4101 27.49V29.36C41.4046 29.8222 41.2843 30.2758 41.0601 30.68H42.9301C42.7028 30.2765 42.5791 29.823 42.5701 29.36V27.48C42.8066 27.4509 43.0467 27.4743 43.2731 27.5487C43.4996 27.623 43.7068 27.7464 43.8801 27.91V26.61H40.1001V26.62Z" fill="#DEE0E1"/>
    <path d="M82.8899 27.17C82.6801 26.9441 82.4957 26.696 82.3399 26.43L82.0199 25.95C82.3527 25.5628 82.6257 25.128 82.8299 24.66L83.6699 22.76L81.6199 22.46C81.2699 22.41 80.7099 22.26 80.0599 22.09C78.5397 21.6577 76.9884 21.3434 75.4199 21.15C76.0483 20.8641 76.5649 20.3791 76.8899 19.77L77.2299 19.16C77.2299 19.16 77.1399 18.31 76.8099 18.04C76.9413 17.7628 77.0387 17.4706 77.0999 17.17L77.3799 15.81L76.0699 15.36C75.8713 15.2925 75.6672 15.2423 75.4599 15.21C75.3774 14.936 75.2668 14.6713 75.1299 14.42L74.3299 13L72.9199 13.82C72.593 14.0078 72.2964 14.2438 72.0399 14.52C71.8189 14.4794 71.5946 14.4593 71.3699 14.46C70.7967 14.4188 70.2212 14.4972 69.6799 14.69L68.5499 13.52L67.2099 12.09C66.6396 11.4386 65.879 10.9829 65.0356 10.7873C64.1922 10.5917 63.3087 10.6661 62.5099 11C62.0708 10.5848 61.5518 10.2634 60.9844 10.0554C60.4171 9.84735 59.8133 9.75706 59.2099 9.79C58.7748 9.79368 58.3404 9.82709 57.9099 9.89C56.6517 10.1289 55.4709 10.6713 54.4699 11.47L52.9699 10.75C52.3141 11.7275 51.3547 12.462 50.2399 12.84C50.1208 12.375 49.9137 11.9371 49.6299 11.55L49.7299 10.99C49.975 9.74495 50.4389 8.55319 51.0999 7.47L52.8899 4.68L50.3499 5C50.3686 4.70029 50.3686 4.39971 50.3499 4.1L50.1199 1.93L48.1199 2.83C47.8999 2.93 47.7099 3.03 47.5399 3.12L47.1499 2.28L46.2399 2.75C46.1318 2.48629 46.0082 2.22918 45.8699 1.98L44.7899 0L43.2999 1.61C43.1499 1.78 43.0199 1.93 42.8999 2.07L41.9899 1.17L41.0799 2.08C40.9699 1.93 40.8399 1.78 40.6899 1.62L39.1899 0L38.1299 1.94C37.9924 2.1896 37.8688 2.44667 37.7599 2.71L36.8499 2.24L36.4499 3.08L35.8699 2.79L33.8699 1.89L33.6499 4.07C33.6306 4.36969 33.6306 4.67031 33.6499 4.97L31.0999 4.68L32.8999 7.47C33.5569 8.55668 34.0141 9.7522 34.2499 11L34.3399 11.56C34.0551 11.9502 33.848 12.3916 33.7299 12.86C32.6729 12.3707 31.7398 11.6495 30.9999 10.75L29.4599 11.48C28.1151 10.4049 26.4514 9.80698 24.7299 9.78C24.1297 9.74222 23.5283 9.83133 22.9649 10.0415C22.4014 10.2517 21.8886 10.5783 21.4599 11C20.6646 10.6696 19.7859 10.5961 18.9467 10.7897C18.1076 10.9834 17.35 11.4345 16.7799 12.08C16.7799 12.08 15.9999 13 15.4399 13.5C15.0504 13.8825 14.6174 14.2181 14.1499 14.5C13.4206 14.3529 12.6692 14.3529 11.9399 14.5C11.6648 14.2192 11.3477 13.983 10.9999 13.8L9.63988 13L8.85988 14.44C8.72259 14.6876 8.61197 14.9491 8.52988 15.22C8.32263 15.2525 8.11855 15.3027 7.91988 15.37L6.61988 15.82L6.88988 17.17C6.94802 17.4747 7.0455 17.7705 7.17988 18.05C7.1015 18.198 7.03464 18.3518 6.97989 18.51L6.75988 19.17L7.09988 19.78C7.42189 20.3937 7.93909 20.8828 8.56988 21.17C7.00129 21.3632 5.44999 21.6775 3.92988 22.11C3.27988 22.28 2.71988 22.43 2.36988 22.48L0.309883 22.78L0.779881 23.84L1.15988 24.68C1.37264 25.1593 1.65576 25.6042 1.99988 26C1.73137 26.4216 1.44098 26.8288 1.12988 27.22L0.129883 28.28L1.12988 29.38C1.52863 29.789 2.0042 30.1152 2.5293 30.34C3.0544 30.5648 3.61872 30.6838 4.18988 30.69C4.69448 30.6888 5.1951 30.6009 5.66988 30.43C6.08617 31.1475 6.62031 31.7898 7.24988 32.33C6.26426 33.538 5.02498 34.5144 3.61988 35.19L2.30988 35.81L2.86988 37.3C3.06887 37.8456 3.39483 38.336 3.82085 38.7308C4.24687 39.1255 4.7607 39.4132 5.31988 39.57C5.04478 40.3617 4.8341 41.1744 4.68988 42C4.38988 43.77 4.26988 44.5 2.68988 45L1.28988 45.49L1.68988 46.91C1.89261 47.8405 2.34556 48.698 2.99988 49.39L2.06988 50.39C3.35996 51.3367 4.85268 51.97 6.42988 52.24C6.91988 52.2816 7.41317 52.2204 7.87812 52.0602C8.34308 51.9001 8.76944 51.6445 9.12988 51.31C9.47735 52.4463 9.92234 53.5504 10.4599 54.61C11.4599 56.66 11.9599 57.88 11.2999 58.99L9.82988 61.49L12.7299 61.37C13.9126 61.3633 15.0917 61.2393 16.2499 61C16.2531 61.0533 16.2531 61.1067 16.2499 61.16L15.9999 63.32L18.5399 62.78C18.7999 62.7028 19.0512 62.5989 19.2899 62.47C20.2825 63.5556 21.5001 64.4116 22.8576 64.9781C24.2152 65.5446 25.68 65.808 27.1499 65.75H27.3599L23.2099 67.45L26.2099 69.02C28.3545 70.118 30.602 71.0023 32.9199 71.66L32.5699 72.87L34.0899 73.31C39.2451 74.7704 44.7046 74.7704 49.8599 73.31L51.3699 72.87L50.9999 71.66C53.3321 70.9982 55.5932 70.1072 57.7499 69L60.7499 67.43L56.5999 65.73H56.8099C58.2782 65.7872 59.7413 65.5234 61.0971 64.9569C62.4529 64.3904 63.6688 63.5348 64.6599 62.45C64.8992 62.5775 65.1504 62.6813 65.4099 62.76L67.9499 63.3L67.7199 61.15C67.7199 61.1 67.7199 61.05 67.7199 60.99C68.8582 61.2281 70.017 61.3554 71.1799 61.37L74.0799 61.49L72.6199 59C71.9599 57.89 72.4899 56.67 73.4599 54.62C73.9985 53.5609 74.4435 52.4567 74.7899 51.32C75.3103 51.7154 75.911 51.9919 76.5499 52.13C76.8465 52.2143 77.1518 52.2646 77.4599 52.28C78.4707 52.3248 79.4652 52.0134 80.2699 51.4L81.8699 50.4L80.9299 49.4C81.5785 48.7323 82.0376 47.9039 82.2599 47L82.6599 45.57L81.2599 45.08C79.6999 44.53 79.5799 43.8 79.2599 42.08C79.1406 41.2461 78.9533 40.4234 78.6999 39.62C79.2591 39.4632 79.7729 39.1755 80.1989 38.7808C80.6249 38.386 80.9509 37.8956 81.1499 37.35L81.7099 35.86L80.3999 35.24C78.9948 34.5644 77.7555 33.588 76.7699 32.38C77.4021 31.8397 77.9395 31.1975 78.3599 30.48C78.8315 30.6498 79.3286 30.7377 79.8299 30.74C80.4011 30.7343 80.9656 30.6156 81.4908 30.3908C82.016 30.166 82.4915 29.8394 82.8899 29.43L83.8899 28.33L82.8899 27.17Z" fill="white"/>
    <path fill-rule="evenodd" clip-rule="evenodd" d="M29.2 46.5701V34.5701C29.159 33.4498 28.9185 32.3459 28.49 31.3101H37.8C38.3105 31.923 38.9496 32.4162 39.672 32.7546C40.3943 33.0931 41.1823 33.2685 41.98 33.2685C42.7777 33.2685 43.5657 33.0931 44.288 32.7546C45.0104 32.4162 45.6495 31.923 46.16 31.3101H55.48C55.0479 32.3448 54.8073 33.4494 54.77 34.5701V46.5701H29.2ZM42 63.0001C40.7 61.7001 39.77 61.5601 36.26 61.5601C32.07 61.5601 29.26 59.1001 29.26 55.1701V47.2701H54.83V55.1401C54.83 59.0701 51.99 61.5301 47.83 61.5301C44.32 61.5301 43.39 61.6701 42.09 62.9701" fill="#FCE527"/>
    <path d="M30.6801 64.4601V66.8601L28.6001 67.7001C30.6916 68.6429 32.8726 69.3733 35.1101 69.8801L36.2901 66.0001C34.3801 65.6317 32.5038 65.1066 30.6801 64.4301" fill="white"/>
    <path d="M41.9999 67.7C40.2029 67.7224 38.408 67.5717 36.6399 67.25L35.3899 71.25C39.7232 72.3603 44.2666 72.3603 48.5999 71.25L47.3499 67.25C45.5851 67.571 43.7935 67.7217 41.9999 67.7Z" fill="white"/>
    <path d="M53.2899 64.46C51.4654 65.1265 49.589 65.6415 47.6799 66L48.8599 69.84C51.0945 69.3342 53.2723 68.6038 55.3599 67.66L53.2799 66.82L53.2899 64.46Z" fill="white"/>
    <path d="M26.33 25.79C29.59 24 37.55 20.16 32.15 16C31.41 15.43 30.6 14.92 29.92 14.29C29.08 14.94 30.24 16.55 30.53 17.14C30.53 17.14 28.73 17.32 28.3 17.32C25.52 17.32 22.61 15.66 24.09 12.51C22.98 12.74 22.85 13.8 22.51 14.71C21.8 14.23 20.57 13.2 19.62 13.35C20.39 15.82 23.62 18.04 26.16 18.54C23.61 19.93 18.89 20.96 16.41 17.97C14.67 21.34 17.1 22.75 19.47 24.52C10.41 28.65 11.74 33.29 5.80004 36.95C6.57004 37.31 10.01 36.59 10.32 36.54C9.44248 37.5199 8.66527 38.5852 8.00004 39.72C7.57001 40.8411 7.27462 42.0093 7.12004 43.2C7.04042 44.0111 6.76372 44.7905 6.31405 45.4702C5.86438 46.1499 5.25537 46.7094 4.54004 47.1C5.24004 48.37 6.79004 47.38 7.44004 47.21C7.27148 48.0518 6.97112 48.8618 6.55004 49.61C9.60004 49.41 8.19004 42.97 11.25 44.52C11.4497 44.6197 11.6275 44.758 11.7734 44.9269C11.9193 45.0957 12.0304 45.2918 12.1001 45.5037C12.1698 45.7157 12.1969 45.9394 12.1797 46.1619C12.1625 46.3844 12.1015 46.6012 12 46.8C10 50.94 14.55 54.59 14.31 58.22C15.43 58.22 16.59 58.22 17.31 56.67C17.8151 57.5821 18.2497 58.5316 18.61 59.51L19.52 57.96C19.868 59.3707 20.6588 60.6328 21.7763 61.5614C22.8939 62.49 24.2795 63.0362 25.73 63.12C24.18 60.67 26.04 57.33 22.28 53.78C22.9711 53.3029 23.6201 52.7676 24.22 52.18C19.61 52.72 14.79 49.07 16.98 47.34C18.41 46.21 19.03 48.56 21.24 48.16L20.38 47.42C20.68 47.12 21.03 46.73 21.38 46.42C20.6771 46.3016 20.0003 46.0613 19.38 45.71L19.94 44.79C14.54 44.79 14.4 40.65 16.59 40.49C17.59 40.41 18.95 42.31 22.28 41.92C21.9099 41.3498 21.6394 40.7209 21.48 40.06C22.3361 40.0618 23.1857 39.9129 23.99 39.62C22.37 39.41 21.99 38.87 20.6 37.84L22.17 37.26C20 36.13 20.11 34.14 20 32.08C21.19 32.77 22.59 33.83 24.09 33.33C24.45 33.21 24.67 33.05 24.68 32.68C22.54 31.84 21.18 28.55 26.29 25.79H26.33ZM22.39 26.11C19.54 29.16 20.77 30.99 21.39 31.55C20.33 31.32 18.74 29.97 19.1 28.66C18.76 29.07 18.42 29.5 18.1 29.96C17.39 30.9 16.76 31.83 16.2 32.73C15.34 35.3 16.92 37.96 19.62 39.14C18.4483 38.9725 17.3723 38.3995 16.5793 37.5206C15.7864 36.6418 15.3266 35.5128 15.28 34.33C13.991 36.5329 13.2854 39.0283 13.23 41.58C13.2558 42.3065 13.3226 43.031 13.43 43.75C14.12 45.06 15.23 45.54 17.2 45.75C15.41 45.86 14.46 45.75 13.68 44.96C14.9 50.2 20.6 54.75 22.93 58.64C20.61 55.64 15.79 51.12 14.1 47.86C13.9777 49.9868 14.5574 52.0949 15.75 53.86C13.59 51.74 13.43 48.53 13.57 46.65C12.9826 45.1892 12.6641 43.6342 12.63 42.06C12.5782 40.6562 12.6821 39.2509 12.94 37.87C11.58 39.81 9.61004 40.55 8.64004 43.5C8.83004 39.7 11.64 39.64 13.79 35.02C14.7045 32.9976 15.8236 31.0743 17.13 29.28C15.2201 29.7625 13.5118 30.8371 12.25 32.35C13.63 29.08 21.61 25.41 25.25 21.86C24.15 22.09 19.67 22.21 17.81 20.96C21.18 21.87 28.69 20.83 31.52 18.89C29.52 21.7 25.31 21.89 20.12 27.46C20.8519 26.9035 21.6395 26.4243 22.47 26.03" fill="white"/>
    <path d="M76.8101 43.2C76.6557 42.0092 76.3603 40.841 75.9301 39.72C75.2822 38.5777 74.5181 37.5054 73.6501 36.52C73.9601 36.52 77.4001 37.29 78.1701 36.93C72.2201 33.28 73.5601 28.64 64.5001 24.5C66.8801 22.73 69.3101 21.32 67.5701 17.95C65.0901 20.95 60.3601 19.95 57.8201 18.52C60.3401 18.02 63.5801 15.79 64.3601 13.33C63.3601 13.18 62.1801 14.21 61.4701 14.69C61.1301 13.78 61.0001 12.69 59.9001 12.49C61.3801 15.65 58.4601 17.29 55.6801 17.3C55.2501 17.3 53.4601 17.12 53.4601 17.12C53.7501 16.53 54.9101 14.92 54.0601 14.27C53.3801 14.91 52.5801 15.42 51.8401 15.98C46.4401 20.16 54.4101 24.03 57.6701 25.79C62.7801 28.55 61.4201 31.79 59.2801 32.68C59.2801 33.05 59.5201 33.21 59.8701 33.33C61.3601 33.83 62.7601 32.76 63.9501 32.08C63.8801 34.14 64.0201 36.08 61.7501 37.26L63.3201 37.84C61.9701 38.84 61.5601 39.41 59.9401 39.62C60.7446 39.9123 61.5941 40.0612 62.4501 40.06C62.286 40.7192 62.0158 41.3474 61.6501 41.92C64.9801 42.32 66.3201 40.42 67.3401 40.49C69.5301 40.65 69.4001 44.79 63.9901 44.79L64.5501 45.71C63.9301 46.0619 63.2532 46.3022 62.5501 46.42C62.9101 46.71 63.2601 47.1 63.5501 47.42L62.6901 48.16C64.8901 48.56 65.5201 46.16 66.9501 47.34C69.1301 49.07 64.3201 52.72 59.7101 52.18C60.3106 52.767 60.9596 53.3022 61.6501 53.78C57.8901 57.33 59.7401 60.68 58.2001 63.13C59.6506 63.041 61.0348 62.4916 62.1517 61.5618C63.2685 60.6321 64.0596 59.3703 64.4101 57.96L65.3201 59.51C65.6823 58.5324 66.1169 57.5831 66.6201 56.67C67.3501 58.19 68.5201 58.22 69.6201 58.22C69.3701 54.59 73.9201 50.94 71.9201 46.8C71.8176 46.603 71.7549 46.3878 71.7356 46.1666C71.7163 45.9454 71.7408 45.7225 71.8076 45.5108C71.8745 45.299 71.9824 45.1026 72.1253 44.9325C72.2681 44.7625 72.4431 44.6224 72.6401 44.52C75.7001 42.97 74.2801 49.41 77.3401 49.61C76.9151 48.8636 76.6145 48.053 76.4501 47.21C77.1001 47.38 78.6501 48.37 79.3501 47.1C78.6375 46.7061 78.0307 46.1457 77.5815 45.4666C77.1323 44.7875 76.8539 44.0099 76.7701 43.2H76.8101ZM71.0501 37.94C71.311 39.3205 71.415 40.7261 71.3601 42.13C71.3232 43.7038 71.0048 45.2584 70.4201 46.72C70.5601 48.6 70.4201 51.81 68.2401 53.93C69.43 52.1636 70.0095 50.0564 69.8901 47.93C68.2001 51.19 63.3901 55.69 61.0601 58.71C63.3901 54.82 69.0601 50.28 70.3101 45.03C69.5201 45.85 68.5801 45.93 66.7901 45.82C68.7901 45.58 69.8601 45.1 70.5501 43.82C70.6584 43.1011 70.7252 42.3766 70.7501 41.65C70.6917 39.0974 69.9826 36.6019 68.6901 34.4C68.6435 35.5828 68.1838 36.7118 67.3908 37.5906C66.5979 38.4695 65.5219 39.0425 64.3501 39.21C67.0401 38.03 68.6301 35.37 67.7701 32.8C67.2101 31.9 66.5801 30.98 65.8701 30.03C65.5201 29.58 65.1701 29.14 64.8701 28.73C65.2301 30.04 63.6501 31.39 62.5801 31.62C63.1601 31.06 64.3901 29.23 61.5801 26.18C62.4113 26.5732 63.1989 27.0525 63.9301 27.61C58.7501 22.01 54.4901 21.86 52.5301 19.04C55.3701 20.98 62.8701 22.04 66.2401 21.11C64.3801 22.35 59.8901 22.24 58.8001 22.01C62.4501 25.56 70.4501 29.24 71.8001 32.5C70.5383 30.9871 68.8301 29.9125 66.9201 29.43C68.2278 31.2234 69.347 33.1469 70.2601 35.17C72.3901 39.78 75.2601 39.84 75.4201 43.65C74.4201 40.65 72.4801 39.95 71.1201 38.02" fill="white"/>
    <path d="M46.1699 31.3C45.6778 31.9368 45.0434 32.4494 44.3175 32.7967C43.5916 33.1441 42.7944 33.3164 41.9899 33.3C41.5903 33.2989 41.1917 33.2587 40.7999 33.18C40.9204 33.7356 41.2274 34.2331 41.6699 34.59C41.5914 34.9158 41.5784 35.254 41.6316 35.5848C41.6849 35.9156 41.8033 36.2326 41.9801 36.5173C42.1569 36.802 42.3884 37.0487 42.6614 37.2432C42.9343 37.4376 43.2431 37.5759 43.5699 37.6501C43.6401 37.9991 43.8023 38.3231 44.0396 38.5886C44.2769 38.854 44.5808 39.0513 44.9199 39.16L43.9199 40.37C43.7567 40.568 43.5472 40.7227 43.31 40.8204C43.0728 40.9181 42.8151 40.9557 42.5599 40.93L37.8699 40.4001C38.0699 39.8801 37.5299 39.2801 36.0499 39.5401L37.8899 34.3801L36.7199 32L34.5899 33.82L34.4299 39.23L33.5099 38.78C32.3299 38.27 31.9799 40.42 33.1099 40.43H33.5599C33.5347 40.5332 33.5424 40.6417 33.5818 40.7403C33.6213 40.8389 33.6905 40.9227 33.7799 40.98C33.7236 41.0112 33.6767 41.0568 33.6441 41.1122C33.6114 41.1676 33.5942 41.2307 33.5942 41.295C33.5942 41.3594 33.6114 41.4225 33.6441 41.4779C33.6767 41.5333 33.7236 41.5789 33.7799 41.6101C33.72 41.6448 33.6689 41.6929 33.6306 41.7506C33.5923 41.8083 33.5679 41.8741 33.5591 41.9428C33.5504 42.0115 33.5577 42.0813 33.5804 42.1467C33.6031 42.2121 33.6405 42.2715 33.6899 42.32C33.6097 42.4496 33.5602 42.5957 33.5452 42.7472C33.5301 42.8988 33.5498 43.0518 33.6029 43.1946C33.6559 43.3373 33.7409 43.4661 33.8513 43.571C33.9617 43.676 34.0946 43.7543 34.2399 43.8C34.9199 43.98 35.3399 43.25 35.4799 42.8L42.7799 45.0601C43.2314 45.2208 43.7198 45.2478 44.1863 45.1378C44.6528 45.0278 45.0777 44.7856 45.4099 44.44L47.3099 42.7701C47.1632 43.2236 47.1833 43.7147 47.3667 44.1547C47.55 44.5948 47.8845 44.9548 48.3099 45.17C48.2441 45.637 48.2173 46.1086 48.2299 46.5801H54.7999V34.5801C54.8362 33.456 55.0768 32.348 55.5099 31.31H46.1899L46.1699 31.3Z" fill="white"/>
    <path d="M35.2399 51.5L35.3799 51.68C35.5799 51.92 35.6899 51.87 35.9199 51.74L36.2499 51.56C36.4599 51.4 37.8199 51.92 37.8899 50.79C38.0399 51.63 37.0399 53.41 37.6399 54.4L38.4499 55.74H35.7899C35.6794 55.739 35.571 55.7708 35.4784 55.8313C35.3859 55.8918 35.3133 55.9783 35.2699 56.08L34.5699 57.52C34.4911 57.6772 34.4551 57.8525 34.4657 58.028C34.4762 58.2036 34.5329 58.3733 34.6299 58.52L35.0999 59.05C35.3319 58.8442 35.5074 58.5826 35.6099 58.29L35.3999 58.08C35.3234 58.0172 35.2728 57.9283 35.258 57.8304C35.2432 57.7325 35.2653 57.6326 35.3199 57.55L35.7499 56.66C35.7695 56.5879 35.8044 56.5209 35.8523 56.4635C35.9001 56.4061 35.9597 56.3597 36.0271 56.3275C36.0945 56.2952 36.168 56.2779 36.2427 56.2766C36.3174 56.2753 36.3915 56.2901 36.4599 56.32L38.6099 56.78C38.7699 56.78 39.0199 56.9 39.1799 56.63C39.2987 56.4299 39.4835 56.2775 39.7025 56.199C39.9216 56.1205 40.1611 56.1209 40.3799 56.2C41.5599 56.38 44.2899 56.66 45.2599 55.52C46.3999 57.04 48.6299 57.04 48.4899 57.83L47.9999 60.52H48.7099L49.1399 57.86C49.1399 57.55 49.3799 57.12 49.0399 56.86C48.8999 56.75 48.8399 56.7 48.5299 56.16C48.1199 55.45 48.1499 54.39 47.7499 53.47C47.87 53.2885 48.0387 53.1444 48.2367 53.0542C48.4348 52.964 48.6542 52.9314 48.8699 52.96C49.6599 53.15 49.8699 54.51 50.9899 55.62C50.9074 55.1022 50.756 54.5977 50.5399 54.12C50.9836 54.456 51.3289 54.905 51.5399 55.42C51.5637 55.6255 51.6348 55.8228 51.7475 55.9963C51.8603 56.1698 52.0117 56.3148 52.1899 56.42C52.4499 56.52 52.7699 56.42 53.0799 56.01C53.0799 56.01 52.3399 55.01 51.7999 54.28C51.479 53.7492 51.0295 53.3078 50.4929 52.9967C49.9564 52.6856 49.35 52.5148 48.7299 52.5C48.2944 52.562 47.8779 52.7191 47.5099 52.96C45.9799 52.1 44.7899 52.96 44.3199 52.96L41.4599 52.79C41.0501 52.6975 40.6919 52.4503 40.4599 52.1C40.4828 51.3086 40.2255 50.5345 39.7334 49.9143C39.2412 49.294 38.5458 48.8675 37.7699 48.71C37.7699 48.71 37.8299 48.27 37.6599 48.12L37.0599 48.87L35.3999 48.26L36.6999 49.33L35.2899 51C35.2321 51.0605 35.1959 51.1383 35.1868 51.2215C35.1778 51.3047 35.1965 51.3885 35.2399 51.46" fill="white"/>
    <path d="M33.36 54.9C32.96 55.21 32.98 55.64 33.22 56.13L33.46 56.58L34.09 56.1L33.95 55.79C33.8919 55.6996 33.8681 55.5915 33.8828 55.4852C33.8974 55.3788 33.9496 55.2812 34.03 55.21L34.93 54.53C35.0077 54.4537 35.1037 54.3989 35.2089 54.3709C35.314 54.3429 35.4247 54.3425 35.53 54.37L37.42 54.77C37.2492 54.5121 37.1209 54.2285 37.04 53.93L35.26 53.7C35.1438 53.691 35.027 53.7079 34.9181 53.7494C34.8092 53.7909 34.7108 53.856 34.63 53.94L33.36 54.9Z" fill="white"/>
    <path d="M45.47 60.52H46.18L47.33 57.69C47.3718 57.6137 47.4186 57.5402 47.47 57.47C47.0373 57.3053 46.6192 57.1046 46.22 56.87C46.51 57.26 46.73 57.42 46.61 57.78L45.47 60.52Z" fill="white"/>
    <path d="M46.0699 22.25L47.3899 14.63L42.3899 16.34V24.2L46.0699 22.25ZM43.2199 17.11L46.5599 15.88C46.5599 15.88 45.9099 16.41 45.1399 16.94C44.532 17.3256 43.8932 17.6601 43.2299 17.94L43.2199 17.11ZM43.2199 18.95L46.2199 17.86C45.8701 18.2023 45.4884 18.5104 45.0799 18.78C44.4712 19.1642 43.8324 19.4986 43.1699 19.78L43.2199 18.95ZM43.2199 20.95L45.8999 19.95C45.8999 19.95 45.8999 20.28 45.1299 20.8C44.5218 21.1854 43.883 21.5198 43.2199 21.8V20.95Z" fill="white"/>
    <path d="M37.1301 29L37.2401 29.18H38.2401V29.36C38.2564 29.5402 38.2933 29.7181 38.3501 29.89C38.5393 30.4499 38.8866 30.9431 39.3501 31.31C40.09 31.8806 41.0063 32.1743 41.9401 32.14C44.4101 32.14 45.5301 30.54 45.6401 29.36V29.18H46.6401L46.7501 29C47.7501 27.47 48.9201 25.78 50.3001 25.53L46.5201 23.34L42.0001 25.85L37.3701 23.33L33.6001 25.52C34.9801 25.76 36.1701 27.46 37.1501 28.99" fill="white"/>
    <path d="M41.6001 24.19V16.33L36.6001 14.62L37.9201 22.24L41.6001 24.19ZM40.7601 21.72C40.0972 21.4393 39.4584 21.1049 38.8501 20.72C38.0701 20.19 38.0701 19.86 38.0701 19.86L40.7601 20.86V21.72ZM40.7601 17.1V17.91C40.0968 17.6301 39.458 17.2956 38.8501 16.91C38.0701 16.38 37.4201 15.85 37.4201 15.85L40.7601 17.1ZM40.7601 18.94V19.75C40.0971 19.4695 39.4583 19.135 38.8501 18.75C38.4411 18.4811 38.0593 18.173 37.7101 17.83L40.7601 18.94Z" fill="white"/>
    <path d="M42 11.26C39.13 11.26 37 12.2 36.51 13.26L42 15.47L47.48 13.3C47.01 12.2 44.87 11.3 42 11.3" fill="white"/>
    <path d="M42 8.12001C43.9802 8.12649 45.9269 8.63207 47.66 9.59001C47.8632 8.91587 48.1381 8.26548 48.48 7.65001L47.18 7.85001L46.18 5.61001L44.18 6.61001L42 4.51001L39.84 6.65001L37.84 5.65001L36.81 7.85001L35.51 7.65001C35.8509 8.26601 36.1257 8.91628 36.33 9.59001C38.0661 8.63044 40.0164 8.12481 42 8.12001Z" fill="white"/>
    <path d="M77.8 25.39C78.5338 25.3018 79.2274 25.0071 79.8 24.54C78.3 24.14 75.16 23.01 72.48 23.54C71.59 23.66 71.1 24.02 71.42 24.22C73.3427 25.7719 74.8767 27.751 75.9 30C76.2868 29.4543 76.5283 28.8191 76.6018 28.1543C76.6753 27.4895 76.5783 26.8169 76.32 26.2C78.59 27.57 79.18 28.2 80.23 27.97C79.5475 27.0067 78.7251 26.1506 77.79 25.43" fill="white"/>
    <path d="M8.07001 30.0001C9.10712 27.754 10.655 25.7815 12.59 24.2401C12.91 24.0401 12.41 23.6801 11.53 23.5601C8.85001 23.0501 5.7 24.1901 4.2 24.5601C4.77324 25.0262 5.46655 25.3209 6.2 25.4101C5.26438 26.1301 4.44193 26.9863 3.76001 27.9501C4.82001 28.2101 5.41001 27.5501 7.67001 26.1801C7.41725 26.7982 7.32326 27.4697 7.39662 28.1335C7.46998 28.7972 7.70836 29.4321 8.09 29.9801" fill="white"/>
    <path fill-rule="evenodd" clip-rule="evenodd" d="M23.7799 53.9999C24.7799 53.1699 25.6899 52.7599 25.6499 50.7599C24.0799 51.5599 19.6499 51.5199 17.7799 48.9599C17.2499 48.2299 17.7799 47.8699 18.3199 48.4399C19.5899 49.8799 21.9499 49.2299 22.7999 48.8099C22.6595 48.264 22.3845 47.762 21.9999 47.3499C22.3199 47.0299 23.2299 46.5599 23.4199 45.7499C22.632 45.5123 21.8205 45.3615 20.9999 45.2999C21.245 45.0828 21.4191 44.7968 21.4993 44.4793C21.5796 44.1618 21.5624 43.8275 21.4499 43.5199C19.5199 44.1099 17.1499 43.3099 16.5999 42.5999C16.0499 41.8899 16.5999 41.2399 17.0599 41.7099C18.0599 42.7099 22.7499 43.8699 24.5099 42.1199C23.8849 41.9471 23.3466 41.5479 22.9999 40.9999C24.6299 40.8399 25.9299 39.8799 25.9999 38.6799C24.9158 38.7533 23.8291 38.5825 22.8199 38.1799C23.1828 38.103 23.5172 37.9266 23.7856 37.6706C24.054 37.4145 24.2459 37.0888 24.3399 36.7299C21.3399 36.5499 21.1299 34.3399 21.1099 33.9699C23.0499 35.0899 26.4699 34.5899 25.5799 31.8399C23.9699 31.7499 22.3399 29.1399 26.7799 26.7499C30.7799 24.5699 35.3999 22.2099 34.9899 18.3399C34.7299 15.8599 30.6399 14.1699 30.1299 12.9099C28.4299 13.7199 28.1299 14.6599 28.8499 16.2399C28.8499 16.2399 25.0499 16.6199 24.7499 14.2399C24.7494 13.7076 24.8676 13.1818 25.0959 12.7009C25.3243 12.22 25.657 11.796 26.0699 11.4599C25.6399 11.4599 22.7799 10.6899 21.9199 13.0199C20.3199 11.9299 18.9199 11.9699 17.8699 13.1199C19.5899 14.1199 20.6599 17.6499 23.5099 18.6899C21.5099 19.7899 18.2099 19.3299 16.2899 15.9499C14.4799 18.6799 13.4399 21.3799 17.2899 24.2599C10.2199 27.4799 10.2899 33.6199 4.12989 36.5499C4.74989 38.2199 6.06989 38.2199 7.73989 37.9599C5.07989 41.4099 7.34989 45.0299 3.13989 46.4999C3.53989 47.9099 4.32989 49.0299 5.87989 48.6199C5.43989 49.3099 5.14989 49.2899 4.45989 50.0499C6.75989 51.4999 9.45989 50.4499 10.0999 45.7999C10.2099 44.9699 11.3499 45.4899 10.9599 46.2999C8.33989 51.7199 14.9599 55.7999 12.6199 59.7699C14.6899 59.6799 16.2599 59.5199 17.1199 58.8299C17.5494 59.5793 17.7509 60.4377 17.6999 61.2999C18.1283 61.2605 18.5287 61.0698 18.8292 60.7619C19.1298 60.454 19.3108 60.0492 19.3399 59.6199C20.0899 61.7999 22.7599 64.1399 27.0399 64.1399C24.8699 60.9399 26.9999 57.6499 23.7799 53.9999ZM19.5499 57.9999L18.6399 59.5499C18.2796 58.5715 17.845 57.6221 17.3399 56.7099C16.6099 58.2299 15.4399 58.2599 14.3399 58.2599C14.5699 54.5899 9.99989 50.9399 11.9999 46.7999C12.1024 46.603 12.1651 46.3877 12.1844 46.1665C12.2037 45.9453 12.1792 45.7225 12.1124 45.5107C12.0455 45.299 11.9376 45.1025 11.7947 44.9325C11.6519 44.7625 11.4769 44.6223 11.2799 44.5199C8.21989 42.9699 9.63989 49.4099 6.5799 49.6099C7.00097 48.8617 7.30133 48.0518 7.46989 47.2099C6.81989 47.3799 5.26989 48.3699 4.56989 47.0999C5.28522 46.7094 5.89424 46.1499 6.34391 45.4701C6.79358 44.7904 7.07027 44.0111 7.14989 43.1999C7.29386 42.0103 7.57921 40.842 7.99989 39.7199C8.6478 38.5801 9.40826 37.5081 10.2699 36.5199C9.95989 36.5199 6.52989 37.2899 5.74989 36.9299C11.6999 33.2799 10.3599 28.6399 19.4199 24.4999C17.0399 22.7299 14.6099 21.3199 16.3599 17.9499C18.8399 20.9499 23.5599 19.9499 26.1099 18.5199C23.5899 18.0199 20.3499 15.7899 19.5799 13.3299C20.5299 13.1799 21.7599 14.2099 22.4699 14.6899C22.8099 13.7799 22.9499 12.6899 24.0499 12.4899C22.5799 15.6399 25.4899 17.2899 28.2599 17.2999C28.6899 17.2999 30.4899 17.1199 30.4899 17.1199C30.1999 16.5299 29.0399 14.9199 29.8799 14.2699C30.5599 14.9099 31.3699 15.4199 32.1099 15.9799C37.5099 20.1599 29.5399 24.0299 26.2799 25.7899C21.1699 28.5499 22.5399 31.8399 24.6699 32.6799C24.6699 33.0499 24.4299 33.2099 24.0799 33.3299C22.5899 33.8299 21.1799 32.7599 19.9899 32.0799C20.0599 34.1399 19.9199 36.0799 22.1999 37.2599L20.6299 37.8299C21.9799 38.8299 22.3899 39.3999 24.0199 39.6099C23.2154 39.9022 22.3659 40.0512 21.5099 40.0499C21.6693 40.7108 21.9398 41.3397 22.3099 41.9099C18.9799 42.3099 17.6499 40.4099 16.6199 40.4799C14.4199 40.6399 14.5599 44.7799 19.9699 44.7799L19.4099 45.6999C20.03 46.0515 20.7069 46.2918 21.4099 46.4099C21.0499 46.6999 20.7099 47.0899 20.4099 47.4099L21.2699 48.1499C19.0599 48.5499 18.4399 46.1499 17.0099 47.3299C14.8299 49.0599 19.6399 52.7099 24.2499 52.1699C23.6496 52.7571 23.0006 53.2923 22.3099 53.7699C26.0699 57.3199 24.2099 60.6699 25.7599 63.1199C24.3102 63.0319 22.9267 62.4828 21.8112 61.5527C20.6958 60.6225 19.907 59.3602 19.5599 57.9499" fill="#222220"/>
    <path fill-rule="evenodd" clip-rule="evenodd" d="M13.6301 45C14.4101 45.82 15.3601 45.9 17.1501 45.79C15.1501 45.55 14.0701 45.07 13.3801 43.79C13.2767 43.0707 13.2133 42.3463 13.1901 41.62C13.2455 39.0683 13.9511 36.5729 15.2401 34.37C15.2886 35.5522 15.749 36.6802 16.5416 37.5586C17.3342 38.4371 18.4091 39.0106 19.5801 39.18C16.8801 38 15.3001 35.34 16.1601 32.77C16.7201 31.87 17.3601 30.95 18.0601 30C18.4201 29.55 18.7601 29.11 19.0601 28.7C18.7001 30.01 20.2801 31.36 21.3401 31.59C20.7701 31.03 19.5301 29.2 22.3401 26.15C21.5131 26.5451 20.729 27.0243 20.0001 27.58C25.1801 21.98 29.4401 21.83 31.4001 19.01C28.6501 20.91 21.1501 22 17.7701 21C19.6301 22.24 24.1201 22.13 25.2101 21.9C21.5501 25.45 13.5701 29.13 12.2101 32.39C13.4731 30.8738 15.1857 29.7986 17.1001 29.32C15.7936 31.1142 14.6744 33.0376 13.7601 35.06C11.6401 39.67 8.76011 39.73 8.61011 43.54C9.61011 40.59 11.5401 39.84 12.9101 37.91C12.6529 39.291 12.549 40.6962 12.6001 42.1C12.6348 43.6741 12.9533 45.229 13.5401 46.69C13.4001 48.57 13.5401 51.78 15.7201 53.9C14.5275 52.1349 13.9477 50.0268 14.0701 47.9C15.7601 51.16 20.5701 55.66 22.9001 58.68C20.5701 54.79 14.9001 50.25 13.6501 45" fill="#222220"/>
    <path fill-rule="evenodd" clip-rule="evenodd" d="M66.9 29.36C68.8103 29.8418 70.5187 30.9166 71.78 32.43C70.4 29.16 62.41 25.49 58.78 21.94C59.88 22.17 64.36 22.29 66.22 21.04C62.85 21.96 55.35 20.91 52.51 18.97C54.51 21.79 58.73 21.97 63.91 27.54C63.1788 26.9825 62.3912 26.5032 61.56 26.11C64.41 29.16 63.18 30.99 62.56 31.55C63.62 31.32 65.21 29.97 64.85 28.66C65.19 29.07 65.54 29.5 65.85 29.96C66.56 30.9 67.19 31.83 67.75 32.73C68.61 35.3 67.02 37.96 64.33 39.14C65.5 38.9703 66.5736 38.3964 67.3646 37.5177C68.1555 36.6391 68.6138 35.5113 68.66 34.33C69.9525 36.5319 70.6616 39.0274 70.72 41.58C70.6943 42.3065 70.6276 43.031 70.52 43.75C69.83 45.06 68.72 45.54 66.75 45.75C68.55 45.86 69.49 45.75 70.27 44.96C69.05 50.2 63.34 54.75 61.02 58.64C63.35 55.64 68.16 51.12 69.85 47.86C69.9709 49.9866 69.3913 52.0942 68.2 53.86C70.36 51.74 70.52 48.53 70.38 46.64C70.9638 45.1815 71.2821 43.6305 71.32 42.06C71.3749 40.6561 71.2709 39.2505 71.01 37.87C72.37 39.81 74.34 40.55 75.31 43.5C75.12 39.7 72.31 39.64 70.15 35.02C69.2372 32.9968 68.118 31.0732 66.81 29.28" fill="#222220"/>
    <path fill-rule="evenodd" clip-rule="evenodd" d="M76.1399 38C77.8099 38.26 79.1399 38.26 79.7499 36.59C73.5999 33.66 73.6599 27.52 66.5899 24.3C70.4699 21.42 69.4299 18.72 67.5899 15.99C65.6799 19.37 62.3899 19.83 60.3699 18.73C63.2099 17.73 64.2899 14.18 66.0099 13.16C64.9999 12 63.5899 12 61.9999 13C61.1299 10.67 58.2799 11.44 57.8499 11.44C58.2633 11.7756 58.5965 12.1995 58.8249 12.6805C59.0533 13.1615 59.1711 13.6876 59.1699 14.22C58.8699 16.56 55.0799 16.22 55.0799 16.22C55.8499 14.64 55.5099 13.7 53.7999 12.89C53.2799 14.15 49.1999 15.84 48.9399 18.32C48.5299 22.2 53.1199 24.55 57.1499 26.73C61.5899 29.13 59.9599 31.73 58.3499 31.82C57.4599 34.58 60.8699 35.07 62.8199 33.95C62.8199 34.32 62.5599 36.53 59.5899 36.71C59.6855 37.0671 59.8781 37.3907 60.1464 37.6448C60.4147 37.899 60.7482 38.0739 61.1099 38.15C60.1006 38.5522 59.014 38.7231 57.9299 38.65C58.0399 39.85 59.3399 40.81 60.9299 40.97C60.586 41.5185 60.0519 41.9208 59.4299 42.1C61.1899 43.85 65.9199 42.7 66.8799 41.69C67.3199 41.23 67.8799 41.88 67.3299 42.58C66.7799 43.28 64.4099 44.1 62.4799 43.51C62.3746 43.8259 62.368 44.1664 62.4609 44.4861C62.5538 44.8058 62.7418 45.0897 62.9999 45.3C62.1961 45.3646 61.4015 45.5155 60.6299 45.75C60.8099 46.56 61.7299 47.03 62.0499 47.35C61.6573 47.747 61.3687 48.2348 61.2099 48.77C62.0699 49.19 64.4299 49.84 65.6899 48.4C66.1999 47.83 66.7599 48.19 66.2399 48.92C64.3799 51.48 59.9399 51.52 58.3699 50.72C58.3699 52.72 59.1899 53.13 60.2399 53.96C57.0299 57.66 59.1499 60.96 56.8799 64.18C61.1599 64.18 63.8799 61.85 64.5799 59.66C64.609 60.0893 64.79 60.4941 65.0906 60.802C65.3911 61.1099 65.7915 61.3006 66.2199 61.34C66.1735 60.4782 66.3747 59.6211 66.7999 58.87C67.6699 59.57 69.2499 59.73 71.3099 59.81C68.9699 55.81 75.5999 51.76 72.9699 46.34C72.5799 45.53 73.7199 45.01 73.8299 45.84C74.4499 50.49 77.1699 51.54 79.4799 50.09C78.7899 49.33 78.4799 49.35 78.0599 48.66C79.6099 49.07 80.3999 47.95 80.7999 46.54C76.5999 45.06 78.8599 41.45 76.1999 38H76.1399ZM76.5499 47.23C76.7147 48.073 77.0152 48.8835 77.4399 49.63C74.3799 49.43 75.7999 42.99 72.7399 44.54C72.3437 44.7433 72.0437 45.0947 71.9052 45.5179C71.7666 45.9411 71.8006 46.4018 71.9999 46.8C73.9999 50.94 69.4399 54.59 69.6999 58.22C68.5699 58.22 67.3999 58.22 66.6999 56.67C66.1962 57.5829 65.7617 58.5322 65.3999 59.51L64.4899 57.96C64.1414 59.3695 63.3521 60.631 62.237 61.5609C61.1219 62.4908 59.7391 63.0405 58.2899 63.13C59.8299 60.68 57.9799 57.34 61.7399 53.78C61.0488 53.303 60.3998 52.7677 59.7999 52.18C64.4199 52.72 69.2299 49.07 67.0399 47.34C65.6099 46.21 64.9799 48.56 62.7799 48.16L63.6399 47.42C63.3399 47.12 62.9899 46.73 62.6399 46.42C63.343 46.3023 64.0199 46.0619 64.6399 45.71L64.0799 44.79C69.4799 44.79 69.6199 40.65 67.4299 40.49C66.4299 40.41 65.0699 42.31 61.7399 41.92C62.1059 41.3476 62.3761 40.7194 62.5399 40.06C61.684 40.0608 60.8345 39.9119 60.0299 39.62C61.6599 39.41 62.0299 38.87 63.4199 37.84L61.8499 37.26C64.1299 36.12 63.9799 34.14 64.0499 32.08C62.8599 32.77 61.4499 33.83 59.9699 33.33C59.6099 33.21 59.3799 33.05 59.3799 32.68C61.5199 31.84 62.8799 28.55 57.7699 25.79C54.5099 24.03 46.5399 20.16 51.9399 15.98C52.6799 15.41 53.4799 14.9 54.1599 14.27C55.0099 14.92 53.8499 16.53 53.5599 17.12C53.5599 17.12 55.3599 17.3 55.7799 17.3C58.5599 17.3 61.4799 15.64 59.9999 12.49C61.1099 12.72 61.2399 13.78 61.5699 14.69C62.2799 14.21 63.5099 13.18 64.4599 13.33C63.6899 15.8 60.4599 18.02 57.9199 18.52C60.4699 19.91 65.1899 20.94 67.6699 17.95C69.4099 21.32 66.9799 22.73 64.5999 24.5C73.6699 28.63 72.3299 33.27 78.2699 36.93C77.4999 37.29 74.0599 36.57 73.7499 36.52C74.618 37.5055 75.382 38.5778 76.0299 39.72C76.4601 40.8411 76.7555 42.0093 76.9099 43.2C76.9945 44.0097 77.2732 44.787 77.7224 45.466C78.1715 46.1449 78.7779 46.7055 79.4899 47.1C78.7899 48.37 77.2399 47.38 76.5899 47.21" fill="#222220"/>
    <path fill-rule="evenodd" clip-rule="evenodd" d="M33.3199 57.3699L34.6099 56.27L34.4099 55.88C34.2699 55.6 34.3399 55.58 34.4899 55.47L35.1699 54.9599C35.2435 54.905 35.3298 54.8698 35.4208 54.8575C35.5118 54.8453 35.6044 54.8565 35.6899 54.8899L37.6899 55.3699H35.5799C35.3944 55.3627 35.2118 55.4179 35.0613 55.5267C34.9109 55.6354 34.8012 55.7915 34.7499 55.97L34.5999 56.27L34.0399 57.41C33.9099 57.6513 33.8602 57.9278 33.898 58.1993C33.9357 58.4708 34.059 58.7232 34.2499 58.9199L34.6399 59.3899L33.8599 61H34.5299L35.0799 59.88C35.5391 59.4563 35.8832 58.9229 36.0799 58.33C35.8499 58.14 35.6799 58 35.8099 57.74L36.0599 57.2099C36.1399 57.0299 36.1699 56.9599 36.4099 57.0099L38.5599 57.47C38.7203 57.5527 38.9054 57.5739 39.0803 57.5297C39.2553 57.4855 39.4081 57.3789 39.5099 57.2299C39.7999 56.78 39.8399 56.83 40.5099 56.9L41.6099 57.02C42.8475 57.1792 44.1034 56.9336 45.1899 56.32C45.3899 56.79 45.7999 57.14 45.9899 57.5C46.0599 57.63 45.9899 57.82 45.8499 58.06L44.6599 61H46.5599L47.6299 58.31C47.7096 58.1002 47.8322 57.9095 47.9899 57.75L47.3799 61H49.2199L49.7099 57.7799C49.8199 57.0699 49.7099 56.83 49.4099 56.54C48.6399 55.89 48.6599 54.54 48.4099 53.7C48.5492 53.6202 48.7109 53.5886 48.8699 53.61C49.2699 53.61 49.5699 54.67 50.0499 55.33C50.9899 56.66 52.2799 58.12 53.7599 56.06C53.6192 55.8297 53.4585 55.6122 53.2799 55.41L52.8699 54.93C52.6299 54.66 51.4899 53.36 51.0099 52.93C50.57 52.4919 49.9957 52.2144 49.3791 52.1418C48.7625 52.0693 48.1395 52.206 47.6099 52.5299C46.1099 51.7399 44.5299 52.5299 44.1599 52.5299L41.5799 52.3699C41.4946 52.3668 41.4114 52.3422 41.338 52.2985C41.2646 52.2549 41.2034 52.1935 41.1599 52.1199L41.6399 51.9599C41.1899 50.0899 40.0599 48.5299 38.0899 48.2599C38.0899 48.2599 37.9699 47.67 37.6699 47.56L37.0799 48.25C36.9077 48.274 36.7395 48.3211 36.5799 48.3899L34.0599 47.45L35.9999 49.34C35.9999 49.34 34.9999 50.73 34.6899 51C34.643 51.0464 34.6058 51.1017 34.5805 51.1627C34.5551 51.2236 34.542 51.2889 34.542 51.3549C34.542 51.421 34.5551 51.4863 34.5805 51.5472C34.6058 51.6082 34.643 51.6635 34.6899 51.7099L35.0599 52.1899C35.2499 52.4399 35.4599 52.43 35.7599 52.27L36.1699 52.0499C36.3499 51.8999 36.9599 52.1999 37.1699 51.9599C37.0624 52.4529 37.0054 52.9555 36.9999 53.4599L35.2999 53.2599C35.1681 53.227 35.0302 53.2262 34.898 53.2575C34.7658 53.2888 34.643 53.3514 34.5399 53.4399L33.0899 54.5499C32.8538 54.734 32.6909 54.996 32.6305 55.2892C32.57 55.5824 32.6159 55.8875 32.7599 56.15L33.3199 57.3699ZM47.3199 57.6899L46.1699 60.52H45.4599L46.6099 57.7799C46.7299 57.4299 46.4999 57.2599 46.2199 56.8699C46.6188 57.1051 47.037 57.3058 47.4699 57.47C47.4185 57.5402 47.3717 57.6136 47.3299 57.6899H47.3199ZM36.2499 51.5499L35.9199 51.72C35.6899 51.85 35.5799 51.91 35.3799 51.66L35.2399 51.4799C35.1964 51.4085 35.1778 51.3246 35.1868 51.2415C35.1959 51.1583 35.2321 51.0804 35.2899 51.02L36.6999 49.38L35.3999 48.31L37.0499 48.9199L37.6599 48.16C37.8399 48.31 37.7799 48.75 37.7799 48.75C38.5558 48.9075 39.2512 49.334 39.7433 49.9542C40.2355 50.5744 40.4928 51.3485 40.4699 52.1399C40.703 52.4872 41.0613 52.7309 41.4699 52.82L44.3399 52.99C44.8199 52.99 45.9999 52.08 47.5299 52.99C47.8988 52.7489 48.3146 52.5887 48.7499 52.52C49.3696 52.5365 49.9752 52.7081 50.5115 53.0191C51.0478 53.33 51.4976 53.7704 51.8199 54.2999C52.3599 54.9799 53.0999 56.0299 53.0999 56.0299C52.7799 56.4099 52.4699 56.5299 52.2099 56.4399C52.0317 56.3348 51.8803 56.1897 51.7675 56.0163C51.6547 55.8428 51.5837 55.6455 51.5599 55.4399C51.3485 54.9252 51.0032 54.4763 50.5599 54.1399C50.7748 54.6181 50.9261 55.1224 51.0099 55.6399C49.8899 54.5299 49.6799 53.18 48.8899 52.99C48.6735 52.9571 48.4522 52.9867 48.252 53.0753C48.0519 53.1639 47.8811 53.3077 47.7599 53.49C48.1599 54.41 48.1299 55.49 48.5399 56.18C48.8499 56.71 48.9099 56.76 49.0499 56.88C49.3799 57.12 49.1899 57.54 49.1399 57.88L48.7099 60.54H47.9999L48.4699 57.93C48.6099 57.14 46.3899 57.1399 45.2399 55.6199C44.2399 56.7599 41.5399 56.4699 40.3599 56.2999C40.1411 56.2208 39.9015 56.2205 39.6825 56.299C39.4635 56.3775 39.2787 56.5299 39.1599 56.7299C39.0099 56.99 38.7499 56.91 38.5899 56.88L36.4399 56.4199C36.3721 56.3899 36.2987 56.3747 36.2245 56.3754C36.1504 56.376 36.0772 56.3925 36.01 56.4238C35.9428 56.455 35.883 56.5003 35.8347 56.5566C35.7864 56.6128 35.7506 56.6788 35.7299 56.75L35.2999 57.6399C35.2474 57.7232 35.2266 57.8225 35.2413 57.9198C35.256 58.0171 35.3052 58.1059 35.3799 58.1699L35.5799 58.3899C35.4771 58.6796 35.3015 58.9379 35.0699 59.1399L34.5999 58.61C34.4955 58.4664 34.4344 58.2959 34.4237 58.1187C34.4131 57.9415 34.4534 57.765 34.5399 57.61L35.2399 56.16C35.2833 56.0583 35.3559 55.9717 35.4484 55.9112C35.541 55.8507 35.6494 55.819 35.7599 55.82H38.4199L37.6099 54.49C36.9999 53.49 38.0099 51.72 37.8599 50.88C37.7799 52 36.4199 51.4899 36.2099 51.6399L36.2499 51.5499ZM33.3599 54.9L34.6199 53.9C34.6998 53.8141 34.7978 53.7472 34.9067 53.704C35.0157 53.6607 35.1329 53.6423 35.2499 53.65L37.0299 53.88C37.1108 54.1785 37.2391 54.4621 37.4099 54.72L35.5199 54.32C35.4145 54.2944 35.3044 54.2957 35.1996 54.3237C35.0948 54.3516 34.9986 54.4053 34.9199 54.4799L34.0199 55.16C33.9377 55.23 33.8842 55.3278 33.8694 55.4347C33.8547 55.5417 33.8798 55.6503 33.9399 55.74L34.0799 56.0499L33.4499 56.52L33.2099 56.07C32.9699 55.59 32.9499 55.15 33.3499 54.84" fill="#222220"/>
    <path fill-rule="evenodd" clip-rule="evenodd" d="M38.8401 20.7401C39.4484 21.1249 40.0872 21.4594 40.7501 21.7401V20.9301L38.0601 19.9301C38.0601 19.9301 38.0601 20.2601 38.8401 20.7901" fill="#222220"/>
    <path fill-rule="evenodd" clip-rule="evenodd" d="M40.75 19.76V18.95L37.75 17.86C38.0987 18.2035 38.4806 18.5117 38.89 18.78C39.4986 19.1644 40.1373 19.4988 40.8 19.78" fill="#222220"/>
    <path fill-rule="evenodd" clip-rule="evenodd" d="M40.7499 17.92V17.1L37.4099 15.87C37.4099 15.87 38.0599 16.4 38.8399 16.93C39.4478 17.3156 40.0867 17.6501 40.7499 17.93" fill="#222220"/>
    <path fill-rule="evenodd" clip-rule="evenodd" d="M50.1299 28.9999H53.5499C53.4231 28.6708 53.1898 28.3935 52.8872 28.2122C52.5845 28.031 52.2299 27.9563 51.8799 27.9999C51.5244 27.9892 51.1728 28.0769 50.864 28.2534C50.5552 28.4298 50.3011 28.6882 50.1299 28.9999Z" fill="#222220"/>
    <path fill-rule="evenodd" clip-rule="evenodd" d="M46.56 15.87L43.22 17.1V17.91C43.8832 17.6301 44.5221 17.2956 45.13 16.91C45.91 16.38 46.55 15.85 46.55 15.85" fill="#222220"/>
    <path fill-rule="evenodd" clip-rule="evenodd" d="M45.91 19.88L43.22 20.88V21.69C43.8827 21.4091 44.5215 21.0746 45.13 20.69C45.91 20.16 45.91 19.83 45.91 19.83" fill="#222220"/>
    <path fill-rule="evenodd" clip-rule="evenodd" d="M46.28 17.86L43.28 18.95V19.76C43.9431 19.4796 44.5819 19.1451 45.19 18.76C45.5989 18.4909 45.9807 18.1828 46.33 17.84" fill="#222220"/>
    <path fill-rule="evenodd" clip-rule="evenodd" d="M32.0899 27.9999C31.7399 27.9563 31.3853 28.031 31.0826 28.2122C30.78 28.3935 30.5467 28.6708 30.4199 28.9999H33.8399C33.6687 28.6882 33.4147 28.4298 33.1058 28.2534C32.797 28.0769 32.4454 27.9892 32.0899 27.9999Z" fill="#222220"/>
    <path fill-rule="evenodd" clip-rule="evenodd" d="M48.7701 13.69C48.7701 11.77 45.5401 10.05 41.9801 10.05C38.4201 10.05 35.1901 11.77 35.1901 13.69L35.2601 14.16L36.6801 22.32L30.0001 26.24C29.5268 26.5489 29.1244 26.9546 28.8193 27.4304C28.5142 27.9061 28.3134 28.4411 28.2301 29H29.4601C29.5473 28.3189 29.8881 27.6956 30.4145 27.2544C30.9409 26.8133 31.6142 26.5868 32.3001 26.62C33.8501 26.7 34.7701 27.6201 35.6901 29L35.9201 29.3601L36.2601 29.89H26.3601C27.1902 31.3223 27.6763 32.9279 27.7801 34.5801V55.14C27.7801 60.43 31.8501 62.96 36.2501 62.96C39.6501 62.96 40.1101 62.8101 41.9901 64.68C43.8601 62.8 44.3201 62.96 47.7301 62.96C52.1301 62.96 56.2001 60.44 56.2001 55.14V34.5601C56.3035 32.9078 56.7897 31.3022 57.6201 29.87H47.7201L48.0601 29.34L48.3001 28.98C49.2101 27.63 50.1301 26.68 51.6901 26.6C52.3758 26.5725 53.0466 26.8041 53.5692 27.2488C54.0918 27.6936 54.4277 28.3188 54.5101 29H55.7301C55.6515 28.4444 55.4568 27.9115 55.1588 27.436C54.8607 26.9605 54.4659 26.553 54.0001 26.24L47.2701 22.32L48.6901 14.16L48.7701 13.69ZM36.5701 14.63L41.5701 16.34V24.2L37.8701 22.25L36.5701 14.63ZM37.8101 31.3C38.5507 32.2586 39.6189 32.9101 40.8101 33.1301C40.9345 33.6868 41.2405 34.1864 41.6801 34.55C41.6016 34.8758 41.5886 35.214 41.6419 35.5448C41.6951 35.8756 41.8136 36.1926 41.9903 36.4773C42.1671 36.762 42.3987 37.0087 42.6716 37.2032C42.9445 37.3976 43.2533 37.5359 43.5801 37.6101C43.6495 37.958 43.8101 38.2812 44.0456 38.5465C44.2811 38.8119 44.5829 39.0098 44.9201 39.12L43.9201 40.3301C43.7575 40.5287 43.5481 40.6839 43.3108 40.7816C43.0734 40.8794 42.8154 40.9166 42.5601 40.89L37.8701 40.3601C38.0701 39.84 37.5301 39.24 36.0501 39.5L37.8901 34.34L36.7301 32L34.6001 33.82L34.4401 39.23L33.5301 38.78C32.3401 38.27 31.9901 40.42 33.1201 40.43H33.5701C33.5462 40.5307 33.5535 40.6363 33.591 40.7328C33.6285 40.8292 33.6944 40.912 33.7801 40.9701C33.7263 41.0032 33.682 41.0495 33.6512 41.1047C33.6204 41.1598 33.6042 41.2219 33.6042 41.285C33.6042 41.3482 33.6204 41.4103 33.6512 41.4654C33.682 41.5206 33.7263 41.5669 33.7801 41.6C33.7185 41.6333 33.6658 41.6807 33.6262 41.7385C33.5866 41.7962 33.5614 41.8625 33.5526 41.9319C33.5438 42.0013 33.5517 42.0719 33.5756 42.1376C33.5995 42.2034 33.6388 42.2625 33.6901 42.3101C33.61 42.4396 33.5605 42.5857 33.5454 42.7372C33.5303 42.8888 33.5501 43.0418 33.6031 43.1846C33.6562 43.3273 33.7411 43.4561 33.8515 43.561C33.9619 43.666 34.0948 43.7443 34.2401 43.7901C34.9101 43.9701 35.3301 43.2401 35.4701 42.7901L42.7701 45.05C43.2215 45.2121 43.7102 45.2397 44.177 45.1297C44.6438 45.0196 45.0686 44.7766 45.4001 44.43L47.3001 42.76C47.1534 43.2136 47.1736 43.7047 47.3569 44.1447C47.5403 44.5848 47.8748 44.9448 48.3001 45.16C48.2401 45.6309 48.2134 46.1054 48.2201 46.5801H29.2201V34.5801C29.1788 33.4566 28.9384 32.3495 28.5101 31.31L37.8101 31.3ZM45.6601 35.85C45.4625 36.2324 45.3687 36.6598 45.388 37.0897C45.4073 37.5196 45.5391 37.937 45.7701 38.3L45.4601 38.6101C44.0901 38.4401 43.5501 36.4001 43.5501 36.4001C43.5349 36.5831 43.5349 36.767 43.5501 36.9501C43.1461 36.8065 42.8021 36.5312 42.5735 36.1684C42.345 35.8056 42.2452 35.3765 42.2901 34.9501C42.6014 35.1222 42.9395 35.2405 43.2901 35.3L43.3801 34.7001C42.9803 34.649 42.604 34.4829 42.2969 34.2219C41.9897 33.9609 41.7651 33.6163 41.6501 33.23H41.5201H42.0301C42.5616 33.2271 43.0901 33.1497 43.6001 33C43.819 33.28 44.0921 33.5128 44.4031 33.6846C44.7141 33.8565 45.0566 33.9638 45.4101 34C45.3042 34.6049 45.3917 35.2278 45.6601 35.78V35.85ZM47.6601 41.18C47.5185 41.3704 47.4102 41.5834 47.3401 41.8101L46.5801 42.51C46.6109 41.9453 46.5115 41.3811 46.2896 40.8609C46.0676 40.3408 45.7291 39.8786 45.3001 39.51L46.1101 38.71L46.2701 38.87C46.2091 39.1111 46.1969 39.3619 46.234 39.6078C46.2711 39.8536 46.3569 40.0896 46.4864 40.3019C46.6158 40.5142 46.7863 40.6986 46.9878 40.8442C47.1893 40.9898 47.4179 41.0938 47.6601 41.1501V41.18ZM44.0001 40.9001L44.6301 40.28C45.0641 40.6415 45.4025 41.1043 45.6152 41.6275C45.828 42.1507 45.9087 42.7183 45.8501 43.28L45.1601 43.91C45.0264 44.0363 44.8787 44.147 44.7201 44.2401C44.8749 43.6662 44.8903 43.0637 44.765 42.4828C44.6398 41.9018 44.3775 41.3591 44.0001 40.9001ZM42.6501 41.42C42.8849 41.4492 43.1232 41.4146 43.3401 41.32C43.6469 41.7909 43.833 42.3301 43.8818 42.89C43.9307 43.4499 43.8408 44.0132 43.6201 44.53C43.3016 44.5297 42.9849 44.4825 42.6801 44.39L42.4401 44.32C42.857 43.4059 42.9246 42.3707 42.6301 41.41L42.6501 41.42ZM41.0401 41.21L41.9301 41.32C42.0919 42.2515 41.9444 43.2103 41.5101 44.05L40.5101 43.75C40.9576 42.9827 41.1535 42.0944 41.0701 41.21H41.0401ZM39.2101 41L40.2801 41.1301C40.3609 41.9751 40.1867 42.8249 39.7801 43.57L38.6901 43.25C39.1115 42.5799 39.2947 41.7872 39.2101 41ZM34.8601 40.71C34.7801 40.7491 34.6909 40.7656 34.6022 40.7578C34.5135 40.75 34.4286 40.7182 34.3566 40.6658C34.2846 40.6133 34.2283 40.5423 34.1937 40.4602C34.159 40.3781 34.1474 40.2882 34.1601 40.2001C34.4235 40.0589 34.7196 39.99 35.0182 40.0006C35.3168 40.0111 35.6073 40.1006 35.8601 40.26C36.1201 40.43 36.3401 40.9 36.7001 41.19C36.6326 41.6559 36.5221 42.1145 36.3701 42.5601C36.1801 42.5502 35.9968 42.4862 35.8418 42.3758C35.6868 42.2654 35.5665 42.113 35.4951 41.9366C35.4237 41.7602 35.4041 41.5671 35.4387 41.3799C35.4732 41.1928 35.5604 41.0194 35.6901 40.8801C35.5934 40.7564 35.4563 40.6706 35.3027 40.6377C35.1492 40.6048 34.989 40.6269 34.8501 40.7001L34.8601 40.71ZM34.1501 42.7001C34.3686 42.7819 34.5975 42.8324 34.8301 42.85C34.8254 42.9043 34.8095 42.957 34.7832 43.0047C34.757 43.0524 34.721 43.0941 34.6777 43.127C34.6344 43.16 34.5846 43.1835 34.5316 43.1961C34.4787 43.2087 34.4236 43.21 34.3701 43.2001C34.3205 43.185 34.2747 43.1593 34.2359 43.1249C34.1971 43.0905 34.1661 43.0481 34.1453 43.0006C34.1244 42.9531 34.114 42.9017 34.1148 42.8498C34.1157 42.7979 34.1277 42.7468 34.1501 42.7001ZM33.1501 39.82C33.0926 39.7913 33.0467 39.7435 33.0203 39.6849C32.9938 39.6263 32.9883 39.5603 33.0047 39.4982C33.0212 39.436 33.0585 39.3813 33.1105 39.3434C33.1624 39.3055 33.2259 39.2867 33.2901 39.2901C33.5901 39.2901 34.0001 39.6401 34.3901 39.8101C33.9796 39.8785 33.5606 39.8785 33.1501 39.8101V39.82ZM34.1501 41.9001C34.3701 42.1101 35.0201 42.03 35.0201 42.03V42.16C34.7401 42.5401 33.9501 42.3701 34.1301 41.9001H34.1501ZM35.0101 41.4701C34.5501 41.6501 34.0701 41.4 34.2201 41.1C34.4401 41.3 35.0401 41.2001 35.0401 41.2001L35.0101 41.4701ZM35.6901 36.07L34.8001 39.3101L35.1001 34.0801L36.4801 32.9001L37.1801 34.44L35.4701 39.5L35.9401 36.0801C35.9401 35.8401 35.7901 35.8201 35.7501 36.0801L35.6901 36.07ZM35.8101 40C36.2344 39.9729 36.6603 39.993 37.0801 40.0601C37.2901 40.1501 37.1501 40.4901 36.8801 40.4501C36.5088 40.3375 36.1503 40.1866 35.8101 40ZM37.3601 40.7901L38.4401 40.92C38.5168 41.6673 38.3558 42.4196 37.9801 43.07L36.9801 42.7701C37.225 42.1293 37.37 41.4548 37.4101 40.7701L37.3601 40.7901ZM54.8201 55.1501C54.8681 56.257 54.605 57.3553 54.0606 58.3203C53.5162 59.2854 52.7123 60.0786 51.7401 60.6101L52.4301 59.21H51.7601L50.8801 61.01C49.885 61.378 48.831 61.561 47.7701 61.55C44.2601 61.55 43.3301 61.6901 42.0301 62.9901C40.7301 61.7001 39.8001 61.55 36.2901 61.55C35.2219 61.5595 34.1611 61.3731 33.1601 61L34.0501 59.2001H33.4001L32.6201 60.78C32.4301 60.69 32.2601 60.6 32.0801 60.5L32.7201 59.21H32.0601L31.5901 60.21C30.8191 59.6302 30.1993 58.8729 29.7833 58.0025C29.3672 57.1321 29.1672 56.1742 29.2001 55.21V47.2701H54.7701L54.8201 55.1501ZM55.5301 31.31C55.0964 32.3478 54.8558 33.4559 54.8201 34.5801V46.5801H53.4201C52.8737 45.7707 52.4774 44.8697 52.2501 43.92C52.131 44.3682 52.1069 44.8363 52.1792 45.2944C52.2515 45.7525 52.4187 46.1904 52.6701 46.5801H50.8701C50.4703 45.7121 50.191 44.7936 50.0401 43.85C49.5001 44.46 49.8401 46.1201 50.1801 46.5801H48.9901C48.9589 45.9816 49.0162 45.3818 49.1601 44.8C48.5301 44.68 47.8701 44.3601 47.8701 43.66C47.9803 43.7785 48.1192 43.8665 48.2734 43.9156C48.4275 43.9646 48.5917 43.973 48.7501 43.94L49.2601 43.5401C47.5801 43.59 47.5001 41.7501 48.8301 40.8801C47.4901 40.8801 46.5001 40.13 46.9801 38.71C46.7559 38.5663 46.5626 38.3792 46.4117 38.1597C46.2608 37.9403 46.1552 37.6929 46.1011 37.432C46.0471 37.1712 46.0457 36.9022 46.0971 36.6409C46.1484 36.3795 46.2514 36.1311 46.4001 35.91C46.1515 35.5733 45.9957 35.1771 45.9483 34.7611C45.9009 34.3452 45.9636 33.9241 46.1301 33.5401C45.4419 33.5472 44.778 33.2852 44.2801 32.8101H44.1701C44.9652 32.4896 45.6571 31.9569 46.1701 31.2701L55.5301 31.31ZM50.4401 25.53C49.0501 25.77 47.8601 27.47 46.8901 29L46.7801 29.18H45.7801V29.3601C45.6701 30.5401 44.5501 32.14 42.0801 32.14C41.147 32.1694 40.2323 31.8763 39.4901 31.31C39.0262 30.9436 38.6788 30.4503 38.4901 29.89C38.434 29.718 38.3971 29.5402 38.3801 29.3601V29.18H37.3801L37.1301 29C36.1301 27.47 34.9601 25.78 33.5801 25.53L37.3501 23.34L42.0001 25.85L46.6301 23.33L50.4401 25.53ZM46.1201 22.25L42.4201 24.2V16.33L47.4201 14.62L46.1201 22.25ZM42.0001 15.47L36.5001 13.3C36.9701 12.2 39.1201 11.3 41.9901 11.3C44.8601 11.3 46.9901 12.24 47.4701 13.3L42.0001 15.47Z" fill="#222220"/>
    <path fill-rule="evenodd" clip-rule="evenodd" d="M54.1901 39.05V38.45C52.3401 38.45 51.9201 36.23 51.9201 36.23C51.8216 36.5703 51.8064 36.9293 51.8757 37.2767C51.9451 37.6242 52.0969 37.9498 52.3185 38.2263C52.54 38.5028 52.8248 38.7219 53.1488 38.8652C53.4728 39.0086 53.8265 39.072 54.1801 39.05" fill="#222220"/>
    <path fill-rule="evenodd" clip-rule="evenodd" d="M51.8601 42.74L51.6801 42.17C50.1101 42.57 49.2901 40.08 49.2901 40.08C49.1851 40.4405 49.1772 40.8223 49.2673 41.1869C49.3575 41.5514 49.5423 41.8856 49.8032 42.1557C50.0642 42.4257 50.3918 42.622 50.753 42.7246C51.1143 42.8272 51.4962 42.8325 51.8601 42.74Z" fill="#222220"/>
    <path fill-rule="evenodd" clip-rule="evenodd" d="M53.0001 40.43C51.1201 40.73 50.3501 38.54 50.3501 38.54C50.2928 38.826 50.2949 39.1207 50.3561 39.4058C50.4174 39.691 50.5366 39.9605 50.7063 40.1977C50.876 40.4349 51.0926 40.6347 51.3426 40.7847C51.5927 40.9348 51.8709 41.0319 52.1601 41.07C52.0915 41.3801 52.1139 41.7034 52.2245 42.0011C52.3351 42.2988 52.5293 42.5583 52.7838 42.7483C53.0382 42.9384 53.3421 43.051 53.659 43.0725C53.9758 43.0941 54.2922 43.0238 54.5701 42.87L54.3901 42.33C54.1401 42.4257 53.8656 42.4365 53.6088 42.3608C53.3521 42.2851 53.1273 42.127 52.9693 41.911C52.8112 41.695 52.7286 41.4329 52.7342 41.1653C52.7398 40.8977 52.8332 40.6393 53.0001 40.43Z" fill="#222220"/>
    <path fill-rule="evenodd" clip-rule="evenodd" d="M51.8299 34.18V33.58C49.3499 33.07 49.5499 31.36 49.5499 31.36C49.4538 31.7002 49.4403 32.0584 49.5106 32.4048C49.5809 32.7513 49.7329 33.0759 49.954 33.3517C50.175 33.6276 50.4588 33.8467 50.7816 33.9907C51.1044 34.1348 51.4569 34.1997 51.8099 34.18" fill="#222220"/>
    <path fill-rule="evenodd" clip-rule="evenodd" d="M36.09 59.2L35.2 61.0099H35.87L36.76 59.2H36.09Z" fill="#222220"/>
    <path fill-rule="evenodd" clip-rule="evenodd" d="M37.43 59.2L36.55 61.0099H37.22L38.1 59.2H37.43Z" fill="#222220"/>
    <path fill-rule="evenodd" clip-rule="evenodd" d="M42.8099 59.2L41.9199 61.0099H42.5899L43.4799 59.2H42.8099Z" fill="#222220"/>
    <path fill-rule="evenodd" clip-rule="evenodd" d="M44.16 59.2L43.27 61.0099H43.94L44.82 59.2H44.16Z" fill="#222220"/>
    <path fill-rule="evenodd" clip-rule="evenodd" d="M41.4701 59.2L40.5801 61.0099H41.2501L42.1401 59.2H41.4701Z" fill="#222220"/>
    <path fill-rule="evenodd" clip-rule="evenodd" d="M49.3201 61.0099H49.9901L50.8801 59.2H50.2101L49.3201 61.0099Z" fill="#222220"/>
    <path fill-rule="evenodd" clip-rule="evenodd" d="M38.7799 59.2L37.8899 61.0099H38.5599L39.4499 59.2H38.7799Z" fill="#222220"/>
    <path fill-rule="evenodd" clip-rule="evenodd" d="M40.12 59.2L39.23 61.0099H39.91L40.79 59.2H40.12Z" fill="#222220"/>
    <path fill-rule="evenodd" clip-rule="evenodd" d="M37.08 49.5101C37.0256 49.5019 36.9701 49.5106 36.9207 49.5349C36.8714 49.5592 36.8307 49.5979 36.804 49.646C36.7773 49.6941 36.7659 49.7491 36.7714 49.8039C36.7768 49.8586 36.7988 49.9103 36.8345 49.9522C36.8701 49.994 36.9177 50.024 36.9709 50.0381C37.024 50.0522 37.0802 50.0497 37.1319 50.031C37.1836 50.0123 37.2284 49.9782 37.2602 49.9334C37.292 49.8885 37.3094 49.835 37.31 49.7801C37.313 49.7143 37.2909 49.6499 37.2482 49.5998C37.2055 49.5496 37.1454 49.5176 37.08 49.5101Z" fill="#222220"/>
    <path fill-rule="evenodd" clip-rule="evenodd" d="M42 8.83003C44.2113 8.76694 46.3822 9.43087 48.18 10.72C48.4617 9.26495 49.0037 7.87264 49.78 6.61003L47.56 6.86003L46.4 4.39003L44.17 5.55003L42 3.41003L39.84 5.56003L37.59 4.39003L36.43 6.86003L34.21 6.61003C34.9882 7.87165 35.5303 9.26433 35.81 10.72C37.6108 9.42944 39.7854 8.76547 42 8.83003ZM36.82 7.83003L37.86 5.60003L39.86 6.60003L42 4.51003L44.17 6.65003L46.17 5.65003L47.17 7.89003L48.47 7.69003C48.1284 8.30567 47.8535 8.95602 47.65 9.63003C45.9199 8.66405 43.9714 8.15692 41.99 8.15692C40.0085 8.15692 38.06 8.66405 36.33 9.63003C36.1251 8.95651 35.8503 8.30629 35.51 7.69003L36.82 7.83003Z" fill="#222220"/>
    <path fill-rule="evenodd" clip-rule="evenodd" d="M44.2601 4.40995C44.4151 4.42389 44.5693 4.376 44.6892 4.27673C44.8091 4.17746 44.8849 4.03485 44.9001 3.87995C44.8227 3.46415 44.6738 3.06491 44.4601 2.69995C44.4601 2.69995 43.7501 3.45995 43.7301 3.77995C43.7189 3.93332 43.768 4.085 43.867 4.20267C43.966 4.32035 44.1071 4.39472 44.2601 4.40995Z" fill="#222220"/>
    <path fill-rule="evenodd" clip-rule="evenodd" d="M47.89 5.72997C47.9581 5.76623 48.0327 5.78853 48.1096 5.79557C48.1864 5.80261 48.2639 5.79425 48.3375 5.77096C48.4111 5.74768 48.4792 5.70995 48.538 5.65998C48.5969 5.61002 48.6451 5.54882 48.68 5.47997C48.7708 5.06621 48.7878 4.63963 48.73 4.21997C48.73 4.21997 47.79 4.63997 47.64 4.92997C47.5694 5.06808 47.5561 5.2284 47.6029 5.37624C47.6497 5.52409 47.7528 5.64757 47.89 5.71997" fill="#222220"/>
    <path fill-rule="evenodd" clip-rule="evenodd" d="M39.7201 4.40995C39.8749 4.39718 40.0185 4.32386 40.1196 4.20592C40.2207 4.08797 40.2712 3.9349 40.2601 3.77995C40.2601 3.45995 39.5301 2.69995 39.5301 2.69995C39.3171 3.06525 39.1682 3.46436 39.0901 3.87995C39.1053 4.03297 39.1797 4.174 39.2974 4.273C39.415 4.37199 39.5667 4.42113 39.7201 4.40995Z" fill="#222220"/>
    <path fill-rule="evenodd" clip-rule="evenodd" d="M36.0801 5.72998C36.2155 5.65586 36.3164 5.53164 36.3613 5.38396C36.4062 5.23627 36.3914 5.07688 36.3201 4.93998C36.1701 4.64998 35.2301 4.22998 35.2301 4.22998C35.1751 4.65021 35.1955 5.07687 35.2901 5.48998C35.3249 5.55883 35.3732 5.62003 35.432 5.66999C35.4908 5.71996 35.559 5.75769 35.6326 5.78097C35.7061 5.80426 35.7836 5.81262 35.8604 5.80558C35.9373 5.79854 36.012 5.77624 36.0801 5.73998" fill="#222220"/>
    <path fill-rule="evenodd" clip-rule="evenodd" d="M79.71 25.72C80.4684 25.3947 81.0683 24.784 81.38 24.02C79.38 23.74 74.17 21.54 69.86 23.33C71.47 21.8 72.92 21.6 73.06 19.4C73.2343 19.5613 73.4432 19.6806 73.6707 19.749C73.8983 19.8173 74.1384 19.8327 74.3728 19.7942C74.6072 19.7556 74.8297 19.664 75.0233 19.5263C75.2169 19.3887 75.3765 19.2087 75.49 19C75.05 17.69 73.93 18.75 73.77 18.39C73.61 18.03 75.18 18.54 75.53 16.84C74.26 16.4 73.8799 17.44 73.6499 17.2C73.4199 16.96 74.46 16.53 73.71 15.2C72.39 15.97 73.08 16.85 72.8 16.94C72.52 17.03 72.73 16.01 71.27 16.06C71.13 17.63 72.64 17.68 72.39 17.93C72.14 18.18 71.69 17.03 70.59 17.64C70.5715 17.9044 70.6178 18.1693 70.7249 18.4118C70.832 18.6543 70.9965 18.8671 71.2044 19.0316C71.4123 19.1961 71.6571 19.3074 71.9177 19.3559C72.1783 19.4044 72.4468 19.3887 72.7 19.31C72.53 21.72 70.32 21.31 68.7 23.99C72.19 25.78 73.76 28.9 75.91 31.05C76.6707 30.2275 77.3166 29.3058 77.83 28.31C78.092 28.5736 78.4037 28.7828 78.7469 28.9256C79.0901 29.0684 79.4582 29.1419 79.83 29.1419C80.2017 29.1419 80.5698 29.0684 80.913 28.9256C81.2563 28.7828 81.5679 28.5736 81.83 28.31C81.03 27.49 81 26.87 79.78 25.75L79.71 25.72ZM76.3999 26.19C76.6592 26.8067 76.7567 27.4795 76.6832 28.1445C76.6097 28.8095 76.3676 29.4447 75.9799 29.99C74.9454 27.7451 73.4011 25.7728 71.47 24.23C71.16 24.03 71.64 23.67 72.53 23.55C75.21 23.04 78.35 24.18 79.85 24.55C79.277 25.0149 78.5831 25.3063 77.85 25.39C78.7838 26.112 79.606 26.9679 80.2899 27.93C79.2399 28.19 78.6399 27.52 76.3699 26.16" fill="#222220"/>
    <path fill-rule="evenodd" clip-rule="evenodd" d="M53.94 66.36V63.41C51.1106 64.6624 48.0861 65.4168 45 65.64L44.83 66.69C45.15 66.69 45.55 66.77 46.08 66.81C43.3327 67.1838 40.5473 67.1838 37.8 66.81C38.33 66.81 38.73 66.74 39.05 66.69L38.88 65.64C35.8141 65.4112 32.8103 64.6568 30 63.41V66.35L27 67.62C29.5457 68.9022 32.2299 69.8886 35 70.56L34.64 71.79C39.5044 73.1673 44.6556 73.1673 49.52 71.79L49.16 70.56C51.9299 69.8877 54.6139 68.9013 57.16 67.62L53.94 66.36ZM28.6 67.69L30.68 66.85V64.45C32.5041 65.1203 34.3805 65.6387 36.29 66L35.11 69.84C32.8724 69.3335 30.6914 68.6032 28.6 67.66V67.69ZM42 72.12C39.7749 72.1055 37.5594 71.8269 35.4 71.29L36.65 67.29C40.1952 67.8855 43.8148 67.8855 47.36 67.29L48.61 71.29C46.4471 71.8264 44.2284 72.105 42 72.12ZM48.87 69.87L47.68 66C49.5901 65.6322 51.4665 65.1071 53.29 64.43V66.83L55.37 67.67C53.2793 68.6151 51.0982 69.3455 48.86 69.85" fill="#222220"/>
    <path fill-rule="evenodd" clip-rule="evenodd" d="M6.16997 28.27C6.68506 29.2618 7.33081 30.1799 8.08997 31C10.24 28.85 11.82 25.73 15.3 23.94C13.65 21.23 11.44 21.68 11.3 19.26C11.5525 19.3367 11.8199 19.351 12.0791 19.3015C12.3383 19.2521 12.5817 19.1404 12.7883 18.9762C12.9948 18.8119 13.1584 18.5999 13.265 18.3585C13.3715 18.117 13.4178 17.8533 13.4 17.59C12.29 16.98 11.9 18.19 11.6 17.88C11.3 17.57 12.87 17.58 12.72 16.01C11.26 16.01 11.53 17.01 11.18 16.89C10.83 16.77 11.59 15.89 10.27 15.15C9.51997 16.53 10.54 16.96 10.33 17.15C10.12 17.34 9.71997 16.35 8.44997 16.79C8.78997 18.49 10.45 17.79 10.21 18.34C9.96997 18.89 8.92997 17.64 8.48997 18.95C8.60199 19.1603 8.76096 19.3418 8.95454 19.4807C9.14811 19.6195 9.37108 19.7118 9.60612 19.7505C9.84117 19.7892 10.082 19.7732 10.3098 19.7038C10.5377 19.6343 10.7465 19.5133 10.92 19.35C11.06 21.56 12.51 21.74 14.12 23.28C9.80997 21.49 4.57997 23.69 2.59997 23.97C2.91615 24.7322 3.51966 25.3393 4.27997 25.66C2.99997 26.84 2.99997 27.46 2.21997 28.28C2.21997 28.28 3.84997 30.07 6.21997 28.28L6.16997 28.27ZM3.77997 27.94C4.46528 26.9758 5.2911 26.1197 6.22997 25.4C5.49652 25.3108 4.80321 25.0162 4.22997 24.55C5.72997 24.15 8.87997 23.02 11.56 23.55C12.44 23.67 12.94 24.03 12.62 24.23C10.6738 25.772 9.11562 27.748 8.06997 30C7.68832 29.452 7.44995 28.8172 7.37659 28.1535C7.30322 27.4897 7.39721 26.8181 7.64997 26.2C5.38997 27.57 4.78997 28.2 3.72997 27.97" fill="#222220"/>
    <path fill-rule="evenodd" clip-rule="evenodd" d="M40.1001 26.63V27.93C40.2734 27.7664 40.4806 27.643 40.7071 27.5687C40.9335 27.4943 41.1736 27.4709 41.4101 27.5V29.37C41.4019 29.8331 41.2782 30.2869 41.0501 30.69H42.9201C42.6924 30.2867 42.5687 29.8331 42.5601 29.37V27.49C42.7967 27.4602 43.0369 27.4833 43.2635 27.5577C43.49 27.632 43.6972 27.7558 43.8701 27.92V26.62H40.1001V26.63Z" fill="#222220"/>
</svg>
